<svg xmlns="http://www.w3.org/2000/svg" viewBox="0 0 381.8 588.1"><path class="c" d="m129 286-1 14c0 2 1 3 3 3 1 0 2-1 2-3l1-14c0-1-1-2-3-2l-2 2Zm30 2-1 17 2 3 3-2 1-18c0-1-1-2-3-2l-2 2Z"/><path class="c" d="M128 300c-12 1-25 2-37 5l-16 8c-6 4-10 9-14 15a375 375 0 0 0-42 72 515 515 0 0 0-18 46c5 3 11 2 15 0s9-7 12-11l20-27a518 518 0 0 1 37-44c2-2 3-4 6-5 1-1 3-2 3 0v7a200 200 0 0 1-8 47c-5 21-13 42-19 63a309 309 0 0 0-14 79c1 4 2 10 7 12 4 2 9 1 13-2s6-8 7-13l10-36 10-36c2-4 3-9 8-10h7l9 2 37 5 18 2 8 2 4 6c5 9 9 18 11 28 5 19 7 40 15 58l6 14 3 1c8-3 10-12 11-20v-29c-1-21-5-40-9-60l-11-59a254 254 0 0 1-1-52l1-6 2-3c2 0 4 2 5 3l6 12 4 14a380 380 0 0 0 29 72c2 4 5 8 10 9s8-5 9-9c4-9 2-20 0-29a315 315 0 0 0-31-88c-5-8-11-16-20-21l-27-13c-9-4-20-5-30-6l-15-1c-3 0-3 5 0 5 20 0 40 4 58 13 8 4 17 9 23 16 7 7 11 16 15 25a311 311 0 0 1 24 87c0 5-1 10-3 14l-3 2-4-4-7-13a314 314 0 0 1-22-57l-4-14c-1-4-3-9-6-13-2-3-5-8-10-9s-7 3-8 7l-1 7a171 171 0 0 0-1 36c2 20 6 39 10 58 4 20 8 39 10 58a247 247 0 0 1 2 44c0 4 0 8-2 12-1 3-2 6-5 7l3 1c-11-17-14-38-18-57a176 176 0 0 0-15-43l-5-6c-2-2-4-3-7-3l-37-5-19-3-9-1-8-1c-5 0-10 2-12 7l-3 7-2 10-10 36-5 18c-2 5-3 11-6 15-2 3-6 6-10 5-4-2-4-8-4-11 1-22 5-43 11-64l19-62c6-21 11-43 12-64 0-2 0-5-2-7-1-2-4-3-7-2l-6 4a201 201 0 0 0-28 31l-20 26-10 14-10 12c-4 2-9 4-13 2l1 3a505 505 0 0 1 69-124c4-4 9-7 14-9 13-5 27-6 40-7 3 0 3-5 0-5Z"/><path class="c" d="M113 306a237 237 0 0 1 0 49v5l-1 1h1l1-1h-3l-3-1c-2 0-5 0-7 2v3h4c1-1 3 0 4 1h6c3-1 2-3 3-6v-7a274 274 0 0 0 0-46c0-1-1-2-3-2l-2 2Z"/><path class="c" d="M102 360h-1 1-1 1-1 1-3v1l-1 1v2h1a3 3 0 0 0 1 1h3l1-1 1-1v-3l-1-1h-1l-1 1Zm24-55 2 29c0 9 1 18-1 27 0 2 1 3 3 3 10 0 21 1 32 4l3-2c1-22 2-43 1-64 0-3-5-3-5 0 1 21 0 42-1 64l3-3c-11-3-22-5-33-4l2 3c2-9 1-18 1-28l-2-29c0-3-5-3-5 0Zm46 2c-1 7 0 13 1 20l2 20-1 10-1 9v4c1 2 3 2 5 2a81 81 0 0 1 30 5l3-2c1-1 0-2-1-3a82 82 0 0 0-32-5h-1v1-1l2-10 1-9-2-19c-1-7-2-14-1-21l-2-3-3 2Zm-52 67c-4 1-9 5-8 9 0 2 2 3 3 5s3 2 5 3c4 1 8 1 11-1s5-6 3-10-6-6-10-6c-2 0-3 1-3 2l3 3h1a13 13 0 0 1 1 0h1l2 2v1h1v2s0-1 0 0l-1 1s1-1 0 0v1s-1 0 0 0h-2v1h-4l-3-2-3-2v-2h1a9 9 0 0 1 2-2h1l2-3c-1-1-2-3-3-2Zm45 6h-6c-2 1-3 4-3 6 0 4 3 8 7 10s7 2 11 0c2-1 4-3 4-5 1-2 0-5-2-6l-6-5c-2 0-5 0-7 3l1 3c2 1 3 0 4-1-1 1 0 0 0 0s-1 0 0 0h1s-1 0 0 0l1 1c1 0 0 0 0 0a28 28 0 0 1 3 3s0 1 0 0v1c1 0 0 0 0 0v1c0-1 0 0 0 0l-1 1c-1 0-1 0 0 0h-2a12 12 0 0 1-2 0h-2c0-1 0 0 0 0a8 8 0 0 1-1-1l-1-1h-1l-1-1v-1l-1-1v-2c0-1 0 0 0 0s0-1 0 0v-1c0 1 0 1 0 0h1c-1 0 0 0 0 0h4c1-2 0-3-1-4Z"/></svg>