<svg xmlns="http://www.w3.org/2000/svg" viewBox="0 0 381.8 588.1"><path class="c" d="m93 173 1 1v2l-2 1h1l2 2 4 2 8 5c1 1 3 0 3-1v-3l-16-10-3 1v3c5 4 10 8 16 10l2-4-2-1-3 2c-1 1 1 3 2 3l2 1 3-2-1-3c-6-2-11-6-16-10l-3 4 16 10 3-4-12-8c-2-1-4-3-7-2-3 2-2 6 2 6l2-2-2-3Zm83 8-16 4c-3 1-2 5 1 4l22-7c3-1 2-5-1-5l-3 1c-1 0-2 2-1 3 0 1 1 2 3 2l2-1-1-5-22 8 1 4 16-3c2 0 2-2 2-3 0-2-2-2-3-2Zm-47 49c-1-5 5-11 11-9l6 5a16 16 0 0 1 2 6v2l2-1c-2 0-3 0-3 2-1 1 0 2 1 3 3 0 4-1 5-3v-6l-6-9c-3-3-5-4-9-4a14 14 0 0 0-14 14c0 2 1 3 2 3 2 0 3-1 3-3Zm-29-33c3 0 3-5 0-5s-4 5 0 5Zm74 5c3 0 3-5 0-5s-3 5 0 5Zm33-25v6h-1c0 1 0 0 0 0v2s-1 0 0 0l-2 1s1 0 0 0l-1 1h-1c1 0 1 0 0 0a9 9 0 0 1-1 0c-1 1 0 0 0 0h-1c-2 0-3 2-3 3l3 2a12 12 0 0 0 12-9v-6c0-1-1-3-3-3-1 0-2 1-2 3Zm1 19a9 9 0 0 1 2 0h2c-1 0-1 0 0 0h1l1 1h1c0 1 0 0 0 0l1 1v1a5 5 0 0 0 1 0v2c1 2 2 2 3 2 2 0 2-2 2-3-1-7-9-11-15-8l-2 1v2c0 1 2 2 3 1Zm10-16c-2 3-1 7 0 9s5 5 8 5c1 1 3-1 2-2l-2-3v1-1h-1c-1 0 0 0 0 0h-1v-1h-1v-1l-1-1v1-2c0 1 0 0 0 0v-1c0-1 0 0 0 0v-1c0-1 0 0 0 0 1-1 1-3-1-4l-3 1Z"/></svg>