<svg xmlns="http://www.w3.org/2000/svg" viewBox="0 0 381.8 588.1"><path class="c" d="M129 166c-11-2-22-1-32 4-9 5-16 14-18 24s1 19 8 26 15 11 24 14c21 7 46 8 66-4 8-5 15-13 19-22 2-5 3-10 2-15-1-6-4-11-8-14s-9-4-14-6a243 243 0 0 0-45-7l-9 2c-2 1-4 2-6 1-2 0-3 1-3 2-1 2 0 3 1 3 6 2 11-2 16-3h16l33 8 11 7c3 3 4 8 3 13-1 9-7 17-13 22-16 14-39 15-59 11-8-2-17-5-24-10s-12-12-13-20c-2-8 3-17 9-23 8-7 18-9 28-9l7 1c1 0 3 0 3-2 0-1 0-2-2-3Z"/><path class="c" d="M107 180c-4 0-7 2-9 3s-6 5-5 9c0 3 3 5 5 6l10 3c7 0 13 0 19-3 3-1 6-3 6-7s-2-6-5-7l-9-3-13-1c-1-1-3 0-3 1 0 2 0 3 2 3l16 3 6 2 1 2-1 2a31 31 0 0 1-22 2l-6-3-1-1 2-3c2-1 4-3 7-3l2-2c0-2-1-3-2-3Z"/></svg>