<svg xmlns="http://www.w3.org/2000/svg" viewBox="0 0 381.8 588.1"><path class="c" d="M85 177a392 392 0 0 0-4 24v5c0 3 3 5 6 6a151 151 0 0 0 90 7c5-1 11-3 15-6l4-4 1-5a90 90 0 0 0-2-31c-1-2-2-3-3-2-29 7-59 8-88 3l-12-2c-4-1-8 1-7 5 1 3 6 2 5-1l-1 1h2c-1 0 1 0 0 0h1a313 313 0 0 0 35 5 230 230 0 0 0 66-6l-3-2a95 95 0 0 1 2 30l-1 3c-1 2-4 3-6 4l-7 3-16 2a165 165 0 0 1-72-8l-3-2-1-3a269 269 0 0 1 4-25l-2-3c-1-1-3 0-3 2Z"/><path class="c" d="M105 199c3 0 3-5 0-5s-4 5 0 5Zm-4-10 12 5c1 1 3 1 4-1l-1-3-12-5c-1-1-3 0-4 1l1 3Zm68 13c3 0 3-5 0-5s-3 5 0 5Zm-2-13-8 4-2 1v2l1 1h2l9-3 1-1 1-2-2-2h-2Z"/><path class="c" d="M125 117c-19 0-37 9-50 23a86 86 0 0 0-21 55c-1 18 4 36 13 52s24 28 41 35c11 3 21 5 32 5l33-1a134 134 0 0 0 58-20 58 58 0 0 0 28-48c0-10-1-21-3-31-2-9-5-18-9-26-4-9-9-16-16-22-8-7-18-11-28-14a206 206 0 0 0-82-9c-2 0-3 2-2 3 0 2 2 2 3 2 21-3 43 0 64 5 10 2 20 5 29 9s16 9 21 17c5 7 9 15 12 23l5 28c1 9 1 19-1 29-3 8-8 16-14 22-14 13-32 20-50 24a164 164 0 0 1-63 3 73 73 0 0 1-47-26 88 88 0 0 1-7-100c9-15 24-27 41-31l13-2c3 0 3-5 0-5Z"/><path class="c" d="M216 227c1-2 0-4-2-4-2-1-4 1-4 2l-1 5-2 6c0 3 4 4 5 1l6-30c0-2-3-3-5-1l-9 21 5 2 2-18c1-1 0-3-1-3-1-1-3 0-3 1l-8 15 5 2 2-24c0-2-4-3-5 0 0 4-1 7-3 11l4 2 2-9-2-3-3 2-4 11c-1 3 3 5 5 2l4-13c1-3-3-5-4-2-2 2-3 6-4 9 0 3 5 4 5 1l2-7c0-2-3-4-5-1l-3 5 5 2 2-9c1-3-3-5-4-2l-5 12c0 3 4 5 5 2l7-14-5-1-1 16 2 3c2 0 2-1 3-2l6-18h-5l-1 20c0 2 1 3 2 3l3-2 8-20-5-1-1 18 2 3 3-2 7-21h-5l-4 23c-1 3 4 4 5 1l8-21-5-1-3 18 1 3 3-1 9-17-5-2-4 21c-1 3 3 4 4 2 4-6 6-12 8-18l-5-1-3 18 2 3c1 0 3 0 3-2l6-17-5-1-1 18c0 3 4 3 5 1l7-17h-5l-2 18 2 2c2 0 3 0 3-2l6-16-5-1-2 15c0 3 4 4 5 2 3-5 5-10 5-15l-4-1v4l2 3 3-2 1-6h-5v5h5l2-11c1-3-3-5-5-2l-4 9 5 1 1-18c-1-2-4-4-5-1l-7 18h5l3-22c0-3-4-4-5-2l-9 19 5 2 3-23-1-3-3 1c-4 8-7 15-9 23-1 3 4 5 5 2 2-10 4-19 4-29l-2-2c-5-1-6 6-8 9l-4 14 5 1 3-23c0-2-4-3-5-1-4 9-6 19-8 29 0 3 5 3 5 1l4-24-1-3c-1-1-3-1-3 1-4 7-6 15-6 24 0 2 4 3 5 0 3-12 4-25 3-37 0-3-4-4-5-1-4 12-8 24-5 36 0 3 4 3 4 0 2-9 3-19 3-29 0-3-5-3-5 0l-2 28h4c-2-12 2-23 6-34h-5c1 12 0 24-3 36l5 1c0-8 2-15 5-22l-5-2-4 24 5 1c2-9 4-18 8-27l-5-1-3 22c-1 3 4 5 5 1a174 174 0 0 1 5-16l1-2v-1c1-1 1 0 0 0l-2-3c0 9-2 19-4 27l5 2c2-8 4-15 8-22l-5-2-3 23c0 1 0 2 2 3l3-1 8-19-4-1-3 22c0 3 4 4 5 1 1-6 3-12 6-17l-4-1-1 17c0 1 0 3 2 3l3-2 4-8-5-2-2 13c0 2 1 3 3 3 1 0 2-1 2-3v-6c0-2-5-3-5 0l-1 5 5 1v-4c-1-1-1-2-3-2-1 0-2 0-2 2l-5 13 4 1 2-15-2-3c-2 0-3 1-3 2l-6 17 5 1 2-18c0-3-4-4-5-1-1 6-4 11-7 16l5 1 1-18-2-2c-1 0-2 0-3 2l-6 17 5 1 3-18-2-3-3 2c-1 6-4 11-7 16l5 2 4-21c1-2-3-4-4-2l-9 17 5 2 3-18c0-3-4-4-5-1l-8 21 5 1 4-24c1-2-1-3-2-3l-3 2-7 21h5l1-18c1-2-3-3-4-1l-9 21h5l1-20c1-3-4-4-4-1l-7 17 5 1 1-16c0-2-3-3-4-1l-7 13 4 2 4-10-5-2-2 9c-1 2 3 4 4 2l4-6-5-2-1 6 4 1 3-7-4-2-5 13 5 1 4-10-5-1-1 8c-1 3 3 4 4 2l4-13-5-1-2 22 1 3c1 1 3 0 3-1l8-14-4-2-3 17c-1 4 3 5 5 2l9-20-5-2c-1 10-3 19-6 29l5 1 1-6 1-2v-2l-2 1-1-1v-2c-1 3 4 5 5 2ZM94 149v21c0 2 4 3 5 1l11-28-5-1-2 15-1 7c0 2 1 4 4 5s4-1 5-3l3-7 7-13-5-1-1 19c0 2 3 3 5 1l10-23-5 1c2 3 1 6 0 9-1 4-1 8 1 12 1 1 4 1 5-1 1-7 5-14 10-20l-5-1c1 6 0 12-1 18-1 2 3 4 4 2l9-17h-5l1 3-1 4c0 3-1 7 1 10h4l9-15-5-1c2 4 2 9 0 13-1 3 3 4 5 2l6-10v-1h-2v3l1 6c0 2 3 3 4 1l4-9-4-1-1 2-2 3 4 2c3-1 5-5 3-8l-2-2-2 1-4 9 5 2-1-8c0-2-1-5-4-5s-4 3-5 5l-4 7 4 2c2-5 2-10 0-15 0-2-3-3-4-1l-9 15h4v-3l1-4c0-3 1-7-1-9-1-2-4-2-5 0l-8 16 4 2c2-6 2-13 2-19 0-2-3-4-4-2-5 6-9 14-11 22l4-1v-21c-1-2-4-1-5 1l-10 21 5 2 1-19c0-3-4-4-5-1l-5 10-3 6-1 3-1 1 1 1v-1l1-3 1-6 1-12c1-3-3-4-5-1l-10 26 4 2v-21c0-3-5-3-5 0Z"/><path class="c" d="M200 188v7h35c0-5-1-10-3-14-2-9-10-14-19-13s-14 9-15 17l1 14 34-9-3-10c-3-8-11-13-19-12s-16 8-16 17l2 20v4l-1 4v2l-1 5-1 3c1-4-1 0-1 1l-2 3-1 1-2 3h-1l-2 1-4 1-4 1c-3 1 1 1-1 1h-8l-10-1h-2l-5-1c-14-2-28-4-42-4-9-1-18 8-18 17 1 10 8 17 18 18a393 393 0 0 1 28 2h3l11 2c16 2 32 3 47-4s25-19 30-34c5-14 4-30 2-45l-34 5 3 9c3 9 12 15 22 12 9-3 13-12 12-21v-5l-34 5 1 4v1c1 9 8 18 18 17s16-7 17-17c0-6 0-11-2-17-2-9-12-15-21-12s-15 12-12 22ZM70 212c8 0 8-13 0-13s-8 13 0 13Zm61-59-14 1 2 13c6-2 11-2 16 0l-2-11c1-1 1-1-1-1h-9l-13 2c-7 2-6 13 2 13h16l-3-10h-1c-6 5 3 15 9 9h1c4-3 2-10-3-11-6-1-13-2-19-1l1 12 16-1c5 0 9 1 13-3s1-9-3-11c-8-2-16-2-24 0-6 2-5 14 2 13l14-1c8-1 8-14 0-13Z"/><path class="c" d="M129 147c-4 1-8 0-11-1v11c5-3 10-4 16-2l-2-12c-9 5-20 5-31 5l2 12 26-3-5-12c-8 4-16 6-25 8l7 11c6-8 14-14 23-19 7-3 2-13-5-11l-24 5 5 12c4-4 9-7 14-9l-7-11c-6 5-12 9-18 11l6 10 10-9c4-4 0-11-5-11-6-1-12 2-15 6l10 8 4-6c5-5-1-14-7-10l-10 7 8 10 5-5c5-6-3-15-9-9l-9 8 9 9 6-8c5-6-3-15-9-9a88 88 0 0 0-30 64c0 25 11 49 29 65l9-9-14-12c-5-4-15 2-10 8 5 7 10 13 17 19s15-3 9-9c-3-4-6-7-8-12l-8 8 8 4c7 4 14-5 8-10l-12-15-8 9 12 7c5 4 13-5 8-10l-17-14 1 8-4 2h1l5 2 9 3c7 3 11-8 5-12l-20-13-5 12c5 1 10 4 14 7l8-10c-7-5-14-10-19-17l-10 9 9 9c5 7 15 1 11-6-4-8-6-17-8-26-1-8-12-5-12 2-1 7 0 15 2 23 2 6 13 5 13-2l-2-25c0-8-13-8-13 0l2 19c0 7 10 8 12 1l3-12c0-7-12-9-13-2l-1 14c0 7 11 9 13 2l1-14c1-8-12-8-13 0v7c-1 7 12 9 13 2 3-21 6-42 13-62 3-7-8-11-12-5-11 18-17 39-18 60-1 7 10 9 12 2 3-11 3-21 6-31 1-5 2-10 5-14l2-2c-3-3-5-3-5-1v1l-2 9c-2 5 3 9 8 8 2 0 3-1 5-3 3-3 1-12-5-11-4 1-7 2-9 6-2 3-1 9 4 9a329 329 0 0 0 92 2c10-2 20-3 28-7 7-3 3-12-3-12-17-2-33-1-50 1l4 13 26-7c8-2 6-13-1-13-16 0-32 1-47 3l3 13c7-2 14-3 22-2l-2-13-21 5 6 11 10-4 11-7c2-3 2-10-3-11-22-5-43-11-63-20l-1 12 13-5c8-2 5-15-3-12l-14 4c-4 2-7 10-1 12 21 9 43 17 65 22l-3-11c-2 3-6 4-9 5-4 1-8 3-11 6-6 4 0 12 6 11l22-6c8-2 5-12-2-12-9-1-17 0-25 2s-5 14 3 13c14-2 29-3 44-3l-2-13-27 7c-8 3-5 14 4 13 15-3 31-3 46-1l-3-12c-8 4-18 4-26 5a316 316 0 0 1-85-1l4 10h-2l-5-11h1l8 8c3-7 7-19-1-24s-14 2-18 8c-8 14-7 31-11 46l13 2c0-19 6-37 17-53l-12-5c-8 20-11 40-14 61l13 2v-7H70l-1 10 13 2 1-10-13-2-2 9 13 2-2-19H66l2 25 13-2c-2-6-3-13-2-19l-13 1c2 10 4 20 9 30l11-7c-3-5-6-9-10-12-7-6-15 2-10 9 7 8 14 14 22 19 6 5 14-5 8-10s-12-9-19-11-11 8-5 12l19 14 5-12c-6-3-21-12-26-2-1 3-1 6 1 8l17 14 8-10c-4-4-9-6-14-8s-11 5-8 9l15 18 8-10-11-5c-5-2-10 3-8 8 2 6 6 12 11 17l9-9-15-17-10 8 14 12c6 6 15-3 9-9a73 73 0 0 1 1-111l-9-9-6 8c-6 6 2 14 9 9l9-8-9-9-5 5c-4 6 2 15 8 11l9-7-8-11-6 9c-4 6 5 13 10 8 2-3 3-3 6-3l-5-11-9 9c-5 5 0 13 6 11 9-2 17-7 24-13 5-6-2-14-8-11l-15 10c-6 4-2 13 5 11l24-5-5-12c-9 5-18 12-26 21-4 5 0 11 7 10 9-1 19-4 27-9 7-4 2-13-5-12l-26 4c-7 1-5 12 2 13 13 0 26 0 38-7 5-2 3-10-2-12-9-3-18-1-26 4-4 2-5 9 0 11 7 3 14 4 22 3 8-2 5-14-4-13Z"/><path class="c" d="m130 134-1 6 10-5-7-5-2 10-1 1c7 0 9-10 4-13l-16-5v13c15-7 31-7 47-4s32 7 46 13c7 2 14 6 18 12s7 11 8 18c3 17 7 33 2 50h13c-4-9-6-18-9-28-1-6-11-6-12 0-2 7-2 14-2 21s12 10 13 2c1-9 2-18 1-27 0-7-11-9-13-2l-3 11c-4 7 7 14 11 6l5-13-13-2-1 23 13 2 1-17h-12l8 27c2 6 11 7 13 0 2-9 3-19 2-29l-4-27c-2-8-4-16-9-22-6-7-12-12-20-15-16-8-35-12-52-15s-37-4-55 3c-5 2-7 11 0 13l13 4 3-12c-2-1-3 0-5 1-4 2-5 8-2 10l11 7c4 2 9-1 9-6v-10c-1-4-5-5-8-4-4 0-5 4-4 8Z"/><path class="c" d="M209 163c-2-2-5-5-9-4-3 1-5 3-6 6-2 6-3 14 3 17 5 3 9 0 10-5 1-6-1-12-4-17-3-4-11-4-12 2v11c0 3 0 8 3 11 4 4 11 0 11-5l-1-7c-2-8-14-5-12 3v4l11-4h1v-10l-12 2c2 3 2 6 2 10l10-6h-1l3 4 1-6-2 2h-7l2 1c6 6 15-3 9-9Z"/><path class="c" d="M133 128c-2 5-3 9-1 14 1 6 9 6 11 2l7-11-12-3-1 10c0 5 6 9 10 6a13 13 0 0 0 6-7c0-2 1-1-2 0l-8-6v11c0 5 7 8 11 4l7-8-12-4 1 9c0 6 9 9 12 3l4-8-12-3-1 10c-1 7 9 9 12 4l5-10-12-4-1 9c-1 8 11 9 13 2l3-13-8 4h1l-4-3c-1-2-1-1-1 1v5l-1 9c-1 4 2 6 5 7 4 0 6-2 7-5a155 155 0 0 1 7-13h-2l-7-8-3 18c-1 6 6 11 11 6 4-4 5-10 9-14l-12-5-2 18c0 7 9 9 12 4l8-12h-9c-1-3-1-3-1-1v4l-1 8c-1 6 9 9 12 3l3-7 2-4-10-6-2 18c-1 6 9 8 12 3l9-16-12-5-3 17c-1 5 3 10 8 8 8-2 11-15 17-21l-11-6-5 20c-2 8 8 12 12 5l11-17-12-5-4 19c-2 7 8 11 12 5l8-13-12-3c0 7-3 14-1 21 2 6 9 6 12 2l8-12-12-5-3 21c1 6 9 8 13 3l6-14-13-1c0 5-2 16 4 19 7 5 12-3 13-9 1-7-11-9-13-2l-4 19c-2 8 11 12 13 3l4-18-13-2c7 4 10 4 9-1v-9c0-8-11-9-13-2-1 4-2 7-5 10l12 4 2-18c2-7-7-11-12-5l-7 12 12 2c-2-6 1-12 1-18 0-7-9-9-12-3l-8 12 12 5 4-18c1-7-8-11-12-5l-11 17 12 5 5-21c2-6-6-10-11-6l-8 9-3 6-1 2c-2 2-1 2 0 1l8 8 4-17c1-8-8-11-12-5l-9 15 12 4 2-18c1-5-6-8-9-5-6 3-8 10-10 15l12 4c0-6 4-16-2-21-2-2-6-3-9 0l-10 15 12 3 2-18c1-5-7-8-11-4s-4 10-8 14l11 6 3-18c1-4-2-8-6-8-6-1-8 4-10 8l-7 15 13 1 1-15c1-5-1-8-5-9s-7 1-8 4l-4 13 13 2 1-9c1-6-9-8-12-3l-5 10 12 3 1-10c1-7-9-9-12-4l-4 9 12 3-1-9c0-6-7-9-11-5l-6 8 11 5v-11c0-4-4-8-8-6-3 0-5 2-6 4l-1 3c-1 0-2 2 0 1l9 5 1-10c0-7-9-9-12-4l-7 11 12 2v-4c4-8-7-14-11-7Zm-61 93c0 9 2 18 6 27l11-7c-3-5-7-9-12-12-4-3-10 0-10 5 1 6 2 11 5 15l10-8-3-6c-3-7-15-2-12 5 2 5 4 10 10 12s10-1 13-5c3-5 3-11 1-16l-3-19-11 4c3 4 8 6 13 7l17 5 35 6c23 2 47-1 69-9 5-2 7-9 1-12l-8-2c-3 1-5 3-8 3l5 2v7c8-4 1-15-6-12l-3 2 7 11 3-1-8-11h-4l-6 1-13 3-28 3c-19 3-38 5-58 5-7 0-9 11-2 12l32 3c6 0 10-9 4-12-8-4-17-5-25-2-6 2-7 11 0 12 31 6 63 1 95 3l-2-13-18 5c-6 2-5 13 2 13l20-2c6-1 12-2 17-6s0-13-6-11l-4 1c-7 3-4 15 4 13l3-1-6-11c-3 2-10 2-13 2l-15 2 2 13 17-5c8-2 6-13-1-13-31-2-62 4-92-2v12c5-1 10-1 15 1l3-12c-9 0-19 0-28-2l-2 13c21 0 43-3 64-5l30-5 13-2c4 0 8 0 11-3 5-6-2-14-8-11l-3 2c-8 3-1 14 7 11l2-1-6-12c-5 3-8 10-4 14 3 2 5 3 8 2l5-2 2-1 1-12c-19 8-40 11-61 9a275 275 0 0 1-46-8c-4-2-11-3-14-6-4-4-12-1-11 5l2 18c1 3 3 5 2 8v2l2-1-1-2-12 5 5 9c5 5 14-2 10-8l-3-9-9 6c3 2 5 4 7 8 3 7 14 1 11-7-3-6-4-13-4-20 0-8-13-8-13 0Zm155-1-10 12 12 7c2-7 5-14 10-19l-11-7-5 17c-2 6 6 10 11 6 4-4 5-9 9-13l2-3 2-1c3-1 5-1 7-3l-11-5c0 9-1 18-6 26s-12 11-20 16l10 6c-1-8 9-15 15-19l-6-11c-5 4-11 7-16 9l8 10 13-11-9-9-5 4c-7 4-1 15 7 11 4-2 7-5 9-9 4-5-3-12-8-9l-16 14c-6 6 1 13 7 10l16-8c7-5 1-16-6-12-10 6-23 17-22 30 0 4 5 8 10 5 9-6 18-11 24-21 6-9 8-21 8-32 0-5-7-9-11-4 3-1 3-1 1-1h-2l-3 1-7 6c-4 4-5 10-9 14l11 6 5-16c2-6-7-12-11-7-6 7-9 14-13 22-3 8 7 14 12 7l7-10c6-6-3-15-9-9Z"/><path class="c" d="M90 269c12 9 26 11 41 12 7 1 8-8 3-12l-12-5-11-2-6 8 33 2c11 1 22 3 33 2 22-3 44-7 64-15l-5-12-8 8-12 4a187 187 0 0 1-56 7c-10-1-20-3-30-2-5 0-8 5-5 9 4 8 12 11 21 11h30l28-6c8-2 15-6 20-12 2-3 3-7 0-9-2-3-7-3-9 0-8 10-25 11-36 13-8 2-16 2-24 1-6-1-15 2-19-4l-6 10c11-1 21 1 31 2s21-1 31-2 19-3 29-6l13-5c4-2 5-5 8-8 3-2 4-5 3-8s-5-5-8-4c-19 8-41 13-62 15-10 1-21-1-31-2l-33-2c-5 0-7 4-7 8 2 6 7 9 12 10 7 1 12 2 18 5l3-12c-11 0-23-2-31-9-7-5-16 4-10 10Z"/></svg>