<svg xmlns="http://www.w3.org/2000/svg" viewBox="0 0 381.8 588.1"><path class="c" d="M81 128c-4-2-10-2-14 1s-4 10-2 14l2-4c-5-1-9 4-10 8-1 6 2 11 7 13l8 1 9-2c3-1 5-2 8 0l7 4h11l10 2 10 2 10 2h5l4-2c2-1 4 0 6 1l8 4 9 2 11-3 5-2 4-1c4 0 6 2 10 1 3 0 6-1 7-5h-5c3 7 10 12 17 11 4 0 7-1 11-3 2-2 6-5 9-4l4 4c2 0 4 0 6-2l3-3 4-3c3-2 6-5 6-9s-3-8-6-10l-13-7c-4-2-11-2-16-2-3 0-3 5 0 5 8 0 16 2 23 6 3 1 6 3 7 6s-1 5-3 7l-7 5-2 2-4-3c-7-3-13 4-19 6s-13-1-15-7c-1-2-4-3-5 0l-1 1h-3l-8-1-9 3-8 2h-8l-7-3-7-4-8 2-3 1h-4l-10-3-19-3h-9l-7-4-8-1-8 3c-4 1-10-1-12-5l1-5c1-2 2-2 4-2s3-2 2-4 0-5 2-7 5-2 7 0c3 1 6-3 3-5Z"/><path class="c" d="m85 130-1-2h-1l-1-1a6 6 0 0 0-2 0h-1l-2 1v2l1 2h3-1 1-1 1-1 1l1 1h2l1-2v-1Zm-20 2 4 4 1 1 2 2v-1 1-2 1-2 1-1h1v-1h2-1l1 1h1v2l-1 1v1l1-2v-2l-2-1h-2l-1 1v2l1 1c1 1 2 2 3 1 2-1 2-3 1-4l-1-2-7-5-1-1-2 1v3Zm0 16-13 5c-1 1-2 3-1 4l3 1 6-4h1c-1 0-1 0 0 0h1a40 40 0 0 1 4-2c2 0 3-1 2-3s-2-2-3-1Zm8 10 1 8v1l1 1h3l4-4 1-2-1-1-1-1h-1l-1 1-5 3 5 2-1-8-1-1-2-1-2 1v1Zm24-1 7 14c0 1 2 2 3 1s2-2 1-3l-7-14c-1-2-2-2-3-1-2 1-2 2-1 3Zm24 4 1 3h1v1c0-1 0-1 0 0a32 32 0 0 1 1 4v3l3 2 2-2c0-5-1-10-4-14l-3-1c-1 1-2 3-1 4Zm33 5-5 5-1 2 1 2 1 1 2-1 5-6 1-1-1-2-2-1-1 1Zm27 4 1 5 3 4h4v-3l-1-2v1l-1-3v1l-1-4v1l-1-2-1-1-2 1-1 2Zm32-9c-2 5-2 11 0 16 0 1 1 2 3 2 1-1 2-2 1-4l-1-6 1-6c1-2 0-3-1-3-2-1-3 0-3 1Zm22 0c0-1 0 0 0 0s0-1 0 0l-5-1c0 4 0 8 2 11l3 4h6v-4h-4v-1l-1-1v-1l-1-4c0-1 0 0 0 0v-4l-2-2-3 1 1 5h4v-3Zm21-4a4 4 0 0 1 1 0 13 13 0 0 1 3 0h-1 4l2-1h1c1-1 2-3 1-4s-2-2-3-1l-3 2 2-1h-8l-2 1v2l1 1 2 1Zm-15-16v1l1-3-1 1 2-2h-1l2-1h-1l2-1 2-1v-2l-1-1-2-1-4 2-2 2-2 6 1 2 2 1 1-1 1-2Z"/></svg>