<svg xmlns="http://www.w3.org/2000/svg" viewBox="0 0 381.8 588.1"><path class="c" d="M68 148a298 298 0 0 1 9-53c2-7 6-13 11-19 6-5 13-9 21-11h26c9 0 18 1 27 4s16 9 23 15a182 182 0 0 1 41 50l3 6v5s-1 0 0 0l-3 2c0 2 2 3 3 3 4-1 6-4 5-8 0-4-3-8-5-12a172 172 0 0 0-56-61 131 131 0 0 0-57-10 49 49 0 0 0-41 28c-4 7-6 15-8 23a263 263 0 0 0-4 38c-1 4 4 4 5 0Z"/><path class="c" d="M60 146a48 48 0 0 0-29 9l-5 5c-1 2-2 4-1 6l5 4c16 7 34 8 51 8l27-2 29-2c19-1 38-2 57-5a162 162 0 0 0 55-21c3-2 0-6-3-4-14 9-30 14-46 18-17 4-35 6-53 7l-28 1-26 2c-16 1-33 2-49-3l-12-4-2-2 1-1 2-2a43 43 0 0 1 27-9c3 0 3-5 0-5Z"/><path class="c" d="M67 154c11 0 22 3 32 6s21 7 32 8h36c12 0 24-2 35-4 13-1 26-4 38-9 2 0 2-2 2-3l-3-5c-2-3-6 0-4 3l2 4 2-3c-22 7-45 10-68 11-12 1-24 2-36 1-11 0-21-4-32-7-12-4-23-7-36-7-3 0-3 5 0 5Z"/><path class="c" d="M127 91c-16-2-36 1-42 18-3 8-2 18 3 25 5 8 13 14 21 17 10 3 20 4 31 2l16-2 12-4c9-5 14-13 13-22s-6-17-13-22a112 112 0 0 0-26-13c-9-3-19-3-26 3l-5 4v4h4c4-6 12-8 20-8 8 1 17 6 24 11 7 3 14 8 16 15s1 16-5 21c-7 5-16 6-24 7-9 2-19 3-29 1-8-2-15-5-21-11s-8-13-8-21c1-7 6-13 12-17s14-4 21-3h5c1 0 2 0 3-2l-2-3Z"/><path class="c" d="m111 136 7-18 3-9 1-1v-1l-2 1 1 1a59 59 0 0 0 7 11c2 2 5 5 8 3l3-2 4-3 2-2 2-1h-1v1l1 1v9l-1 12c0 3 5 3 5 0l1-11v-10c-1-3-2-7-5-7l-5 2-4 4-4 3c-1 0 0 0 0 0v-1a47 47 0 0 1-8-9c-1-3-3-7-7-6l-3 4-2 5-8 23c-1 1 0 3 2 3 1 1 2 0 3-2Z"/></svg>