<svg xmlns="http://www.w3.org/2000/svg" viewBox="0 0 381.8 588.1"><path class="c" d="M69 147c-4-3-8-5-13-5-3 0-8 2-9 5-5 9 5 16 12 20s16 6 24 7l27 3c19 3 38 8 58 10s39 4 58 1l22-7c6-4 11-8 14-15l2-5-1-3c-6-2-13-2-19 0l-19 5a318 318 0 0 1-159-18c-3-1-4 4-1 5 25 8 50 15 76 18a262 262 0 0 0 99-4c7-1 14-4 20-1l-1-3c-3 13-17 19-28 22-18 4-36 3-54 1l-54-8-27-4-23-4-11-4c-3-1-7-4-9-7-2-2-3-5-1-8 3-2 6-1 9 0l5 3c3 2 5-3 3-4Z"/><path class="c" d="M72 145c6-20 19-38 36-50 19-14 42-21 66-24a244 244 0 0 1 77 1c24 4 48 12 66 27a91 91 0 0 1 21 26c5 8 10 18 18 24l7 4 1-4c-8-1-15 5-17 12s1 15 7 19 14 4 20 0c6-5 9-13 7-20-1-8-10-17-19-12-3 1-1 6 2 4 3-1 6 0 8 2l4 6c2 5 0 11-3 15-8 7-24 1-22-10 1-6 6-12 13-11 2 0 3-4 1-5-9-5-15-14-20-23l-8-13-12-13c-17-17-41-27-65-31a284 284 0 0 0-79-4c-25 2-49 9-70 22a106 106 0 0 0-44 56c-1 4 4 5 5 2Z"/><path class="c" d="M345 168a119 119 0 0 1-41-13l-10-4-11-3-19 1c-6 1-13 3-16 9-2 2 2 5 4 2 3-4 8-6 13-6l18-1c7 1 13 4 20 7l19 8 23 5c2 0 3-1 3-3 0-1-1-2-3-2Z"/></svg>