<svg xmlns="http://www.w3.org/2000/svg" viewBox="0 0 381.8 588.1"><path class="c" d="M57 132c-5-1-11-1-17 1s-6 8-4 13 8 7 12 9a191 191 0 0 0 81 22 435 435 0 0 0 72-3l36-3c11-1 22-2 33-5l15-7c4-2 8-7 6-12s-9-6-13-7a72 72 0 0 0-26 0l-2 3c1 2 2 2 3 2a67 67 0 0 1 31 2c1 1 3 1 3 3s-2 3-4 4c-3 3-8 5-13 6-9 4-20 5-30 6a598 598 0 0 1-67 5l-33 1a209 209 0 0 1-62-10c-10-3-19-7-28-12-4-1-9-4-10-8s5-5 8-6l8 1 3-2c0-1 0-3-2-3Z"/><path class="c" d="M56 137c6 0 11 1 16 3 1 1 3 0 3-2 1-1 0-2-1-3l-18-3-3 2c0 1 1 3 3 3Zm199 3c-6-2-13-2-18 1-1 0-2 2-1 3l4 1 1-1h2l1-1c1 0 1 0 0 0h4s1 0 0 0a12 12 0 0 1 3 1h1v1l4-1-1-4Z"/><path class="c" d="M76 137A732 732 0 0 1 95 15l1-3c4 0 4-5 0-5l-4 2-2 6a1203 1203 0 0 0-19 122c-1 1 1 3 2 3 2 0 2-2 3-3Z"/><path class="c" d="M97 9a176 176 0 0 1 141 30l-1 7v15l-2 29-4 58-1 7c0 2 2 3 3 3s2-1 2-3l4-60 2-29 1-15 1-8-1-7c-1-4-5-6-8-8a175 175 0 0 0-83-27 182 182 0 0 0-56 4c-3 0-2 5 2 4ZM46 143l-2-2-2 3c4 0 8 3 10 7l2-4-11-5v3c1-2 4-3 6-2l8 5v-3c-3 3-8 2-10-1l-2 3c6-2 13 0 16 6l2-4c-4 0-8-1-11-4l-1 4c8-2 18 1 24 7l1-4c-5 1-11-1-15-5l-1 5c9-2 19-1 28 3v-5c-4 2-8 2-12 0l1 4c12-13 19-30 21-47 0-3-4-4-5-2-5 11-7 23-7 35l2 2c2 0 2-1 3-2l6-59c0-3-5-4-5-1l-5 26-4 26-1 15c0 2 4 3 5 0l16-51 5-15-5-1-9 55c0 5-1 10 2 14 0 2 3 2 4 0 7-15 7-32 11-48l5-13-5-1-7 59c-1 2 1 3 2 3l3-2a679 679 0 0 0 13-63h-5c2 16-5 32-6 48-1 5 0 9 1 14 0 2 3 3 4 1 7-15 6-32 9-47l4-13-4-2a1101 1101 0 0 0-7 65l3-2a330 330 0 0 0 14-63l-5-1-5 62c-1 3 4 4 5 1l12-49 3-13-5-1-4 32-2 16c0 4-1 8 2 12 2 1 4 0 5-1l13-60-5-1a559 559 0 0 0-9 63c0 3 4 3 5 1 5-18 8-36 11-55h-5c-2 17-4 33-2 50 0 3 4 4 5 1 5-18 8-37 9-56 0-3-4-3-5 0-5 19-9 39-6 59 0 2 4 2 4 0l11-51h-5l-5 46c0 1 1 2 3 2l2-2c2-15 4-29 9-42l-5-1 4 63c1 3 5 3 5 0l4-52h-5l3 47c0 3 5 3 5 0 0-6-1-11-3-16 0-2-1-3-3-2l-2 3c2 5 3 9 3 15h5l-3-47c0-3-4-3-5 0l-4 52h5l-4-63c0-3-4-3-5-1-5 14-7 29-9 44h5l5-46c0-3-4-4-5-1l-10 51h4c-2-19 2-39 7-57l-5-1c-1 19-4 37-9 55h5c-2-16 0-33 2-50 0-3-5-4-5-1-3 18-6 37-11 54l5 1a545 545 0 0 1 7-65c-1-1-3 0-3 2l-13 59 4-1-1-4 1-7 2-15 3-30c1-3-4-3-5-1l-12 49-3 14h5l5-62c1-3-4-3-5 0-2 16-5 33-10 49l-4 14h5a1072 1072 0 0 1 7-64l-3 1c-7 15-6 32-9 47l-4 13 5 1c-2-8-1-16 0-23l5-25V84l-2-3-3 2a682 682 0 0 1-13 63h5l7-59c0-2-3-3-5-1-8 15-8 32-11 48l-4 13h4c-2-3-1-7-1-11l2-13 4-27 3-15-2-3-3 2-17 51-4 15 5 1 2-25 5-26 3-14-5-1-6 59h5c0-11 2-22 6-32l-5-1c-1 16-7 32-19 44-1 1-1 3 1 4 5 3 11 3 16 0 2-1 2-4 0-5-10-4-21-5-31-3-2 0-3 3-1 4 5 5 12 7 20 6 2 0 2-3 1-4-8-8-19-11-30-8-1 0-2 3-1 4 4 3 9 5 15 5 2 0 3-2 2-4-4-7-14-11-21-8-2 1-3 3-2 4 4 7 14 8 19 2v-3c-3-3-7-7-11-7-4-1-9 0-11 4v3c4 4 9 6 14 7 2 0 4-2 3-4-3-5-8-9-14-9-2 0-3 2-3 3 1 3 3 5 6 6s4-4 1-5Z"/><path class="c" d="M168 129c-3 15-25 7-33 4-9-3-18-5-28-6H95c-2 0-4 1-6-1l3 9c4-17 8-33 10-50 1-10-14-14-18-5s-6 16-7 25l18 2c1-9 3-17 6-25 1-5-2-10-6-12s-9 0-12 4c-3 5-4 10-4 15-1 5 3 9 8 9 5 1 9-2 10-6 5-14 9-28 11-42 1-9-14-13-18-5-5 11-8 23-10 35-1 11 16 12 19 2 4-13 8-27 10-41 2-12-14-17-18-5l-7 17c-1 5 2 10 6 11 4 2 9 0 12-4 4-5 6-12 7-19l1-10c0-2 3-9 2-10l-2 2h9a605 605 0 0 1 40 2c10 1 13-16 2-18l-12-4-7 18c11 3 22 8 32 14l-4-13c-11 22-20 46-24 71-1 5 2 10 7 11 5 2 10-1 12-6l13-61c2-12-15-17-19-5l-18 60 19 6 14-62c1-5-2-11-7-12-5-2-10 2-12 7a401 401 0 0 0-22 73c-2 8-3 16 3 23 5 4 15 3 16-4l11-84c1-5-1-10-6-12-5-1-10 2-12 7-8 29-17 58-20 88-1 10 17 13 19 2l12-69c2-12-15-16-19-5l-14 48c-3 15-8 33-3 48 4 10 18 8 19-3l6-62c1-5-1-10-7-11-4-2-11 1-11 6-4 24-7 49 1 72 2 8 16 10 18 0l10-53c3-12-15-17-18-5-6 20-9 40-11 60h19l-8-69c-1-11-14-13-18-3-8 20-12 40-13 61h19l3-64c0-11-16-12-19-2-6 19-10 39-12 59-1 11 17 13 19 3l6-56c1-11-16-13-18-3-5 19-9 37-12 56l19 2 5-61c1-11-17-13-19-3l-10 59c-2 12 15 18 18 5 8-28 14-56 19-85l-19-3v34h19c-1-17 0-35 3-52 1-4-1-8-5-11-3-2-8-1-11 2-8 9-11 20-8 32 1 8 13 9 17 2l17-28-17-7-10 58c-2 6 4 14 11 11 9-3 12-11 15-19l10-28-19-5-7 38c-3 12 14 17 18 5l10-33c1-1 3-5 2-7l-1 1-2 1h1c4 2 11 1 14-1 7-4 6-16-2-18l-14-2-5 18 15 3-5-3-1-5v1l1-5v1l3-4-1 1c-4 2-5 9-3 13 3 5 8 5 13 3 7-3 7-13 2-18-5-4-13-4-19-5-5-1-11 1-12 6s2 11 7 12l14 3-2-18c2-1 1 0 0 0h-10c-7 2-10 7-11 13-5 12-8 25-12 38l18 5 8-38c2-12-15-17-19-5l-7 20-3 10-1 3c0 1-2 2 0 1l12 12 10-58c2-10-12-17-17-8l-17 29 17 2c-1-5 0-10 3-14l-15-9c-4 19-5 38-4 57 0 12 17 12 19 0V46c0-4-3-8-8-9-5 0-10 2-11 7-4 29-10 57-18 85l19 5 9-59-18-2-5 61c-1 11 17 13 19 3 3-19 6-37 11-56l-18-2-6 51 18 2c2-18 6-36 11-54l-18-3-3 64c-1 5 4 10 9 10 6 0 9-5 10-10 1-19 5-38 12-56l-19-2 8 69c2 12 18 13 19 0 2-18 5-37 10-55l-18-5-10 53h18c-7-20-4-41-1-62l-18-5c-4 22-6 45-7 67l19-2c-5-13 0-29 3-42 4-14 8-29 14-44l-19-5-12 69 19 3c3-28 11-56 19-83l-18-5-11 84 16-5c1 2 0 2 0 0l1-4a379 379 0 0 1 23-73l-19-5-14 61c-2 12 15 17 19 6l18-61-19-5-13 61 19 5c4-23 11-46 22-66 2-5 1-11-4-13-11-7-23-13-36-17-10-3-17 13-7 18l16 5 3-19-30-2c-9 0-21-2-29 3-7 5-8 15-9 23-1 7-1 15-6 21l18 7 6-17-18-5-10 41 18 3c1-9 4-17 7-25l-17-5c-2 12-6 25-10 37l19 2 2-5-18-8c-3 10-5 21-6 31s17 13 19 3l6-21-18-4a305 305 0 0 1-7 36l-3 11c0 9 10 13 17 14h22c15 2 29 12 45 10 13 0 26-8 29-22 1-5-1-10-7-12-4-1-10 2-11 7Z"/><path class="c" d="M90 150c-4-6-11-9-18-7s-10 14-3 17l5 2 7-17-30-12-5 18 57 8v-18c-6 3-12 4-19 5-11 0-12 15-2 18 33 12 68 10 102 3 5-1 8-7 7-11-2-6-7-8-12-7-20 3-41-4-59-10l-3 18 29 2-2-18c-8 2-15 2-23 0v18l26-10c5-2 9-7 7-12-1-4-7-8-12-7l-26 11c-8 3-10 16 0 18 11 3 22 3 33 0 10-3 8-18-3-19l-29-2c-11 0-12 16-3 19 23 7 46 14 70 10l-5-18c-31 6-63 8-92-3l-3 19c9-1 17-2 24-6 4-1 7-4 7-9 0-4-2-8-7-9l-57-8c-12-2-16 14-5 18l30 12c10 4 17-13 8-17l-5-2-2 17-4-1c7 10 24 0 17-10Z"/><path class="c" d="M184 88c-4-6-10-12-18-10-7 1-11 6-12 13-3 15-1 31 2 45 2 11 19 8 19-3l-1-50c0-10-16-13-18-3-3 15-4 30-2 44 2 11 5 33 22 28 7-2 9-8 10-15 2-7 3-15 3-22l3-45c0-5-5-9-10-9s-9 4-9 9c-2 22-4 44 0 65 1 5 6 8 10 7 5-1 8-4 8-9 3-26 4-52 1-79-1-11-14-12-18-2-10 24-17 50-19 76-1 11 17 13 19 3 3-14 3-28 4-42 1-13 3-26 8-37l-17-3c3 17 0 34 0 51 0 14 0 39 19 41 5 0 9-5 9-10 3-23 5-46 5-69h-19c1 14-2 28-3 42s0 29 6 42c3 7 16 6 17-2l8-64h-19c1 11-1 22-2 34s0 23 5 34c2 4 7 6 11 5s7-5 7-9l5-61-19 3c2 10-1 20-1 30-1 10 0 21 5 30 2 4 7 6 11 5s7-5 7-9l4-30-19 2c2 11 3 21 2 32 0 5 5 9 10 9s9-4 9-9l2-25h-19l2 23c1 12 19 12 19 0l1-10-18-3-1 10h19c1-24 5-47 7-71l2-17c0-6 1-12-2-17s-7-7-12-9l-18-5c-10-3-17 13-7 17l9 4 5-18-5-2-8 18 6 2c10 4 17-13 7-17l-9-4-7 17 9 3c10 4 17-12 8-17l-12-7-8 18 9 2c4 1 9-1 11-6 2-3 0-10-4-11-16-7-33-13-50-17-8-2-15 7-11 14l21 37c4 7 14 5 17-3s4-15 4-23l-19 2 6 37c1 8 13 10 17 3 5-10 8-20 11-30l-19-3-3 31c-1 9-1 18 5 26 5 6 14 1 16-5 6-16 9-32 11-49 0-5-5-9-10-9-6 0-9 4-9 9-3 18-5 37 0 55 3 11 18 8 19-2 1-14 3-27 7-40h-18c2 7 2 14 0 21l19 2V56c0-11-17-13-19-3l-9 39c-2 12-4 24-8 36-3 8-10 10-18 13-10 3-18 7-24 16-2 2-2 7 0 9 6 9 16 10 26 9a772 772 0 0 0 105-15c10-2 9-16 0-19-30-8-61-9-92-3-11 1-8 18 2 18l39 2-2-19c-14 3-28 5-41 5v19l27-2c5 0 9-4 9-9s-4-10-9-10l-27 2c-13 1-13 20 0 19 15 0 31-2 46-5 11-2 8-18-3-19l-39-2 3 19c27-5 56-4 82 4v-19a800 800 0 0 1-89 14l-15 1-4 1c-2-1-3-2-1 0v9c4-6 14-7 20-10 10-4 18-10 22-21 5-11 7-24 9-36l9-41-18-2v21c0 11 16 14 18 3 3-10 3-21 0-31-2-9-16-9-18 0-5 15-7 30-8 45l19-3c-5-16-3-33 0-50h-19c-2 15-5 30-10 44l16-4-1-1 1-5 1-12 2-25c1-10-16-13-19-2-2 9-4 17-8 25l17 2-5-37c-2-10-19-7-19 3l-3 18 17-2-20-36-11 14c16 3 31 8 46 14l7-17-9-3c-10-2-17 12-7 18l12 6 7-17-9-3c-10-3-17 13-7 17l9 4 7-17-6-3c-4-1-9 2-11 6s0 9 4 12c5 3 9 4 15 4 9 1 13-13 5-17l-10-4-7 17 15 5 5 1c-2-3-2-3-2-1a243 243 0 0 1-3 35l-6 61c0 13 19 12 19 0l1-10c0-11-17-13-19-3l-2 16h19l-2-23c0-12-17-12-19 0l-2 25h19c1-12 0-25-3-37-1-4-6-7-10-6-5 0-8 4-8 9l-4 30 18-5c-4-8-4-17-3-26 1-10 2-20 0-30 0-5-6-8-10-7-5 1-8 5-8 9l-5 61 18-5c-4-9-3-19-3-28 1-11 3-21 2-31 0-13-17-12-19 0l-7 59 17-2c-5-12-4-24-2-36 1-13 3-26 2-39-1-12-19-12-19 0 0 23-2 46-4 69l9-9c6 0 3 3 3 0l-2-5-1-9V87c1-14 2-29-1-43-1-8-14-9-17-2-13 27-8 56-14 84l18 2c2-24 9-48 18-71l-19-2c3 26 3 52 0 78l18-3c-3-19-1-40 1-60h-19l-2 36-2 17c0 3 0 12-2 13l4-2c3 2 5 2 4 0v-1l-2-8a113 113 0 0 1 1-40l-19-2 1 51 18-3a124 124 0 0 1-2-32v-4c0-2 1 1-1 1h-5 1l1 2c7 10 23 0 16-10Z"/></svg>