<?xml version="1.0" encoding="UTF-8"?><svg id="a" xmlns="http://www.w3.org/2000/svg" viewBox="0 0 381.83 588.15"><defs><style>.c{fill:#231f20;}</style></defs><g id="b"><path class="c" d="M70.77,177.32c-2.23,7.37-4.32,15.51-2.06,23.15,1.91,6.45,6.76,11.62,12.78,14.49,12.88,6.14,29.6,1.11,39.14-8.92,4.73-4.97,7.76-11.69,7.26-18.64-.2-2.72-.78-6.34-3.37-7.88-2.83-1.68-7.5-1.37-10.66-1.77l-28.75-3.61c-6.03-.76-15.29-2.83-17.06,5.27-.82,3.76,4.96,5.37,5.79,1.6,.4-1.82,5.23-1.62,6.48-1.47s2.56,.32,3.83,.48l8.62,1.08,17.25,2.16c2.86,.36,5.79,.57,8.62,1.08,2.39,.43,2.99,.54,3.23,3.04,.13,1.32,.08,2.76-.13,4.06-.91,5.57-4.53,10.21-8.97,13.51-8.4,6.24-20.69,9.34-30.2,3.78-11.33-6.62-9.27-19.13-6.03-29.83,1.12-3.7-4.67-5.29-5.79-1.6h0Z"/><path class="c" d="M144.94,187.81c-8.23,11-4.18,25.89,7.48,32.49,11.73,6.64,27.21,4.57,37.05-4.52,5.07-4.68,8.59-11.13,9.82-17.92,.84-4.65,1.34-11.9-4.21-13.85-3.34-1.18-7.11,.98-10.53,.56-4.36-.53-8.69-1.56-13.05-2.17-9.1-1.27-18.25-2.01-27.44-2.27-1.76-.05-2.82,1.43-3,3-.8,6.82-2.09,13.52-3.8,20.17-.96,3.74,4.82,5.34,5.79,1.6,1.85-7.17,3.15-14.41,4.02-21.77l-3,3c12.53,.35,24.81,1.82,37.15,3.9,2.31,.39,4.55,.84,6.9,.62,.97-.09,2.06-.55,3-.57,2.53-.04,2.69,.87,2.67,3.15-.06,5.53-2.44,11.26-5.91,15.51-6.74,8.26-18.36,11.53-28.45,8.12-11.31-3.82-16.85-15.95-9.3-26.04,2.31-3.09-2.89-6.09-5.18-3.03h0Z"/><path class="c" d="M138.36,199.26c.18,4.4,1.32,8.34,3.63,12.1l4.71-3.64c-1.56-1.62-2.36-2.89-3.28-4.87l-4.71,3.64,11.41,13.14,4.24-4.24c-5.09-4.06-8.52-9.73-9.23-16.28-.34-3.15,.15-6.1,.88-9.15,.49-2.05,.69-3.87-.56-5.68-5.46-7.85-18.91-4.63-24.51,.93-2.74,2.72,1.5,6.97,4.24,4.24,3.18-3.16,8.39-4.89,12.75-3.05,3.29,1.38,1.79,3.32,1.38,6.18-.28,1.93-.36,3.87-.22,5.82,.6,8.32,4.51,16.03,11.04,21.24,2.99,2.38,6.82-1.27,4.24-4.24l-11.41-13.14c-2.38-2.75-6.05,.75-4.71,3.64,1.08,2.33,2.45,4.24,4.22,6.08,2.35,2.44,6.51-.71,4.71-3.64s-2.67-5.69-2.81-9.07c-.15-3.85-6.16-3.87-6,0h0Z"/><path class="c" d="M66.05,176.76l.95,1.92c1.29,2.61,5.84,1.43,5.59-1.51-.29-3.44-1.87-6.2-4.82-8.06-2.57-1.62-5.6,1.57-4.1,4.1l2.83,4.8c1.7,2.88,6.48,1,5.48-2.31-1.21-4.02-2.77-7.91-4.62-11.67-1.48-3-6.77-.86-5.48,2.31l3.33,8.23c.61,1.51,1.99,2.54,3.69,2.1,1.43-.38,2.7-2.19,2.1-3.69l-3.33-8.23-5.48,2.31c1.63,3.31,2.95,6.71,4.02,10.24l5.48-2.31-2.83-4.8-4.1,4.1c1.05,.66,1.74,1.62,1.85,2.88l5.59-1.51-.95-1.92c-1.71-3.46-6.88-.43-5.18,3.03h0Z"/><path class="c" d="M200.65,189.85c6.38-4.48,16.15-3.97,23.64-4.85l24.79-2.9c3.01-.35,4.46-5.34,.8-5.89l-1.93-.29c-3.78-.57-5.41,5.21-1.6,5.79l1.93,.29,.8-5.89-28.61,3.35c-7.52,.88-16.43,.72-22.86,5.22-3.14,2.2-.14,7.41,3.03,5.18h0Z"/><path class="c" d="M78.24,192.1l-.36-.54c-.79-1.17-2.01-1.67-3.39-1.38-5.96,1.25-2.02,11.15-1.39,14.74,.58,3.27,4.8,2.39,5.79,0,2.09-5.08,1.54-10.37-1.32-15.03-1.69-2.76-5.21-1.28-5.59,1.51-.86,6.41,1.43,12.43,6.16,16.81,1.89,1.75,5.1,.54,5.12-2.12,.05-5.48-5-10.86-3.86-16.1h-5.79c1.27,6.8,3.87,13.06,7.76,18.77,1.02,1.49,3.35,2.15,4.71,.61,2.14-2.44,1.57-4.64,.86-7.63-1.2-5.02-2.58-10-3.87-15l-5.79,1.6c1.87,7.18,4.83,13.86,8.91,20.06,1.82,2.76,6.44,1.08,5.48-2.31l-5.26-18.67-5.48,2.31c3.26,7.32,6.61,14.52,11.51,20.91,1.94,2.54,6.43,1.23,5.48-2.31l-5.34-20.04-5.48,2.31,9.55,14.29c2.18,3.26,6.75,.46,5.18-3.03l-6.83-15.14-5.18,3.03c2.68,4.99,6.17,9.23,10.59,12.79,2.2,1.77,5.88,.2,5.01-2.92-1.12-4.04-2.99-7.47-5.62-10.72l-4.24,4.24c2.97,2.47,5.16,5.19,6.9,8.64l4.71-3.64c-2.87-3.34-5.42-6.83-7.76-10.56l-4.1,4.1c4.76,2.22,9.35,4.71,13.81,7.48,3.12,1.94,5.59-2.21,3.64-4.71-1.8-2.3-3.96-3.59-6.83-4.14-3.75-.72-5.37,4.76-1.6,5.79,5.02,1.37,9.84,1.56,14.97,.81,3.26-.48,2.4-4.86,0-5.79-3.72-1.43-7.48-2.58-11.37-3.47v5.79l9.89-1.55c2.87-.45,2.86-5.32,0-5.79l-7.95-1.3-.8,5.89,9.01-.7c3.18-.25,4.3-5.11,.8-5.89l-5.44-1.22c-2.78-.62-5.23,2.88-2.92,5.01,2.43,2.25,4.11,4.67,5.2,7.8s6.03,2.77,5.89-.8c-.19-1.34-.03-2.66,.46-3.94l-4.41,1.79,.56,.37-1.49-2.59c.2,2.76-5.11,7.32-7.16,8.99-3.32,2.69-7.07,4.17-11.38,4.05l2.12,5.12c3.44-4.06,7.92-5.84,13.19-5.31l-2.12-5.12c-3.33,3.37-7.15,5-11.89,5.05-2.24,.02-3.79,2.55-2.59,4.51,1.63,2.68,4.09,4.12,7.25,3.88l-.8-5.89c-6.24,1.72-14.39,3.98-19.18-1.89s-2.94-14.45-1.47-21.25c.63-2.94-2.76-4.98-5.01-2.92s-3.55,4.27-4.37,7.17h5.79c-.56-1.98-.69-3.62-.27-5.68l-4.41,1.79c9.88,4.94,20.38,7.72,31.42,8.29v-6c-5.23,0-10.18-.9-15-2.96l-1.51,5.59c7.12-.8,14.01-.39,20.97,1.34l.8-5.89c-7.78,.37-15.3-.86-22.46-3.97l-1.51,5.59c7.25,.55,14.42,1.2,21.49,2.99l.8-5.89c-7.28-.05-14.31-1.08-21.3-3.09l-1.6,5.79,11.14,1.75,5.57,.87,1.86,.29c2.26,.98,2.86,.06,1.81-2.77l2.92-.77-.52-.08c-3.78-.58-5.41,5.2-1.6,5.79s6.63-3.95,3.16-6.64c-2.49-1.93-6.77-1.72-9.74-2.18l-13-2.04c-3.73-.58-5.4,4.69-1.6,5.79,7.49,2.15,15.1,3.25,22.89,3.3,3.35,.02,4.11-5.06,.8-5.89-7.58-1.91-15.31-2.61-23.09-3.2-2.86-.22-4.24,4.41-1.51,5.59,8.16,3.54,16.59,5.21,25.49,4.79,3.27-.16,4.21-5.04,.8-5.89-7.44-1.86-14.93-2.41-22.56-1.56-2.54,.28-4.59,4.28-1.51,5.59,5.82,2.49,11.69,3.79,18.03,3.78,3.88,0,3.84-5.8,0-6-9.96-.51-19.47-3.01-28.39-7.47-1.62-.81-3.99-.22-4.41,1.79-.64,3.1-.6,5.81,.27,8.87,.81,2.84,4.98,2.86,5.79,0,.55-1.97,1.34-3.17,2.82-4.52l-5.01-2.92c-1.97,9.14-3.65,19.76,3.2,27.37,6.49,7.22,16.52,5.44,24.84,3.15,3.16-.87,2.66-6.15-.8-5.89l-2.07-.91-2.59,4.51c6.26-.06,11.73-2.35,16.13-6.81,1.96-1.98,.37-4.87-2.12-5.12-6.73-.67-13.06,1.92-17.43,7.07-1.66,1.96-.6,5.05,2.12,5.12,7.23,.2,13.52-3.25,18.39-8.44,2.84-3.03,9.53-10.02,4.1-13.55-1.65-1.07-3.9,0-4.41,1.79-.54,1.88-.75,3.56-.68,5.53l5.89-.8c-1.43-4.09-3.56-7.5-6.74-10.45l-2.92,5.01,5.44,1.22,.8-5.89-9.01,.7c-3.12,.24-4.36,5.31-.8,5.89l7.95,1.3v-5.79l-9.89,1.55c-2.97,.46-2.75,5.16,0,5.79,3.89,.89,7.64,2.03,11.37,3.47v-5.79c-4.02,.59-7.87,.26-11.78-.81l-1.6,5.79c1.81,.35,3.05,1.14,4.18,2.59l3.64-4.71c-4.46-2.77-9.05-5.26-13.81-7.48-2.53-1.18-5.83,1.36-4.1,4.1,2.6,4.16,5.5,8.06,8.7,11.78,2.32,2.7,6.18-.74,4.71-3.64-1.95-3.85-4.52-7.1-7.84-9.85-3-2.49-6.67,1.24-4.24,4.24,1.98,2.44,3.24,5.06,4.07,8.07l5.01-2.92c-4.04-3.24-7.2-7.01-9.65-11.57-1.86-3.46-6.74-.42-5.18,3.03l6.83,15.14,5.18-3.03-9.55-14.29c-1.84-2.76-6.39-1.09-5.48,2.31l5.34,20.04,5.48-2.31c-4.9-6.39-8.25-13.6-11.51-20.91-1.4-3.15-6.39-.89-5.48,2.31l5.26,18.67,5.48-2.31c-3.82-5.79-6.56-11.91-8.31-18.63-.97-3.73-6.75-2.15-5.79,1.6l2.42,9.38c.31,1.21,2.3,7.24,2.14,7.42l4.71,.61c-3.63-5.33-5.97-11-7.16-17.34-.54-2.91-5.17-2.82-5.79,0-1.46,6.71,3.7,11.28,3.65,17.69l5.12-2.12c-3.7-3.43-5.07-7.6-4.4-12.57l-5.59,1.51c2.08,3.39,2.22,6.76,.72,10.4h5.79c-.37-2.11-2.22-7.19-1.45-9.3l-2.1,2.1,.75-.16-3.39-1.38,.36,.54c2.15,3.18,7.35,.19,5.18-3.03h0Z"/><path class="c" d="M143.99,198.47c-.83,.48-1.73,.66-2.69,.54l3,3c-.05-1.83-.23-2.58-1.19-4.14-1.25-2.05-4.99-1.93-5.48,.72-2.63,14.14,6.84,22.16,19.63,25.47,4.11,1.07,10.06,1,10.9-4.39,.44-2.87-1.15-5.1-2.55-7.42-2.28-3.79-3.3-7.58-3.07-12.04h-6l-.58,12.75,5.59-1.51c-3.94-5.75-6.6-11.91-8.08-18.73-.71-3.25-6.26-2.6-5.89,.8,.7,6.46,1.72,12.84,3.13,19.18l5.48-2.31-7.92-15.2c-1.35-2.59-5.77-1.44-5.59,1.51l1.05,17.69c.15,2.52,3.21,4.05,5.12,2.12,2.45-2.47,2.52-5.35,2.07-8.64-.75-5.45-1.68-10.88-2.51-16.31-.51-3.33-6.09-2.56-5.89,.8,.45,7.82,2.25,15.14,5.4,22.31,1,2.29,4.01,1.58,5.18,0,1.83-2.47,1.92-5.13,1.26-8.07-1.02-4.58-2.54-8.54-2.52-13.35l-5.89,.8c1.85,8.02,4.68,15.64,8.43,22.96,1.6,3.12,6.22,.9,5.48-2.31l-4.46-19.37-5.79,1.6c1.78,6.75,4.3,13.17,7.53,19.36,1.49,2.86,5.34,1.22,5.59-1.51,.54-5.84,.15-11.53-1.05-17.27l-5.79,1.6c1.61,5.57,3.93,10.76,7.06,15.65,1.8,2.81,6.41,1.06,5.48-2.31l-6.07-22.18-5.01,2.92c2.9,3,5.55,6.14,7.97,9.54l4.71-3.64c-4.11-3.91-8.36-7.65-12.76-11.24l-3.64,4.71,11.73,5.65,2.31-5.48c-6.05-1.44-11.78-3.49-17.34-6.28l-1.51,5.59c4.94-.42,9.63-.02,14.41,1.3l1.6-5.79c-5.95-1.35-11.74-3.1-17.45-5.27l-.8,5.89c8.41,.22,16.75,1.17,24.95,3.07,7.1,1.64,14.16,5.01,21.55,4.72,2.03-.08,3.31-1.85,2.89-3.8-1.17-5.53-4.24-10.74-10.4-10.96l.8,5.89,.37,.26,2.92-5.01c-7.33-2.33-14.91-2.93-22.56-2.98-3.94-.02-7.88,.06-11.82,.11-3.36,.04-7.71-.59-10.9,.47-1.25,.42-2.22,1.53-2.2,2.89,.03,3.61,4.58,5.85,7.03,7.85,3.82,3.11,7.53,6.81,11.7,9.46,6.67,4.24,11.28-2.13,12.17-8.28l-5.01,1.32,5.47,5.38,2.92-5.01c-2.31-.56-4.36-1.34-6.43-2.51l-1.51,5.59c4.96-.21,9.64,.49,14.24,2.39,3.22,1.33,5.68,2.77,9.22,1.81l-3.39-4.41c-3.45,5.32-7.07,10.87-12.25,14.68-2.06,1.51-7.48,5.06-9.3,2.33-2.08-3.14,1.12-8.28,3.52-10.01l-3.64-.47c2.13,2.08,3.13,4.2,3.73,7.09,.56,2.69-.4-1.2-.48-1.65-.28-1.63-.37-2.75,.23-4.37l-3.69,2.1c1.91,.8,2.76,2.19,2.57,4.17l5.59-1.51c-.84-1.95-.44-3.53,1.2-4.76l-4.71-.61c1.74,2.51,3.26,5.08,4.62,7.81s5.58,1.33,5.59-1.51c0-2.56,.42-4.8,1.27-7.2l-5.48,.72,2.34,3.75c2.04,3.27,7.22,.27,5.18-3.03-1.45-2.35-2.29-4.58-2.54-7.33l-5.89,.8,2.28,7.55c.73,2.41,4.19,3.02,5.48,.72l2.61-4.66-5.59-1.51-.21,.34c-1.99,3.32,3.2,6.34,5.18,3.03,.71-1.18,.89-2.01,1.03-3.37,.32-3.04-4.22-3.97-5.59-1.51l-2.61,4.66,5.48,.72-2.28-7.55c-.94-3.1-6.21-2.7-5.89,.8,.35,3.8,1.35,7.1,3.36,10.36l5.18-3.03-2.34-3.75c-1.42-2.28-4.63-1.7-5.48,.72-1.02,2.9-1.48,5.72-1.48,8.8l5.59-1.51c-1.36-2.74-2.88-5.31-4.62-7.81-1.13-1.62-3.21-1.99-4.71-.61-3.58,3.29-4.14,7.72-2.14,12.03,1.3,2.81,5.57,1.28,5.59-1.51,.04-4.82-2.57-8.22-6.97-9.96-1.6-.63-3.18,.71-3.69,2.1-1.84,5.01,1.42,17.36,8.99,14.24s1.09-14.52-2.44-17.96c-.88-.86-2.56-1.24-3.64-.47-4.13,2.97-6.87,7.35-6.91,12.57-.04,4.48,2.04,9.73,7.17,9.89,11.74,.39,20.47-12.75,25.97-21.25,1.45-2.24-.95-5.07-3.39-4.41s-8.96-3-11.48-3.57c-3.43-.76-6.87-1-10.38-.85-2.88,.12-4.21,4.08-1.51,5.59,2.52,1.41,5.05,2.43,7.87,3.11s5.11-2.86,2.92-5.01l-5.47-5.38c-1.45-1.43-4.68-1-5.01,1.32-.17,1.14-.46,4.52-1.67,5.07-1.69,.77-6.07-3.92-7.19-4.83l-5.69-4.64-2.85-2.32-1.42-1.16c-.88-.9-.97-.75-.29,.45l-2.2,2.89c3.2-1.07,7.81-.24,11.18-.28s6.63-.1,9.95-.08c7.14,.04,14.13,.59,20.97,2.76,2.97,.94,4.88-2.92,2.92-5.01-1.85-1.97-3.61-2.35-6.21-1.81-3.41,.72-2.48,5.78,.8,5.89s4.1,4.11,4.62,6.55l2.89-3.8c-7.84,.31-15.93-3.76-23.58-5.28s-15.22-2.3-22.92-2.5c-3.58-.09-3.8,4.75-.8,5.89,5.7,2.17,11.5,3.92,17.45,5.27,3.75,.85,5.33-4.75,1.6-5.79-5.27-1.46-10.55-1.98-16-1.52-2.71,.23-4.41,4.14-1.51,5.59,6.01,3.01,12.23,5.32,18.78,6.88,3.16,.75,5.5-3.95,2.31-5.48l-11.73-5.65c-2.84-1.37-6.46,2.41-3.64,4.71,4.4,3.59,8.64,7.33,12.76,11.24,2.36,2.25,6.76-.75,4.71-3.64-2.71-3.81-5.66-7.39-8.91-10.76-2.1-2.17-5.8,.06-5.01,2.92l6.07,22.18,5.48-2.31c-2.85-4.46-4.99-9.13-6.45-14.22-1.08-3.73-6.57-2.17-5.79,1.6,1.1,5.24,1.33,10.36,.84,15.68l5.59-1.51c-3-5.74-5.28-11.67-6.93-17.92-.99-3.74-6.65-2.16-5.79,1.6l4.46,19.37,5.48-2.31c-3.52-6.87-6.09-14.01-7.83-21.52-.77-3.33-5.88-2.55-5.89,.8-.01,2.98,.23,5.92,.93,8.83s3.14,6.88,1.14,9.57h5.18c-2.7-6.15-4.19-12.58-4.58-19.29l-5.89,.8,1.4,9.06c.35,2.27,2.36,8.27,.59,10.06l5.12,2.12-1.05-17.69-5.59,1.51,7.92,15.2c1.63,3.12,6.2,.9,5.48-2.31-1.29-5.81-2.28-11.66-2.92-17.58l-5.89,.8c1.58,7.28,4.48,14.01,8.69,20.16,1.68,2.45,5.45,1.55,5.59-1.51l.58-12.75c.18-3.86-5.81-3.85-6,0-.17,3.47,.21,6.87,1.41,10.14,.84,2.28,5.98,9.43,.2,7.71-8.94-2.65-16.71-7.21-14.73-17.87l-5.48,.72,.37,1.11c.05,1.64,1.34,2.97,3,3,1.56,.03,2.84-.17,4.29-.76,3.53-1.43,1.99-7.24-1.6-5.79h0Z"/><path class="c" d="M91.14,179.52c-1.43-1.7-2.95-2.88-4.93-3.85l-2.31,5.48c2.2,.88,4.17,1.98,6.14,3.28l1.51-5.59c-3.7-.12-7.08-.81-10.56-2.05l-1.6,5.79,41.65,13.31-1.32-5.01c-5.96,6.42-12.85,11.35-20.82,14.97-2.86,1.3-1.24,5.52,1.51,5.59,5.32,.13,10.17-1.23,14.63-4.13,2.72-1.77,1.07-6.6-2.31-5.48l-2.93,.97,3.39,4.41c2.66-4.05,5.35-8.09,7.99-12.16,1.72-2.64,3.77-5.46,3.27-8.8-.69-4.58-6.44-6.99-9.74-3.39-2.61,2.84,1.62,7.09,4.24,4.24-2.1,2.29-3.71,6.08-5.45,8.72l-5.5,8.36c-1.41,2.15,.94,5.22,3.39,4.41l2.93-.97-2.31-5.48c-3.64,2.37-7.25,3.42-11.6,3.31l1.51,5.59c8.38-3.8,15.77-9.16,22.03-15.9,1.57-1.69,.86-4.32-1.32-5.01l-41.65-13.31c-3.71-1.19-5.19,4.5-1.6,5.79,3.96,1.42,7.95,2.14,12.16,2.27,3.12,.1,3.88-4.03,1.51-5.59s-4.9-2.81-7.58-3.88c-3.14-1.25-5.35,3.99-2.31,5.48,1.54,.76,2.61,1.6,3.72,2.91,2.49,2.96,6.72-1.31,4.24-4.24h0Z"/><path class="c" d="M176.64,193.9l-6.05-4.51-2.31,5.48c4.1,1.51,7.29,3.9,10.09,7.23l3.64-4.71c-5.61-4.26-11.46-8.15-17.56-11.67-2.87-1.66-6.27,2.41-3.64,4.71,5.18,4.53,10.23,9.31,15.63,13.59,4.01,3.18,8.75,5.62,13.84,3.59l-3.69-3.69c-.84,6.16-11.41,5.72-15.94,7.97-3.46,1.72-.42,6.9,3.03,5.18,6.56-3.26,17.38-1.93,18.69-11.56,.27-1.96-1.29-4.65-3.69-3.69-5.03,2.01-9.63-3.41-13.04-6.39l-10.58-9.25-3.64,4.71c6.1,3.52,11.95,7.41,17.56,11.67,2.88,2.19,5.67-2.3,3.64-4.71-3.48-4.13-7.68-6.91-12.74-8.77-3.45-1.27-4.81,3.62-2.31,5.48l6.05,4.51c3.1,2.31,6.09-2.9,3.03-5.18h0Z"/><path class="c" d="M121.36,234.24c2.59,5.66,6.24,11.75,13.17,12.2,3.31,.22,6.12-1.57,8.49-3.68s5.02-4.9,3.86-8.28c-.44-1.28-1.71-2.12-3.08-1.75-1.24,.34-2.19,1.79-1.75,3.08,.12,.34,.2,.13,.1,.42-.14,.41-.45,.8-.73,1.12-.73,.85-1.61,1.61-2.46,2.33-1.48,1.25-3.18,2.1-5.06,1.66-4.48-1.06-6.5-5.85-8.23-9.62-.56-1.23-2.34-1.53-3.42-.9-1.26,.74-1.46,2.19-.9,3.42h0Z"/></g></svg>