<?xml version="1.0" encoding="UTF-8"?><svg id="a" xmlns="http://www.w3.org/2000/svg" viewBox="0 0 381.83 588.15"><defs><style>.c{fill:#231f20;}</style></defs><g id="b"><path class="c" d="M84.7,176.63c-1.06,6.51-1.97,13.04-2.7,19.59-.18,1.62-.35,3.25-.51,4.87-.14,1.47-.41,3-.29,4.48,.28,3.37,2.57,5.13,5.52,6.27,11.22,4.35,23.15,7.16,35.05,8.8s24.58,2.11,36.87,1.1c6.02-.49,12.09-1.21,18-2.5,5.51-1.2,11.1-3.1,15.69-6.47,1.31-.96,2.55-2,3.38-3.43,.9-1.53,1.16-3.25,1.33-4.99,.34-3.45,.43-6.94,.37-10.4-.13-7.2-1.06-14.4-2.71-21.41-.32-1.35-1.8-2.05-3.08-1.75-28.75,6.91-58.91,8.14-88.11,3.45-3.99-.64-7.93-1.57-11.92-2.23-3.18-.53-7.7,.96-6.68,5.03,.78,3.12,5.6,1.8,4.82-1.33,.1,.4-.47,1.39-.53,1.32-.02-.02,.31-.11,.38-.13,.29-.06,.58-.08,1.06-.02-.57-.07,.94,.22,.81,.19,.31,.07,.62,.13,.93,.19,1.08,.22,2.17,.44,3.26,.65,3.42,.65,6.85,1.22,10.29,1.72,7.03,1.01,14.1,1.72,21.19,2.08,14.13,.73,28.32,.14,42.34-1.74,7.9-1.06,15.74-2.5,23.49-4.37l-3.08-1.75c1.33,5.66,2.16,11.41,2.44,17.22,.14,3.01,.15,6.03,.01,9.04-.06,1.4-.14,2.81-.28,4.21-.09,.95-.25,1.97-.82,2.76-1.41,1.96-4.22,3.24-6.34,4.24-2.25,1.07-4.64,1.83-7.05,2.46-5.29,1.38-10.77,2.11-16.21,2.65-22.51,2.25-45.4-.18-66.92-7.14-1.53-.5-3.05-1.01-4.57-1.55-1.1-.39-2.6-.71-3.5-1.51-.83-.74-.41-2.26-.32-3.23,.15-1.63,.31-3.25,.49-4.88,.72-6.76,1.64-13.5,2.73-20.21,.22-1.33-.35-2.69-1.75-3.08-1.19-.33-2.86,.41-3.08,1.75h0Z"/><path class="c" d="M104.57,198.95c3.22,0,3.22-5,0-5s-3.22,5,0,5h0Z"/><path class="c" d="M101.28,189.23l11.91,5.15c1.2,.52,2.74,.39,3.42-.9,.57-1.08,.38-2.87-.9-3.42l-11.91-5.15c-1.2-.52-2.74-.39-3.42,.9-.57,1.08-.38,2.87,.9,3.42h0Z"/><path class="c" d="M168.8,202.48c3.22,0,3.22-5,0-5s-3.22,5,0,5h0Z"/><path class="c" d="M167.49,189.23l-8.53,3.38c-.63,.25-1.14,.55-1.49,1.15-.31,.54-.45,1.33-.25,1.93s.57,1.19,1.15,1.49,1.31,.5,1.93,.25l8.53-3.38c.63-.25,1.14-.55,1.49-1.15,.31-.54,.45-1.33,.25-1.93s-.57-1.19-1.15-1.49-1.31-.5-1.93-.25h0Z"/><path class="c" d="M124.77,117.24c-18.85,.26-36.96,9.26-49.58,23.1-13.47,14.78-20.39,34.63-21.19,54.45-.74,18.17,3.87,36.53,13.21,52.15s23.73,28.27,41.17,34.56c10.12,3.65,20.9,5.29,31.61,5.9s22.24,.09,33.26-1.47,21.75-4.17,32.18-7.85c8.89-3.13,17.59-7.01,25.47-12.23,7.64-5.06,14.54-11.35,19.51-19.1,5.5-8.56,8.03-18.56,8.51-28.65s-1.04-20.82-3.19-30.94c-1.94-9.13-4.63-18.13-8.66-26.56-3.92-8.22-9.3-15.91-16.35-21.75-7.99-6.62-17.62-10.64-27.45-13.69-21.27-6.59-43.85-11.24-66.2-10.58-5.53,.17-11.05,.7-16.51,1.57-1.33,.21-2.08,1.88-1.75,3.08,.39,1.42,1.74,1.96,3.08,1.75,21.47-3.42,43.42-.46,64.36,4.7,9.82,2.42,19.87,5,29.04,9.34,8.26,3.91,15.45,9.48,20.85,16.89,5.16,7.09,8.75,15.18,11.37,23.51,2.77,8.8,4.71,17.98,5.77,27.14,1.13,9.76,1.18,19.83-1.59,29.34-2.51,8.6-7.43,16.1-13.92,22.23-13.48,12.75-32.07,19.61-49.8,23.91-10.31,2.5-20.84,3.99-31.44,4.46-10.38,.45-20.91,.07-31.15-1.73-9.69-1.7-19.19-4.71-27.68-9.74-7.19-4.26-13.51-9.83-18.85-16.23-10.7-12.81-17.42-29.14-19.33-45.69-2.14-18.58,1.36-38.06,11.03-54.17,9.17-15.27,24.18-26.93,41.59-31.12,4.15-1,8.36-1.52,12.63-1.58,3.21-.04,3.22-5.04,0-5h0Z"/><path class="c" d="M216.17,226.63c.54-1.72-.6-3.53-2.33-3.96-1.95-.49-3.62,.84-4.23,2.63-.52,1.53-.71,3.22-1.03,4.8l-1.11,5.46c-.64,3.12,3.99,4.47,4.82,1.33,2.59-9.74,4.52-19.62,5.85-29.61,.33-2.46-3.63-3.41-4.66-1.26-3.37,7.07-6.56,14.21-9.6,21.43l4.82,1.33,2.72-17.89c.19-1.23-.2-2.45-1.45-2.95-1.15-.46-2.47-.07-3.12,1.02-2.87,4.8-5.47,9.74-7.78,14.83l4.57,1.93c1.54-7.71,2.45-15.54,2.67-23.4,.08-2.76-4.4-3.48-4.91-.66-.71,3.93-1.83,7.78-3.48,11.41l4.57,1.93c1.01-2.95,1.6-5.99,1.86-9.1,.1-1.22-1.03-2.32-2.17-2.46-1.33-.16-2.26,.6-2.74,1.79l-4.42,10.9c-1.06,2.61,3.34,4.47,4.57,1.93,2.1-4.34,3.74-8.86,4.83-13.56,.65-2.81-2.99-4.28-4.57-1.93-1.94,2.88-2.99,6.13-3.35,9.57-.29,2.81,4.3,3.39,4.91,.66l1.42-6.32c.61-2.7-3.1-4.45-4.57-1.93l-3.18,5.47,4.57,1.93,2.44-8.95c.72-2.65-3.31-4.54-4.57-1.93-1.84,3.81-3.24,7.78-4.11,11.92-.55,2.63,3.21,4.58,4.57,1.93l6.97-13.63-4.66-1.26-1.24,16.04c-.09,1.22,1.02,2.32,2.17,2.46,1.32,.16,2.27-.6,2.74-1.79,2.3-5.76,4.45-11.59,6.43-17.47l-4.91-.66c-.18,6.95-.67,13.89-1.48,20.8-.14,1.22,1.06,2.32,2.17,2.46,1.26,.15,2.35-.58,2.74-1.79,2.19-6.76,4.91-13.31,8.18-19.61l-4.66-1.26-1.57,18.02c-.11,1.22,1.03,2.32,2.17,2.46,1.29,.15,2.31-.59,2.74-1.79l7.54-20.7-4.91-.66c-1,7.84-2.51,15.61-4.46,23.27-.81,3.18,3.69,4.28,4.82,1.33l8.13-21.18-4.82-1.33-3.19,18.07c-.22,1.22,.23,2.46,1.45,2.95,1.09,.44,2.56,.11,3.12-1.02l8.4-16.77-4.57-1.93-4.51,20.96c-.59,2.75,3.02,4.37,4.57,1.93,3.42-5.4,5.92-11.38,7.35-17.61l-4.82-1.33-2.54,18.02c-.19,1.34,.33,2.69,1.75,3.08,1.34,.37,2.67-.45,3.08-1.75,1.82-5.85,3.88-11.61,6.17-17.29l-4.91-.66-1.27,17.87c-.18,2.55,3.46,3.29,4.66,1.26,3.15-5.31,5.53-11.07,7.05-17.06l-4.91-.66-1.84,18.02c-.12,1.22,1.05,2.32,2.17,2.46,1.27,.15,2.33-.58,2.74-1.79l5.77-16.88-4.91-.66-1.54,15.49c-.26,2.61,3.44,3.2,4.66,1.26,2.78-4.43,4.66-9.4,5.45-14.58l-4.91-.66,.14,3.71c.05,1.24,.92,2.31,2.17,2.46,1.13,.13,2.53-.55,2.74-1.79l1-5.84h-4.82c.51,1.79,.6,3.55,.37,5.4h5c.08-4.01,.72-7.93,1.89-11.77,.86-2.83-3.03-4.17-4.57-1.93-1.94,2.83-3.41,5.96-4.4,9.24l4.82,1.33c.82-6.09,1.11-12.2,.72-18.34-.15-2.31-3.44-3.61-4.66-1.26-2.96,5.72-5.27,11.75-6.85,17.99l4.91,.66,2.6-22.51c.28-2.42-3.66-3.47-4.66-1.26l-8.53,18.93,4.57,1.93,3.13-23.05c.17-1.24-.19-2.44-1.45-2.95-1.08-.43-2.56-.11-3.12,1.02-3.63,7.37-6.56,15.06-8.72,22.99-.85,3.11,3.88,4.4,4.82,1.33,2.81-9.21,4.31-18.8,4.48-28.43,.02-1.02-.78-2.21-1.84-2.41-5.23-.97-6.71,5.74-8.07,9.41-1.7,4.58-3.2,9.24-4.5,13.95l4.82,1.33c1.63-7.68,2.75-15.46,3.38-23.28,.19-2.38-3.69-3.54-4.66-1.26-3.95,9.29-6.59,18.95-7.93,28.96-.37,2.77,4.46,3.44,4.91,.66l3.91-23.99c.2-1.23-.21-2.45-1.45-2.95-1.04-.42-2.63-.14-3.12,1.02-3.25,7.59-5.11,15.61-5.41,23.88-.1,2.78,4.34,3.46,4.91,.66,2.5-12.32,3.55-24.91,3.04-37.48-.12-2.87-3.99-3.33-4.91-.66-4.03,11.62-7.92,23.75-5.64,36.17,.44,2.41,4.34,2.36,4.82,0,1.98-9.68,2.94-19.55,2.84-29.43-.04-3.22-5.04-3.22-5,0,.1,9.44-.77,18.85-2.66,28.1h4.82c-2.09-11.41,1.95-22.87,5.64-33.51l-4.91-.66c.49,12.12-.45,24.26-2.87,36.15l4.91,.66c.26-7.32,1.84-14.61,4.73-21.35l-4.57-1.93-3.91,23.99,4.91,.66c1.21-9.06,3.67-18.03,7.25-26.43l-4.66-1.26c-.59,7.38-1.66,14.7-3.2,21.95-.66,3.13,3.96,4.45,4.82,1.33,1.05-3.79,2.22-7.54,3.52-11.24,.64-1.81,1.31-3.62,2.01-5.41,.3-.77,.58-1.58,.94-2.32,.12-.25,.36-.53,.45-.79,.2-.61,.85,.14-.5-.11l-1.84-2.41c-.16,9.21-1.62,18.29-4.3,27.1l4.82,1.33c2.04-7.51,4.78-14.81,8.22-21.79l-4.57-1.93-3.13,23.05c-.17,1.24,.19,2.44,1.45,2.95,1.05,.42,2.6,.13,3.12-1.02l8.53-18.93-4.66-1.26-2.6,22.51c-.33,2.83,4.23,3.35,4.91,.66,1.48-5.83,3.58-11.45,6.34-16.8l-4.66-1.26c.36,5.66,.22,11.38-.54,17.01-.18,1.34,.32,2.68,1.75,3.08,1.33,.37,2.68-.45,3.08-1.75,.88-2.89,2.19-5.55,3.9-8.04l-4.57-1.93c-1.29,4.24-1.98,8.66-2.07,13.1-.03,1.35,1.17,2.5,2.5,2.5,1.49,0,2.33-1.15,2.5-2.5,.29-2.26,.08-4.54-.55-6.73s-4.39-2.54-4.82,0l-1,5.84,4.91,.66-.14-3.71c-.05-1.24-.92-2.31-2.17-2.46-1.11-.13-2.55,.55-2.74,1.79-.73,4.79-2.37,9.28-4.94,13.38l4.66,1.26,1.54-15.49c.12-1.22-1.04-2.32-2.17-2.46-1.27-.15-2.33,.58-2.74,1.79l-5.77,16.88,4.91,.66,1.84-18.02c.29-2.83-4.23-3.35-4.91-.66-1.42,5.59-3.61,10.89-6.55,15.86l4.66,1.26,1.27-17.87c.09-1.23-1.02-2.32-2.17-2.46-1.32-.16-2.26,.6-2.74,1.79-2.29,5.68-4.35,11.45-6.17,17.29l4.82,1.33,2.54-18.02c.19-1.34-.33-2.69-1.75-3.08-1.26-.35-2.77,.42-3.08,1.75-1.35,5.85-3.64,11.34-6.85,16.41l4.57,1.93,4.51-20.96c.57-2.63-3.24-4.59-4.57-1.93l-8.4,16.77,4.57,1.93,3.19-18.07c.56-3.19-3.67-4.34-4.82-1.33l-8.13,21.18,4.82,1.33c2.06-8.1,3.59-16.31,4.64-24.6,.15-1.22-1.07-2.32-2.17-2.46-1.29-.15-2.31,.59-2.74,1.79l-7.54,20.7,4.91,.66,1.57-18.02c.22-2.48-3.55-3.4-4.66-1.26-3.46,6.68-6.37,13.65-8.69,20.81l4.91,.66c.81-6.91,1.3-13.84,1.48-20.8,.08-2.92-4.04-3.26-4.91-.66-1.98,5.88-4.12,11.71-6.43,17.47l4.91,.66,1.24-16.04c.19-2.46-3.56-3.42-4.66-1.26l-6.97,13.63,4.57,1.93c.78-3.71,1.96-7.31,3.61-10.73l-4.57-1.93-2.44,8.95c-.74,2.72,3.14,4.4,4.57,1.93l3.18-5.47-4.57-1.93-1.42,6.32,4.91,.66c.26-2.55,1.24-4.92,2.66-7.04l-4.57-1.93c-.99,4.27-2.42,8.41-4.33,12.36l4.57,1.93,4.42-10.9-4.91-.66c-.22,2.66-.81,5.25-1.68,7.77s3.4,4.52,4.57,1.93c1.83-4.05,3.19-8.24,3.98-12.61l-4.91-.66c-.21,7.42-1.03,14.79-2.49,22.07-.24,1.22,.25,2.47,1.45,2.95,1.05,.42,2.6,.13,3.12-1.02,2.31-5.09,4.91-10.04,7.78-14.83l-4.57-1.93-2.72,17.89c-.49,3.21,3.57,4.3,4.82,1.33,2.87-6.82,5.91-13.56,9.1-20.23l-4.66-1.26c-1.28,9.54-3.2,18.98-5.68,28.28l4.82,1.33,1.11-5.46,.53-2.61c.1-.47,.18-.95,.29-1.42l.07-.31c.35-.92-.29-.79-1.92,.4l-.9-.9-.06-.18v-1.33l-.07,.23c-.96,3.08,3.87,4.4,4.82,1.33h0Z"/><path class="c" d="M94.4,149.17l-.06,20.38c0,2.3,3.65,3.65,4.66,1.26,3.89-9.21,7.66-18.47,11.3-27.78l-4.82-1.33-2.06,14.84c-.34,2.46-.81,4.95-1.02,7.42-.19,2.18,.82,4.38,3.11,4.88s4.24-1.21,5.37-2.98c1.27-1.98,2.18-4.3,3.22-6.41l6.65-13.42-4.66-1.26-1.12,18.99c-.15,2.48,3.51,3.39,4.66,1.26,3.99-7.39,7.42-15.07,10.29-22.96l-4.57,.6c1.38,2.95,.23,6.7-.31,9.76-.67,3.83-1.03,7.79,1.05,11.28,1.07,1.8,4.05,1.53,4.57-.6,1.75-7.21,5.09-13.98,9.88-19.67l-4.27-1.77c.25,6.1-.32,12.15-1.75,18.08-.64,2.67,3.2,4.51,4.57,1.93l8.73-16.44h-4.32c.76,1.04,.86,1.78,.72,3.14-.11,1.1-.55,2.62-.86,3.87-.8,3.18-1.27,6.32,.2,9.37,.85,1.76,3.4,1.49,4.32,0l9.12-14.8-4.57-.6c1.32,4.17,1.28,8.46-.1,12.61-.92,2.77,3.1,4.25,4.57,1.93,2.09-3.31,4.17-6.63,6.28-9.93,.1-.16,.2-.31,.3-.47l-2.34-.17c.05-.17,.14,.42,.15,.53,.06,.42,.04,1.62,.06,2.32l.21,5.73c.08,2.26,3.59,3.68,4.66,1.26l3.99-9-4.57-.6c.25,.61,.31,1.48-.41,1.74-1.27,.46-2.12,1.7-1.75,3.08,.34,1.23,1.8,2.21,3.08,1.75,3.11-1.12,5.21-4.64,3.9-7.89-.38-.94-1.01-1.66-2.08-1.79-.9-.11-2.09,.28-2.49,1.19l-3.99,9,4.66,1.26c-.1-2.62-.16-5.25-.29-7.88-.11-2.3-1.17-5.04-3.91-5.02s-4.02,3.24-5.24,5.18l-4.55,7.18,4.57,1.93c1.64-4.93,1.67-10.32,.1-15.27-.65-2.06-3.42-2.46-4.57-.6l-9.12,14.8h4.32c-.42-.87-.39-2.11-.23-3.14,.23-1.45,.67-2.86,1-4.28,.71-2.99,1.08-6.32-.85-8.96-1.04-1.42-3.36-1.8-4.32,0l-8.73,16.44,4.57,1.93c1.53-6.35,2.19-12.89,1.93-19.41-.08-1.99-2.79-3.53-4.27-1.77-5.34,6.35-9.2,13.8-11.16,21.88l4.57-.6c-1.69-2.84-.73-6.39-.16-9.5,.72-3.94,1.17-7.8-.57-11.54-.99-2.13-3.91-1.22-4.57,.6-2.72,7.49-6,14.75-9.79,21.77l4.66,1.26,1.12-18.99c.14-2.43-3.57-3.47-4.66-1.26l-5.43,10.96-2.77,5.59c-.44,.89-.86,1.81-1.33,2.68-.09,.16-.89,1.1-.89,1.19,0-.29,1.68,.6,1.33,.68,.02,0,.05-.61,.05-.65,.09-.88,.24-1.76,.36-2.63l.83-5.94,1.72-12.37c.44-3.17-3.63-4.38-4.82-1.33-3.48,8.91-7.07,17.78-10.79,26.59l4.66,1.26,.06-20.38c0-3.22-4.99-3.22-5,0h0Z"/><path class="c" d="M199.65,187.57c1.18,4.83,.28-2.85,.47,2.13,.06,1.73,0,3.43-.13,5.15h35c-.36-4.81-1.01-9.56-2.56-14.14-2.83-8.31-10.29-13.73-19.2-12.54s-14.37,8.39-15.17,17.19c-.43,4.68,.19,9.13,.98,13.77l33.75-9.3-3.01-9.48c-2.65-8.35-10.42-13.71-19.2-12.54-7.93,1.07-15.99,8.5-15.17,17.19,.61,6.56,1.23,13.13,1.21,19.73,0,1.56-.04,3.13-.12,4.69-.02,.42-.42,4.83-.22,3.27s-.42,2.2-.49,2.54c-.33,1.5-.71,2.99-1.16,4.45-.3,.98-.68,1.93-.99,2.9,1.07-3.41-.42,.77-.75,1.38-.59,1.11-1.41,2.13-1.95,3.25-.78,1.6,1.69-1.52-.48,.64-.88,.88-1.84,1.74-2.68,2.66-1.05,1.16,1.76-.87-.87,.57-.21,.12-4.83,2.59-1.6,1.12-1.22,.56-2.56,.93-3.85,1.29s-2.64,.65-3.97,.95c-3.19,.73,.92,.15-1.03,.15-2.9,0-5.77,.27-8.69,.16-3.38-.14-6.75-.47-10.1-.9,2.4,.31-.91-.15-1.75-.28-1.52-.23-3.05-.46-4.57-.69-14.08-2.09-28.2-3.64-42.42-4.36-9.16-.46-17.91,8.38-17.5,17.5,.44,9.88,7.69,17.01,17.5,17.5,7.6,.38,15.18,.96,22.74,1.78,1.89,.21,3.78,.43,5.66,.66,6.16,.75-3.25-.51,2.88,.39,3.66,.54,7.31,1.11,10.97,1.62,16.1,2.22,31.71,2.9,47-3.55s24.61-19.06,29.7-34.01c4.97-14.58,3.92-30.38,2.51-45.44l-34.37,4.65,3.01,9.48c2.77,8.71,12.29,15.21,21.53,12.22,9.76-3.16,13.88-11.83,12.22-21.53,.17,1.63,.19,1.36,.06-.81,0-1.22,.06-2.44,.21-3.66l-34.37,4.65c.43,1.25,.63,2.68,1.15,3.88,.94,2.2-.16-3.44,.17,.95,.69,9.11,7.56,17.95,17.5,17.5s16.73-7.7,17.5-17.5c.44-5.56-.27-11.19-1.58-16.59-2.17-8.9-12.72-15.07-21.53-12.22-9.24,2.99-14.55,11.99-12.22,21.53h0Z"/><path class="c" d="M69.98,212.13c8.36,0,8.38-13,0-13s-8.38,13,0,13h0Z"/><path class="c" d="M130.97,152.87l-13.76,1.15,1.73,12.77c5.58-1.63,10.85-1.65,16.44-.03l-2.87-10.86c1.9-.77,1.77-1.04-.39-.81-1.15-.05-2.3-.09-3.45-.13-2.01-.06-4.03-.12-6.04-.07-4.29,.11-8.54,.68-12.65,1.94-6.81,2.09-5.83,13.03,1.73,12.77,5.4-.19,10.8-.02,16.15,.76l-2.87-10.86-.7,.59c-6.43,5.37,2.81,14.53,9.19,9.19l.7-.59c3.52-2.94,1.85-10.17-2.87-10.86-6.54-.96-13-1.46-19.61-1.23l1.73,12.77c5.03-1.54,10.02-1.58,15.23-1.41,4.85,.16,9.23,.71,13.03-2.86s1.7-9.54-2.87-10.86c-7.72-2.24-15.63-2.23-23.35,.03-6.77,1.98-5.83,13.4,1.73,12.77l13.76-1.15c8.28-.69,8.35-13.7,0-13h0Z"/><path class="c" d="M129.38,147.25c-4.09,.71-8.13,.09-11.86-1.72v11.23c5.2-3.2,10.59-3.75,16.37-1.85l-1.55-11.88c-9.62,5.18-20.79,4.78-31.4,4.5l1.73,12.77,25.97-3.72-5.01-11.88c-7.69,4.17-15.8,6.78-24.43,8.14l6.32,10.86c6.73-7.58,14.48-13.61,23.48-18.27,6.94-3.59,1.84-13.12-5.01-11.88-8.18,1.48-16.29,3.24-24.35,5.27l5.01,11.88c4.7-3.39,9.59-6.39,14.74-9.05l-7.88-10.21c-5.15,4.76-11.07,8.14-17.78,10.18l6.32,10.86,9.48-9.44c4.25-4.23,.82-10.64-4.6-11.1-5.75-.48-11.5,1.91-15.1,6.44l10.21,7.88c1.33-2.11,2.76-3.99,4.44-5.83,4.69-5.13-1.71-14.89-7.88-10.21l-9.26,7.03,7.88,10.21,4.71-5.57c5.35-6.32-3.04-15.04-9.19-9.19-2.94,2.79-5.99,5.43-9.18,7.93l9.19,9.19,6.22-7.84c5.14-6.47-2.76-14.8-9.19-9.19-18.45,16.07-29.63,39.97-29.87,64.47-.24,24.5,10.65,48.6,28.78,64.97l9.19-9.19-13.8-12.03c-5.17-4.51-14.89,1.58-10.21,7.88,5.09,6.84,10.6,13.25,16.76,19.15s14.98-3.13,9.19-9.19c-3.24-3.39-5.89-7.25-7.63-11.62l-8,8c2.97,.94,5.6,2.17,8.27,3.78,6.27,3.77,13.28-5.08,7.88-10.21-4.82-4.57-9.09-9.5-12.8-15.01l-7.34,9.55c4.12,1.69,7.9,4.06,11.45,6.72,5.85,4.39,13.58-5.52,7.88-10.21l-17.02-13.99,1.02,7.88-3.42,1.85c.43,.19,.87,.36,1.31,.52,.92,.77,3.4,1.29,4.45,1.68l8.9,3.36c7.24,2.73,10.79-7.99,5.01-11.88l-19.56-13.16-5.01,11.88c5.21,1.39,9.77,3.73,13.79,7.35l7.88-10.21c-7.05-5.17-13.84-10.47-19.25-17.42l-9.19,9.19c3.29,2.89,6.25,6,8.77,9.58,4.76,6.76,15.26,.91,11.23-6.56-4.37-8.08-6.26-17.05-8.15-25.97-1.58-7.46-12.4-5.31-12.77,1.73-.41,7.73,.52,15.4,2.68,22.83,1.98,6.8,13.29,5.82,12.77-1.73l-1.7-24.74c-.57-8.3-13.56-8.37-13,0l1.25,18.63c.49,7.35,10.34,8.78,12.77,1.73,1.4-4.05,2.11-8.09,2.44-12.36,.56-7.24-11.42-8.95-12.77-1.73-.84,4.51-1.25,8.97-1,13.56,.37,6.87,11.5,9.35,12.77,1.73,.74-4.48,1.31-8.97,1.64-13.5,.61-8.36-12.33-8.28-13,0l-.54,6.69c-.58,7.21,11.69,9,12.77,1.73,3.07-20.75,6.27-41.56,13.58-61.32,2.64-7.14-8.1-11.01-11.88-5.01-11.34,18-17.68,38.5-18.79,59.73-.38,7.34,10.99,8.8,12.77,1.73,2.56-10.19,2.98-20.76,5.38-30.97,1.08-4.59,2.52-9.34,5.26-13.25,.36-.52,1.84-1.71,1.96-2.21-2.98-3.15-4.49-3.67-4.53-1.55-.04,.48-.11,.96-.21,1.44-.5,3.11-1.4,6.14-2.41,9.12-1.74,5.12,3.5,8.77,8,8,2.12-.37,3.51-1.18,4.89-2.84,3.1-3.73,1.6-11.9-4.6-11.1-4.11,.53-7.12,1.93-9.23,5.65-1.87,3.29-.39,8.89,3.88,9.55,20.59,3.16,41.37,4.57,62.2,3.8,10.24-.38,20.45-1.27,30.6-2.62,9.54-1.27,19.09-2.46,27.84-6.69,6.41-3.1,2.45-11.51-3.28-12.11-16.7-1.76-33.33-1.21-49.92,1.27l3.46,12.54c8.85-2.64,17.76-4.98,26.77-7.04,7.25-1.65,5.5-12.7-1.73-12.77-15.78-.16-31.45,1.03-47.05,3.34l3.46,12.54c7.23-1.62,14.44-2.26,21.85-2.05l-1.73-12.77c-7.26,1.48-14.44,3.25-21.55,5.3l6.32,10.86c2.92-2.31,7.1-2.97,10.5-4.3,3.89-1.52,7.5-3.45,10.18-6.74,2.87-3.52,2.33-9.71-2.87-10.86-21.37-4.75-42.26-11.49-62.27-20.38l-1.55,11.88,13.16-4.23c7.93-2.55,4.54-15.11-3.46-12.54l-13.16,4.23c-4.79,1.54-7.01,9.46-1.55,11.88,21.06,9.36,42.87,16.69,65.37,21.69l-2.87-10.86c-2.5,3.07-5.93,3.92-9.55,5.17-4.11,1.43-7.71,3.16-11.14,5.87-5.27,4.16,.47,12.55,6.32,10.86,7.12-2.05,14.3-3.82,21.55-5.3s5.39-12.57-1.73-12.77c-8.53-.24-16.98,.64-25.3,2.51s-4.6,13.73,3.46,12.54c14.43-2.14,29.01-3.02,43.59-2.88l-1.73-12.77c-9,2.05-17.92,4.4-26.77,7.04-8.22,2.45-4.62,13.74,3.46,12.54,15.39-2.3,31.01-2.44,46.47-.81l-3.28-12.11c-7.8,3.78-17.45,4.49-25.96,5.52-9.24,1.11-18.54,1.8-27.84,2.09-18.99,.59-38.04-.52-56.82-3.4l3.88,9.55-2,.79-4.6-11.1,.85-.5,8,8c2.34-6.87,6.29-18.33-1.02-23.53s-14.37,1.51-17.96,7.35c-8.63,14.03-7.66,31.19-11.54,46.68l12.77,1.73c.99-18.97,6.9-37.11,17.02-53.17l-11.88-5.01c-7.31,19.76-10.52,40.57-13.58,61.32l12.77,1.73,.54-6.69h-13c-.25,3.37-.62,6.71-1.17,10.05l12.77,1.73c-.19-3.42-.09-6.74,.54-10.11l-12.77-1.73c-.24,3.1-.96,5.98-1.97,8.91l12.77,1.73-1.25-18.63h-13l1.7,24.74,12.77-1.73c-1.87-6.41-2.57-12.7-2.22-19.37l-12.77,1.73c2.13,10.06,4.53,19.96,9.46,29.08l11.23-6.56c-3.16-4.49-6.67-8.58-10.8-12.21-6.44-5.65-14.24,2.7-9.19,9.19,6.06,7.8,13.98,13.65,21.88,19.45,5.95,4.36,13.33-5.31,7.88-10.21s-12.12-8.72-19.52-10.69-11.02,7.84-5.01,11.88l19.56,13.16,5.01-11.88c-6.65-2.51-21.21-11.2-25.93-1.43-1.16,2.4-1.29,5.98,1.02,7.88l17.02,13.99,7.88-10.21c-4.52-3.39-9.33-5.89-14.55-8.03s-10.34,5.09-7.34,9.55c4.32,6.41,9.23,12.32,14.84,17.64l7.88-10.21c-3.6-2.16-7.37-3.82-11.37-5.09-4.39-1.39-9.84,3.36-8,8,2.6,6.54,6.09,12.25,10.97,17.36l9.19-9.19c-5.34-5.12-10.31-10.58-14.73-16.52l-10.21,7.88,13.8,12.03c6.26,5.46,15.44-3.55,9.19-9.19-15.71-14.19-25.16-34.5-24.97-55.78s10.11-41.39,26.06-55.28l-9.19-9.19-6.22,7.84c-5.24,6.6,2.58,14.38,9.19,9.19,3.19-2.51,6.24-5.14,9.18-7.93l-9.19-9.19-4.71,5.57c-4.38,5.18,1.58,14.99,7.88,10.21l9.26-7.03-7.88-10.21c-2.41,2.64-4.56,5.44-6.47,8.46-3.86,6.11,5.55,13.73,10.21,7.88,1.72-2.16,3.14-2.86,5.91-2.63l-4.6-11.1-9.48,9.44c-4.52,4.5,.04,12.78,6.32,10.86,8.86-2.7,16.72-7.24,23.51-13.52,5.61-5.19-1.52-13.49-7.88-10.21-5.14,2.66-10.04,5.67-14.74,9.05-5.76,4.15-2.52,13.78,5.01,11.88,8.06-2.03,16.17-3.79,24.35-5.27l-5.01-11.88c-9.88,5.12-18.72,11.99-26.11,20.3-4.54,5.12-.01,11.86,6.32,10.86,9.7-1.53,18.91-4.78,27.54-9.45,7.01-3.8,1.76-12.85-5.01-11.88l-25.97,3.72c-7.47,1.07-5.32,12.58,1.73,12.77,13.07,.34,26.17,.06,37.96-6.28,5.17-2.78,3.52-10.21-1.55-11.88-8.89-2.93-18.43-1.73-26.38,3.16-3.88,2.39-4.56,9.01,0,11.23,7.09,3.45,14.12,4.38,21.87,3.03,8.23-1.43,4.74-13.96-3.46-12.54h0Z"/><path class="c" d="M129.51,133.5c.33,2.22,.13,4.45-.16,6.66l9.78-5.61c-2.64-1.32-5.16-2.77-7.46-4.63l-1.32,10.21-.96,.48c6.27,.54,9.09-9.48,3.28-12.11-5.17-2.34-10.4-4.24-15.94-5.5v12.54c15.18-6.17,31.5-6.04,47.41-3.13s31.39,6.59,45.99,12.22c6.83,2.63,13.44,6.37,18.34,11.9s6.18,11.79,7.56,18.69c3.38,16.91,6.63,32.67,2.21,49.76h12.54c-3.34-9.1-6.15-18.36-8.44-27.78-1.49-6.16-11.08-6.23-12.54,0-1.62,6.91-2.27,13.91-1.77,21s11.7,9.45,12.77,1.73c1.24-8.97,1.76-17.86,1.26-26.91-.39-7.02-11-9.19-12.77-1.73-.86,3.65-2.03,7.02-3.75,10.36-3.83,7.42,7.38,14.01,11.23,6.56,2.22-4.31,3.95-8.75,5.06-13.47l-12.77-1.73c.43,7.83,.28,15.69-.79,23.46l12.77,1.73c-.42-5.97-.06-11.71,1.3-17.55h-12.54c2.29,9.42,5.1,18.68,8.44,27.78,2.09,5.71,10.82,6.63,12.54,0,2.44-9.45,3.51-19.3,2.65-29.05s-3.04-18.48-4.87-27.62c-1.62-8.13-3.71-15.45-8.92-22.04-5.16-6.53-12.11-11.47-19.64-14.93-16.19-7.45-34.91-11.72-52.4-14.91s-37.01-3.91-54.32,3.13c-5.4,2.19-6.9,10.96,0,12.54,4.41,1,8.71,2.32,12.84,4.19l3.28-12.11c-2.16-.18-3.67,.41-5.6,1.29-3.57,1.64-4.39,7.72-1.32,10.21s6.41,4.83,10.09,6.66c4.78,2.38,9.14-.65,9.78-5.61,.45-3.47,.2-6.67-.31-10.12s-4.9-5.36-8-4.54c-3.73,.98-5.05,4.54-4.54,8h0Z"/><path class="c" d="M209.21,163.16c-2.43-2.58-5.45-5.35-9.34-4.28-3.2,.88-4.61,3.62-5.63,6.5-1.82,5.15-2.89,13.97,2.84,17.01,4.75,2.51,9.15-.75,9.78-5.61,.74-5.7-.74-11.58-3.85-16.39-2.8-4.33-10.76-4.27-11.88,1.55-.74,3.84-.46,7.6-.29,11.48s.39,7.34,3.17,10.39c4.16,4.57,10.55,.56,11.1-4.6,.27-2.53-.03-5.06-.69-7.51-2.19-8.07-14.73-4.64-12.54,3.46,.38,1.4,.38,2.6,.23,4.05l11.1-4.6c.88,.97,.74,1.86,.69-.03-.03-1.17-.1-2.34-.15-3.51-.08-1.82-.42-3.88-.07-5.68l-11.88,1.55c2.02,3.13,2.56,6.15,2.08,9.83l9.78-5.61-.58-.31,2.99,3.88c-.54-1.6-.07-4.58,.84-6.13l-2.33,2.33,.31-.19h-6.56c.58,.26,1.26,1.14,1.7,1.6,5.75,6.1,14.93-3.1,9.19-9.19h0Z"/><path class="c" d="M133.27,128.3c-2.21,4.52-2.78,8.82-1.69,13.73,1.24,5.63,9.1,6.12,11.88,1.55,2.16-3.55,4.34-7.1,6.53-10.64l-12.11-3.28c-.22,3.58-.35,7.15-.38,10.74-.04,4.54,5.71,8.63,9.78,5.61,1.76-1.3,3.13-2.57,4.17-4.53,.36-.67,.93-1.74,1.05-2.51,.34-2.09,1.59-.94-1.33,.13l-8.23-6.27-.15,10.68c-.08,5.33,7.37,8.97,11.1,4.6l6.65-7.8-11.1-4.6,.26,9.18c.17,6.16,9,9.22,12.11,3.28l4.29-8.19-12.11-3.28-1.14,10.76c-.69,6.47,9.27,8.78,12.11,3.28l5.2-10.05-12.11-3.28-1.06,8.79c-.89,7.39,10.91,8.63,12.77,1.73l3.59-13.32-8,4.54,.62,.2-3.88-2.99c-1.12-2.52-.61-1.02-.85,1.09l-.54,4.65-1.08,9.31c-.37,3.2,2.76,6,5.64,6.38,3.46,.47,5.85-1.62,7.13-4.66,1.1-2.62,2.23-5.23,3.47-7.78,.5-1.02,1.01-2.03,1.54-3.03,.4-.75,.82-1.49,1.25-2.21,1-1.3,.31-1.33-2.08-.1l-6.27-8.23c-1.17,6.04-2.26,12.1-3.27,18.17s5.83,11.04,10.86,6.32c4.3-4.02,4.62-10.36,8.63-14.28l-11.1-4.6-2.13,17.98c-.78,6.58,9.18,8.6,12.11,3.28,2.35-4.26,4.95-8.32,8.03-12.1h-9.19c-.87-2.9-1.29-3.02-1.26-.35l-.43,3.8-.86,7.61c-.72,6.35,9.44,8.94,12.11,3.28l3.19-6.75c.4-.85,1.31-3.95,2.08-4.41l-9.78-5.61-2.32,17.54c-.85,6.47,9.33,8.74,12.11,3.28,2.74-5.37,5.53-10.67,8.98-15.63l-11.88-5.01-3.58,17.04c-1.01,4.79,2.99,9.33,8,8,8.79-2.35,10.93-15.64,17.7-21.1l-10.86-6.32-5.37,20.56c-1.89,7.25,7.91,11.16,11.88,5.01l11-17.05-11.88-5.01-4.04,18.21c-1.61,7.24,7.79,11.23,11.88,5.01l8.2-12.46-12.11-3.28c.3,7.29-3.12,13.78-.87,21.11,1.68,5.49,8.82,6.24,11.88,1.55l7.6-11.63-11.88-5.01c-1.24,6.86-2.4,13.72-2.26,20.71,.13,6.57,8.65,8.68,12.11,3.28,2.72-4.23,4.74-8.79,6.13-13.62l-12.77-1.73c.06,5.86-1.9,16.25,4.29,19.84,7.18,4.16,12.25-3.01,13.04-9.23,.93-7.29-11.13-8.78-12.77-1.73l-4.31,18.51c-1.9,8.14,10.64,11.61,12.54,3.46l4.31-18.51-12.77-1.73c6.53,3.67,9.45,3.36,8.77-.95l-.03-2.9-.07-6.76c-.08-7.33-10.72-8.82-12.77-1.73-1.11,3.84-2.66,7.15-4.82,10.52l12.11,3.28c-.12-5.86,.75-11.51,1.8-17.26,1.3-7.15-7.7-11.4-11.88-5.01l-7.6,11.63,11.88,1.55c-1.7-5.53,1.57-11.9,1.34-17.65-.27-6.56-8.55-8.69-12.11-3.28l-8.2,12.46,11.88,5.01,4.04-18.21c1.6-7.2-7.83-11.29-11.88-5.01l-11,17.05,11.88,5.01,5.37-20.56c1.76-6.73-6.04-10.22-10.86-6.32-3.18,2.56-5.6,5.8-7.73,9.27-1.07,1.74-2.02,3.54-3.05,5.3-.51,.88-1.03,1.76-1.58,2.62-1.26,1.49-1.13,1.68,.4,.58l8,8,3.58-17.04c1.54-7.35-7.65-11.08-11.88-5.01-3.45,4.95-6.24,10.25-8.98,15.63l12.11,3.28,2.32-17.54c.67-5.06-5.96-7.88-9.78-5.61-5.43,3.21-7.38,10.42-9.93,15.82l12.11,3.28c.64-5.67,4.09-15.97-1.26-20.25-2.52-2.02-6.79-2.96-9.19,0-3.78,4.65-7.17,9.48-10.06,14.73l12.11,3.28,2.13-17.98c.7-5.87-7.41-8.2-11.1-4.6-4.15,4.07-4.56,10.48-8.63,14.28l10.86,6.32c1.01-6.07,2.1-12.13,3.27-18.17,.86-4.45-1.86-7.78-6.27-8.23-5.09-.52-7.86,4.17-9.99,8.01-2.62,4.7-4.65,9.7-6.74,14.66l12.77,1.73c.61-5.23,1.59-10.57,1.83-15.82,.2-4.26-1.4-7.6-5.64-8.98-3.33-1.08-7.11,1.26-8,4.54l-3.59,13.32,12.77,1.73,1.06-8.79c.78-6.48-9.29-8.74-12.11-3.28l-5.2,10.05,12.11,3.28,1.14-10.76c.69-6.49-9.25-8.75-12.11-3.28l-4.29,8.19,12.11,3.28-.26-9.18c-.15-5.23-7.26-9.09-11.1-4.6l-6.65,7.8,11.1,4.6,.15-10.68c.06-3.96-4.24-7.72-8.23-6.27-2.39,.87-4.27,2.04-5.66,4.22-.57,.89-.94,1.8-1.35,2.8-.37,.9-1.72,2.49,.01,1.21l9.78,5.61c.03-3.58,.16-7.16,.38-10.74,.41-6.71-8.9-8.48-12.11-3.28-2.19,3.54-4.37,7.08-6.53,10.64l11.88,1.55c-.3-1.36-.23-2.45,.38-3.72,3.65-7.49-7.55-14.09-11.23-6.56h0Z"/><path class="c" d="M71.65,220.91c-.05,9.43,2.05,18.29,5.99,26.83l11.23-6.56c-2.66-5.32-6.68-9.46-11.77-12.49-3.85-2.29-10.4,.57-9.78,5.61,.67,5.4,2.07,10.23,4.86,14.94l10.21-7.88c-1.5-1.88-2.54-4.01-3.49-6.2-2.9-6.68-14.72-1.8-11.88,5.01,2.01,4.83,4.42,9.72,9.8,11.43s10.45-.18,13.13-4.97c2.82-5.04,3.06-10.64,1.24-15.95-2.14-6.23-2.95-12.39-3.48-18.94l-11.1,4.6c3.55,3.82,8.88,5.24,13.7,6.82,5.55,1.82,11.2,3.31,16.9,4.6,11.43,2.58,23.08,4.54,34.73,5.85,23.39,2.62,46.93-.13,68.89-8.69,4.93-1.92,6.81-8.92,1.55-11.88-2.7-1.52-5.41-2.04-8.48-1.56-2.5,.39-5.23,2.68-7.63,2.71l4.6,1.9,.29,6.59c7.56-3.77,.94-14.65-6.56-11.23l-2.63,1.2,6.56,11.23,3-1.38-7.88-10.21c-.44,.44-2.72,.06-3.32,.08-2.23,.08-4.45,.36-6.65,.74-4.09,.71-8.13,1.72-12.22,2.43-9.35,1.63-18.81,2.65-28.23,3.76-19.35,2.26-38.73,4.27-58.23,4.28-7.13,0-9.09,11.29-1.73,12.77,10.56,2.11,21.23,3.01,31.98,2.49,5.92-.29,9.51-9.17,3.28-12.11-7.98-3.77-16.52-4.67-24.98-1.87-5.63,1.86-6.72,11.24,0,12.54,31.52,6.08,63.4,.47,95.15,2.59l-1.73-12.77-17.53,4.83c-6.86,1.89-5.77,13.31,1.73,12.77,6.78-.49,13.54-1.25,20.26-2.27,5.96-.91,11.72-1.49,16.43-5.57s-.3-12.8-6.32-10.86l-3.1,1c-7.93,2.55-4.54,15.1,3.46,12.54l3.1-1-6.32-10.86c-2.51,2.17-9.37,2.05-12.53,2.5-4.97,.7-9.96,1.17-14.96,1.54l1.73,12.77,17.53-4.83c7.31-2.01,5.42-12.29-1.73-12.77-30.5-2.03-61.45,3.7-91.7-2.13v12.54c5.03-1.67,10.1-1.74,14.97,.56l3.28-12.11c-9.61,.47-19.09-.14-28.53-2.03l-1.73,12.77c21.45,0,42.76-2.45,64.03-4.96,9.88-1.17,19.79-2.32,29.57-4.21,4.59-.89,8.92-1.84,13.6-2.04,4.12-.17,7.62-.88,10.64-3.89,5.51-5.49-1.44-13.17-7.88-10.21l-3,1.38c-7.6,3.5-.99,14.68,6.56,11.23l2.63-1.2-6.56-11.23c-5.06,2.52-7.71,9.1-3.21,13.56,2.12,2.1,4.95,2.55,7.8,1.93,1.55-.34,2.98-1.17,4.44-1.76,.75-.3,2.33-.84,2.19-.92l1.55-11.88c-19.79,7.71-40.57,10.55-61.71,8.6-10.24-.94-20.43-2.71-30.49-4.79-5.12-1.06-10.21-2.26-15.24-3.69-4.12-1.17-11.13-2.14-14.13-5.36-3.66-3.94-11.55-1.05-11.1,4.6,.49,6.1,.98,12.31,2.59,18.24,.69,2.53,2.37,5.25,2.07,7.84-.19,.79-.43,1.56-.71,2.32l2.19-.84c.14-.29-1.13-2.18-1.29-2.57l-11.88,5.01c1.43,3.29,3.3,6.03,5.53,8.83,4.65,5.86,13.88-1.66,10.21-7.88-1.54-2.6-2.71-5.34-3.08-8.38l-9.78,5.61c3.32,1.98,5.39,4.38,7.11,7.83,3.77,7.55,14.68,.94,11.23-6.56-2.96-6.42-4.25-13.23-4.21-20.27,.05-8.37-12.95-8.38-13,0h0Z"/><path class="c" d="M227.12,220.12c-3.64,3.7-6.88,7.71-9.81,11.98l11.23,6.56c2.96-6.62,5.93-13.46,10.6-19.08l-10.86-6.32-5.06,16.66c-1.98,6.52,6.25,10.47,10.86,6.32,4.25-3.81,5.39-9.16,8.77-13.52,.71-.92,1.53-1.79,2.43-2.53,.1-.08,2.64-1.79,1.88-1.51,2.8-1.04,4.97-.29,7.09-2.97l-11.1-4.6c.22,9.01-1.63,17.91-6.18,25.77-4.5,7.77-12.4,11.5-19.79,16.08l9.78,5.61c-.54-7.64,9.5-14.91,15.4-18.08l-6.56-11.23c-5.05,3.42-10.33,6.3-15.94,8.68l7.88,10.21c4.23-4.08,8.64-7.95,13.35-11.47l-8.89-8.89c-1.35,1.85-3.05,3.03-5.03,4.09-7.37,3.96-.81,15.19,6.56,11.23,4.01-2.16,7.03-5.1,9.69-8.76,3.73-5.13-3.75-12.74-8.89-8.89-5.6,4.19-10.95,8.64-15.98,13.51-5.73,5.54,1.53,12.9,7.88,10.21,5.61-2.38,10.89-5.25,15.94-8.68,6.88-4.67,.88-15.22-6.56-11.23-9.95,5.35-22.72,16.88-21.84,29.3,.33,4.71,5.33,8.37,9.78,5.61,9.39-5.82,18.75-10.88,24.46-20.75,5.64-9.77,8.23-21.09,7.95-32.33-.12-5.09-7.39-9.27-11.1-4.6,2.48-.76,2.83-1,1.05-.74l-1.73,.23c-1.19,.29-2.39,.84-3.45,1.44-2.55,1.44-4.94,3.42-6.89,5.6-3.75,4.17-5.04,10.32-9.15,14.01l10.86,6.32,5.06-16.66c1.81-5.95-6.63-11.41-10.86-6.32-5.49,6.59-9.16,13.92-12.64,21.71-3.39,7.58,6.42,13.57,11.23,6.56,2.32-3.38,4.9-6.43,7.78-9.35,5.87-5.97-3.31-15.17-9.19-9.19h0Z"/><path class="c" d="M90.38,268.59c11.85,9.36,26.07,11.71,40.78,12.75,6.86,.49,8.25-8.82,3.28-12.11-3.77-2.5-7.95-4.47-12.36-5.53-1.66-.4-10.87-.84-11.05-1.77l-6.27,8.23c11.08-.38,22.1,.56,33.1,1.82,11.11,1.28,22.09,2.93,33.29,1.74,21.54-2.29,43.39-6.73,63.52-14.82l-5.01-11.88c-2.86,2.16-4.46,5.64-7.25,7.65-3.29,2.36-9,3.13-12.86,4.19-9.02,2.49-18.24,4.38-27.54,5.49s-18.61,1.54-27.93,1.32c-9.94-.23-19.87-2.29-29.78-2.16-4.88,.06-8.16,5.49-5.61,9.78,4.8,8.1,12.57,11,21.65,10.57,10.16-.48,19.93,1.51,30.09-.14,9.25-1.5,18.75-3.4,27.79-5.92,7.62-2.13,15.14-5.58,20.09-11.96,2.17-2.79,2.67-6.46,0-9.19-2.22-2.27-7.04-2.77-9.19,0-7.96,10.26-24.65,11.02-36.41,13.45-8.01,1.65-15.26,1.47-23.35,.87-6.49-.48-15.5,2.4-19.44-4.24l-5.61,9.78c10.23-.13,20.46,1.99,30.72,2.18s20.52-.45,30.7-1.81,19.55-3.26,29.09-5.99c4.5-1.29,9.44-2.45,13.57-4.69,3.63-1.97,4.8-5.65,7.85-7.96,2.61-1.98,4.02-4.89,2.66-8.12-1.14-2.7-4.66-4.97-7.67-3.76-19.47,7.82-40.93,12.66-61.84,14.53-10.58,.95-21.04-.71-31.53-1.92-11-1.26-22.02-2.21-33.1-1.82-4.47,.15-7.07,4.01-6.27,8.23,1.13,5.9,6.29,9.09,11.89,9.88,6.57,.93,11.79,1.4,17.5,5.19l3.28-12.11c-10.78-.77-22.79-2-31.58-8.94-6.5-5.13-15.76,4.01-9.19,9.19h0Z"/></g></svg>