<?xml version="1.0" encoding="UTF-8"?><svg id="a" xmlns="http://www.w3.org/2000/svg" viewBox="0 0 381.83 588.15"><defs><style>.c{fill:#231f20;}</style></defs><g id="b"><path class="c" d="M129.26,166.36c-10.94-1.97-22.57-1.18-32.52,4.1-8.89,4.71-15.93,13.43-17.85,23.4s1.45,19.09,8.16,26.13c6.46,6.78,15.22,11.16,24.01,14.06,21,6.93,46.22,8.08,65.5-4.18,8.29-5.27,15.19-12.74,19-21.86,2.03-4.86,3.2-10.22,2.52-15.49-.72-5.57-3.63-10.12-8.13-13.41-4.03-2.94-8.94-4.57-13.68-5.96-6.01-1.76-12.09-3.28-18.22-4.57s-12.29-2.51-18.51-3.05c-2.9-.25-5.79-.25-8.68,.15s-5.71,1.4-8.48,2.63c-2.11,.93-4.37,1.99-6.67,1.16-1.27-.46-2.74,.52-3.08,1.75-.38,1.39,.47,2.61,1.75,3.08,5.36,1.94,10.19-2.14,15.21-3.32s10.77-.48,16,.37c11.16,1.81,22.47,4.18,33.18,7.84,4.14,1.42,8.32,3.32,11.25,6.67s3.69,8.4,3.06,12.87c-1.26,8.86-6.7,16.81-13.32,22.59-16.01,13.96-38.64,14.89-58.46,10.36-8.76-2-17.35-5-24.78-10.16-6.47-4.49-11.9-11.03-13-19.04-1.23-8.95,3.22-17.85,9.83-23.66,7.41-6.52,17.72-8.8,27.37-8.41,2.43,.1,4.83,.37,7.22,.8,1.33,.24,2.69-.36,3.08-1.75,.33-1.21-.41-2.83-1.75-3.08h0Z"/><path class="c" d="M106.71,180.11c-3.23,.37-6.29,1.42-8.91,3.38s-5.37,4.74-4.78,8.26c.48,2.83,2.98,4.88,5.45,6.03,3,1.4,6.24,2.28,9.52,2.74,6.6,.92,13.33,.11,19.47-2.5,2.84-1.21,5.74-3.19,5.74-6.63s-2.66-6.03-5.38-7.48c-2.88-1.54-6.1-2.05-9.29-2.5-4.2-.59-8.39-1.18-12.59-1.77-1.34-.19-2.69,.33-3.08,1.75-.32,1.17,.4,2.89,1.75,3.08,5.51,.78,11.14,1.28,16.58,2.43,1.99,.42,4.1,1,5.66,2.39,.54,.48,1.35,1.28,1.36,2.08,0,.67-.7,1.07-1.23,1.38-4.14,2.44-9.55,3.26-14.28,3.18-2.49-.04-4.93-.36-7.34-.99-2.12-.55-4.53-1.2-6.28-2.58-.47-.37-1.18-1.11-1.17-1.58,.02-.96,1.39-2.04,2.02-2.6,1.85-1.65,4.33-2.78,6.8-3.07,1.34-.16,2.5-1.04,2.5-2.5,0-1.23-1.15-2.66-2.5-2.5h0Z"/></g></svg>