<?xml version="1.0" encoding="UTF-8"?><svg id="a" xmlns="http://www.w3.org/2000/svg" viewBox="0 0 381.83 588.15"><defs><style>.c{fill:#231f20;}</style></defs><g id="b"><path class="c" d="M92.52,173.26l.41,.05,1.1,.64c.43,.49,.57,1.06,.43,1.7-.7,1.27-1.4,1.67-2.12,1.2,.26,.24,.7,.41,1,.6l1.91,1.19,3.95,2.47,8.05,5.02c1.05,.65,2.5,.32,3.23-.64s.77-2.46-.2-3.28c-4.93-4.18-10.41-7.64-16.36-10.18-1.15-.49-2.42-.44-3.23,.64-.7,.93-.76,2.46,.2,3.28,4.93,4.23,10.4,7.78,16.33,10.44l1.93-4.57-1.81-.48c-1.26-.34-2.77,.42-3.08,1.75s.39,2.72,1.75,3.08l1.81,.48c1.21,.32,2.47-.31,2.95-1.45,.44-1.04,.11-2.61-1.02-3.12-5.57-2.5-10.83-5.81-15.31-9.66l-3.03,3.93c5.56,2.37,10.9,5.62,15.35,9.4l3.03-3.93-11.73-7.32c-1.98-1.24-4.47-3.42-6.92-2.11-2.67,1.43-1.76,5.91,1.38,5.88,1.31-.01,2.56-1.14,2.5-2.5s-1.1-2.51-2.5-2.5h0Z"/><path class="c" d="M175.95,180.89c-5.46,.86-10.85,2.11-16.14,3.72-3.07,.94-1.79,5.66,1.33,4.82,7.56-2.02,14.99-4.47,22.26-7.34,2.97-1.17,1.88-5.44-1.33-4.82l-2.64,.51c-1.33,.25-2.08,1.85-1.75,3.08,.38,1.39,1.74,2,3.08,1.75l2.64-.51-1.33-4.82c-7.27,2.87-14.7,5.32-22.26,7.34l1.33,4.82c5.29-1.62,10.68-2.86,16.14-3.72,1.33-.21,2.08-1.88,1.75-3.08-.39-1.42-1.74-1.96-3.08-1.75h0Z"/><path class="c" d="M128.89,230.26c-.54-5.73,4.99-10.97,10.67-9.33,2.68,.77,4.84,2.84,6.28,5.18,.8,1.3,1.4,2.65,1.82,4.12,.2,.71,.39,1.44,.48,2.17,.04,.31,.02,.61,.04,.92,0-.17-.04-.1-.09,.22,.1-.61,.64-.83,1.63-.68-1.32-.28-2.7,.39-3.08,1.75-.34,1.24,.42,2.8,1.75,3.08,2.26,.47,4.05-.92,4.61-3.1,.44-1.73,.02-3.66-.42-5.35-.91-3.42-2.7-6.7-5.2-9.2s-5.71-4.11-9.24-4.4-7.22,1.26-9.85,3.7c-2.95,2.75-4.78,6.87-4.39,10.92,.13,1.34,1.06,2.5,2.5,2.5,1.25,0,2.63-1.15,2.5-2.5h0Z"/><path class="c" d="M99.63,196.83c3.22,0,3.22-5,0-5s-3.22,5,0,5h0Z"/><path class="c" d="M173.75,201.77c3.22,0,3.22-5,0-5s-3.22,5,0,5h0Z"/><path class="c" d="M206.72,176.79c.08,.89,.15,1.77,.17,2.66,.01,.4,0,.81,0,1.21-.01,.24-.03,.48-.05,.72-.04,.47,.04-.1-.02,.17-.09,.4-.16,.8-.28,1.19-.05,.15-.1,.3-.15,.45-.19,.5,.04,.05,0,.01,.05,.05-.44,.83-.49,.91-.08,.13-.17,.27-.25,.4-.07,.1-.46,.55-.06,.1-.44,.5-.9,.95-1.39,1.41-.22,.2,.37-.25-.02,.01-.16,.11-.31,.22-.47,.32-.27,.17-.54,.33-.82,.47-.07,.03-.44,.26-.51,.24,.18,.04,.39-.15-.02,0-.32,.12-.66,.21-.99,.29-.15,.04-.31,.07-.46,.09-.55,.1-.02-.05,.01,0-.02-.04-1.03,.04-1.13,.04-1.31-.03-2.56,1.17-2.5,2.5s1.1,2.47,2.5,2.5c3.52,.07,7.1-1.59,9.33-4.33,1.17-1.44,2.07-3.07,2.45-4.9,.44-2.14,.33-4.28,.15-6.44-.11-1.3-1.07-2.56-2.5-2.5-1.26,.06-2.62,1.1-2.5,2.5h0Z"/><path class="c" d="M208.13,196.37c.58-.24,1.16-.4,1.78-.52,.51-.1-.54,.04-.06,.01,.15,0,.31-.02,.46-.03,.31-.01,.61,0,.92,.02,.15,.01,.31,.05,.46,.05-.67,.03-.28-.04-.06,0,.3,.06,.61,.13,.9,.22,.21,.06,.68,.33,.88,.31-.36-.15-.41-.18-.17-.07l.14,.07c.16,.08,.33,.16,.49,.25,.27,.15,.54,.31,.8,.48,.13,.09,.25,.19,.38,.27,.19,.12-.43-.38-.02,0,.23,.21,.46,.41,.68,.63,.11,.11,.21,.22,.32,.34,.08,.09,.33,.51,.15,.16s.07,.1,.12,.18c.09,.13,.17,.26,.25,.39,.16,.26,.3,.54,.44,.81,.25,.5-.06-.25-.01-.03,.03,.15,.11,.29,.15,.44,.1,.32,.17,.65,.23,.98,.23,1.29,1.87,2.14,3.08,1.75,1.39-.45,1.99-1.69,1.75-3.08-1.17-6.55-9.21-11.03-15.39-8.45-.63,.26-1.13,.53-1.49,1.15-.31,.54-.45,1.33-.25,1.93,.37,1.15,1.78,2.29,3.08,1.75h0Z"/><path class="c" d="M217.89,180.22c-1.46,2.97-1.23,6.38,.39,9.24s4.45,4.76,7.72,5.02c1.31,.11,2.56-1.23,2.5-2.5-.06-1.44-1.1-2.39-2.5-2.5-.6-.05,.25,.06,.08,.02-.12-.03-.25-.05-.38-.08-.27-.06-.53-.15-.79-.24-.41-.14,.55,.27,.13,.05-.11-.06-.23-.11-.34-.17-.22-.12-.44-.26-.65-.4-.07-.05-.14-.1-.21-.15,.32,.25,.4,.31,.25,.19-.09-.09-.2-.17-.29-.25-.21-.19-.4-.39-.59-.6-.08-.09-.16-.21-.25-.3,.46,.44,.22,.29,.08,.09-.16-.23-.31-.47-.45-.71s-.23-.52-.38-.75l.15,.36c-.03-.08-.06-.16-.09-.24-.04-.12-.09-.24-.13-.37-.08-.25-.14-.5-.2-.75-.03-.12-.04-.26-.07-.38,.2,.73,.04,.34,.02,.09-.02-.28-.03-.55-.02-.83,0-.13,.02-.25,.03-.38,.03-.48-.12,.63-.02,.16,.05-.25,.1-.5,.18-.74,.04-.12,.08-.24,.12-.36,.14-.41-.28,.6,0,0,.58-1.17,.35-2.76-.9-3.42-1.13-.6-2.8-.36-3.42,.9h0Z"/></g></svg>