<?xml version="1.0" encoding="UTF-8"?><svg id="a" xmlns="http://www.w3.org/2000/svg" viewBox="0 0 381.83 588.15"><defs><style>.c{fill:#231f20;}</style></defs><g id="b"><g><path class="c" d="M128.82,286.27l-.74,14.12c-.07,1.31,1.2,2.56,2.5,2.5,1.41-.06,2.43-1.1,2.5-2.5l.74-14.12c.07-1.31-1.2-2.56-2.5-2.5-1.41,.06-2.43,1.1-2.5,2.5h0Z"/><path class="c" d="M158.9,288.36c.5,5.42,.37,10.96-.49,16.27-.22,1.33,.35,2.69,1.75,3.08,1.19,.33,2.86-.41,3.08-1.75,.95-5.83,1.22-11.72,.67-17.6-.12-1.34-1.06-2.5-2.5-2.5-1.26,0-2.63,1.15-2.5,2.5h0Z"/><path class="c" d="M127.81,300.25c-12.24,.7-24.72,1.53-36.48,5.24-5.81,1.83-11.46,4.38-16.44,7.92-5.49,3.9-9.94,8.84-13.95,14.21-8.28,11.08-15.58,23.03-22.57,34.95s-13.72,24.56-19.81,37.24c-6.81,14.2-12.97,28.71-18.45,43.47-.37,.99,.24,2.34,1.15,2.82,4.8,2.54,10.4,1.98,15.13-.44s8.29-6.74,11.5-10.92c6.76-8.79,13.23-17.81,19.82-26.74,6.52-8.83,13.15-17.58,20.22-25.98,3.54-4.2,7.18-8.32,10.97-12.29,1.95-2.05,3.94-4.06,5.97-6.04,1.8-1.75,3.59-3.76,5.72-5.11,1.25-.79,3.19-1.82,3.79,.14,.64,2.09,.09,4.84-.05,6.98-.34,5.36-.9,10.71-1.67,16.02-1.55,10.61-3.84,21.1-6.54,31.48-5.49,21.1-12.64,41.71-18.87,62.59-6.17,20.65-11.45,41.69-13.2,63.23-.42,5.17-.8,10.45-.56,15.64,.22,4.72,1.6,9.96,6.2,12.22,4.21,2.07,9.4,.99,13.05-1.75,4.2-3.16,6.27-8.2,7.73-13.08,3.53-11.81,6.59-23.78,9.88-35.66s6.66-24.17,10.02-36.25c1.22-4.38,2.66-8.89,7.65-9.93,2.29-.48,4.78-.21,7.08,.08,2.9,.36,5.79,.82,8.68,1.23,12.36,1.76,24.72,3.51,37.08,5.27l18.4,2.61c2.52,.36,5.32,.57,7.47,2.06,1.95,1.35,3.24,3.5,4.43,5.5,5.08,8.57,8.38,18,10.91,27.6,5.16,19.56,7.19,40.01,14.71,58.91,1.84,4.63,3.98,9.13,6.52,13.42,.53,.9,1.78,1.51,2.82,1.15,8.21-2.87,9.92-12.2,10.64-19.81,.94-9.86,.99-19.78,.42-29.66-1.17-20.07-4.85-39.91-8.88-59.57-4.02-19.64-8.44-39.22-11.17-59.09-1.34-9.75-2.22-19.57-2.42-29.41-.1-4.98-.03-9.96,.26-14.93,.14-2.5,.34-4.99,.59-7.47,.2-2.01,.37-4.04,1-5.96,.38-1.14,1.06-2.62,2.41-2.77,1.87-.21,3.58,1.81,4.63,3.07,2.88,3.47,4.86,7.68,6.39,11.89s2.76,8.86,4.02,13.33c1.43,5.06,2.97,10.09,4.61,15.09,6.54,19.85,14.73,39.19,24.51,57.65,1.98,3.73,5.07,8.03,9.62,8.53,5.26,.58,7.96-4.5,9.45-8.72,3.32-9.4,1.64-19.74-.14-29.27-3.85-20.58-9.77-40.77-17.62-60.18-3.8-9.38-7.8-18.86-13-27.56-5.16-8.63-11.86-15.74-20.33-21.18s-17.8-9.51-27.25-12.72-19.71-5.48-29.87-6.64c-4.93-.56-9.88-.85-14.83-.9-3.22-.03-3.22,4.97,0,5,19.9,.17,39.75,4.63,57.74,13.18,8.59,4.08,16.94,9.01,23.33,16.18,6.38,7.17,10.62,16.01,14.56,24.68,8.49,18.71,15.07,38.29,19.71,58.3,1.17,5.05,2.22,10.13,3.14,15.23,.83,4.64,1.5,9.33,1.46,14.05s-.73,9.35-2.96,13.38c-.72,1.3-1.8,2.68-3.45,2.09s-2.96-2.28-3.89-3.69c-2.72-4.12-4.75-8.86-6.91-13.3s-4.43-9.35-6.49-14.09c-4.04-9.29-7.68-18.75-10.93-28.34-1.66-4.9-3.22-9.83-4.67-14.8-1.34-4.57-2.51-9.19-3.98-13.73s-3.08-8.63-5.46-12.52c-2.21-3.63-5.36-8.11-9.87-8.88s-7.74,2.77-8.9,6.85c-.58,2.03-.75,4.17-.97,6.26-.26,2.49-.47,4.98-.62,7.47-.59,9.7-.36,19.43,.42,29.11,1.58,19.64,5.37,39.02,9.36,58.28,3.98,19.23,8.25,38.45,10.71,57.96,1.22,9.66,2,19.38,2.07,29.12,.04,4.82-.1,9.65-.44,14.46-.29,4.12-.55,8.33-1.8,12.29-.9,2.87-2.51,5.89-5.52,6.94l2.82,1.15c-10.41-17.54-13.44-38.07-17.6-57.72-2.11-9.97-4.52-19.93-8.33-29.41-1.88-4.68-4.05-9.27-6.69-13.58-1.31-2.15-2.81-4.24-4.8-5.81-2.15-1.69-4.67-2.51-7.35-2.94-12.33-1.99-24.75-3.53-37.12-5.28l-18.4-2.61-9.2-1.31c-2.56-.36-5.15-.77-7.74-.72-5.33,.11-10,2.39-12.48,7.26-1.15,2.25-1.84,4.68-2.51,7.11-.85,3.09-1.71,6.18-2.56,9.27l-9.94,35.98-5.05,18.26c-1.42,5.12-2.43,10.78-5.37,15.3-2.04,3.15-6.29,5.98-10.16,4.43-4.07-1.63-3.89-7.36-3.85-10.95,.24-21.56,4.66-42.77,10.41-63.47s13.03-41.6,19.03-62.56,10.78-42.14,11.64-63.83c.09-2.28-.02-4.74-1.39-6.66-1.61-2.25-4.37-2.99-6.99-2.28-2.47,.66-4.54,2.34-6.37,4.04-2.02,1.87-4,3.78-5.94,5.73-7.81,7.85-15.01,16.3-21.87,24.99-6.92,8.77-13.52,17.78-20.12,26.78-3.26,4.45-6.53,8.9-9.85,13.31-3.11,4.13-6.15,8.66-10.29,11.85-3.57,2.75-8.7,4.48-12.94,2.24l1.15,2.82c9.52-25.6,21.12-50.41,34.65-74.14,6.78-11.9,14.04-23.54,21.78-34.84,3.62-5.29,7.45-10.49,12.23-14.81,4.32-3.91,9.47-6.92,14.89-9.03,12.5-4.86,26.08-5.77,39.33-6.53,3.2-.18,3.22-5.19,0-5h0Z"/></g></g></svg>