<?xml version="1.0" encoding="UTF-8"?><svg id="a" xmlns="http://www.w3.org/2000/svg" viewBox="0 0 381.83 588.15"><defs><style>.c{fill:#231f20;}</style></defs><g id="b"><path class="c" d="M80.85,128.32c-4.2-2.81-10.13-2.32-13.83,1.11s-4.35,9.08-2.13,13.43l2.16-3.76c-4.93-.64-8.93,3.81-9.76,8.33-.98,5.37,2.05,10.11,6.97,12.23,2.48,1.07,5.23,1.52,7.92,1.34,3.03-.21,5.71-1.25,8.56-2.23s5.17-1.43,7.8-.03,4.89,3.26,7.8,3.99c3.3,.82,6.84,.53,10.22,.72s6.82,.54,10.19,1.08,6.85,1.28,10.22,2.17,6.59,2.27,10,2.69c1.58,.19,3.2,.11,4.7-.46s2.75-1.67,4.23-2.34c2.25-1.03,4.59,.24,6.53,1.39,2.61,1.54,5.04,3.32,7.9,4.4s5.97,1.41,8.97,1.22c3.55-.23,7.04-1.1,10.35-2.4,1.66-.65,3.26-1.41,4.86-2.18,1.48-.72,3-1.36,4.68-1.26,3.33,.2,6.31,2.06,9.74,1.69,3.12-.34,6.04-1.93,6.94-5.11h-4.82c2.71,6.83,9.69,11.34,17.05,11.14,4-.11,7.31-1.8,10.64-3.88,2.35-1.47,6.04-4.41,8.85-3.2,1.68,.72,2.77,2.41,4.48,3.16,2.11,.92,4.34,.34,5.91-1.32,1.09-1.16,2.03-2.35,3.31-3.33s2.73-1.91,4.06-2.91c2.96-2.24,5.43-4.95,5.68-8.83,.27-4.28-2.76-7.9-5.95-10.36-3.98-3.07-8.8-5.24-13.57-6.78s-10.23-2.41-15.46-2.44c-3.22-.02-3.22,4.98,0,5,8.01,.05,15.93,2.15,22.88,6.15,2.63,1.51,5.92,3.56,6.88,6.64,.85,2.74-.86,4.61-2.87,6.21-2.29,1.83-5,3.3-7.07,5.47-.48,.51-1.02,1.06-1.41,1.64-.29,.42-.21,.38-.57,.18-1.43-.77-2.43-2.16-3.91-2.88-7.17-3.45-12.68,4.1-18.92,5.98-5.61,1.69-12.89-1.24-15.17-6.99-.87-2.18-4.1-2.55-4.82,0-.14,.48-.46,.84-.97,1.08-.92,.43-1.89,.49-2.89,.4-2.74-.27-5.67-1.82-8.66-1.74s-5.72,1.61-8.45,2.88c-2.51,1.16-5.17,2.04-7.88,2.58s-5.36,.65-7.96,.1-4.92-1.92-7.23-3.38-4.52-2.91-7.1-3.46c-2.89-.62-5.43,.06-7.89,1.62-1.05,.67-2.02,1.35-3.29,1.41-1.4,.08-2.79-.34-4.12-.75-3.08-.94-6.15-1.88-9.29-2.61-6.3-1.47-12.76-2.38-19.22-2.71-2.89-.15-6.03,.19-8.84-.63-2.51-.73-4.52-2.62-6.87-3.72-2.88-1.36-5.81-1.55-8.9-.77-2.69,.68-5.19,1.99-7.92,2.51-3.89,.75-9.78-.39-11.2-4.41-.63-1.77-.29-3.65,.71-5.28s2.11-2.27,3.97-2.03c2.03,.26,2.92-2.28,2.16-3.76-1.22-2.39-.64-5.57,1.35-7.38,2.15-1.95,5.44-1.89,7.77-.33,2.68,1.79,5.19-2.53,2.52-4.32h0Z"/><path class="c" d="M84.83,129.55c-.29-.46-.64-.92-1.06-1.26-.29-.23-.58-.47-.89-.66s-.69-.33-1.04-.47c-.52-.2-1.08-.28-1.63-.32-.18-.02-.36-.02-.55,0-.38,.04-.78,.08-1.15,.18-.6,.16-1.18,.61-1.49,1.15-.18,.29-.28,.6-.3,.93-.07,.33-.06,.66,.04,1,.2,.6,.57,1.19,1.15,1.49s1.26,.43,1.93,.25c.13-.03,.26-.06,.39-.08l-.66,.09c.26-.03,.53-.03,.79,0l-.66-.09c.3,.04,.58,.12,.86,.24l-.6-.25c.26,.11,.5,.25,.73,.42l-.51-.39c.21,.16,.4,.35,.56,.56l-.39-.51c.06,.08,.12,.16,.17,.25,.34,.54,.87,.98,1.49,1.15,.33,.1,.66,.12,1,.04,.33-.02,.64-.11,.93-.3,.53-.34,1-.86,1.15-1.49s.11-1.35-.25-1.93h0Z"/><path class="c" d="M64.81,132.48l3.78,3.14,1.86,1.55c.6,.5,1.3,.97,1.81,1.56l-.39-.51c.08,.1,.13,.19,.18,.31l-.25-.6,.03,.11-.09-.66c.02,.07,.02,.15,0,.22l.09-.66-.03,.11,.25-.6-.03,.06,.39-.51-.04,.04,.51-.39-.05,.03,.6-.25s-.07,.03-.11,.03l.66-.09s-.08,0-.12,0l.66,.09s-.08-.02-.12-.04l.6,.25s-.07-.04-.11-.06l.51,.39s-.06-.05-.08-.08l.39,.51-.03-.04,.25,.6v-.04l.08,.66v-.04l-.09,.66v-.04l-.63,1.1,.03-.04-.51,.39,.05-.04c.54-.41,.96-.81,1.15-1.49,.16-.6,.09-1.4-.25-1.93s-.86-1-1.49-1.15-1.41-.15-1.93,.25c-.43,.33-.7,.49-.98,.97-.23,.39-.35,.85-.36,1.3,0,.73,.29,1.42,.81,1.93,.91,.91,2.41,1.15,3.53,.5,1.43-.82,1.69-2.6,1.01-3.99-.36-.74-1.01-1.23-1.63-1.74l-6.4-5.32c-.52-.43-1.07-.73-1.77-.73-.61,0-1.35,.27-1.77,.73-.85,.92-1.07,2.64,0,3.54h0Z"/><path class="c" d="M65.1,147.51c-4.67,1.36-9.18,3.3-13.36,5.78-1.13,.67-1.63,2.28-.9,3.42s2.22,1.61,3.42,.9c1.97-1.17,4-2.21,6.1-3.13,.11-.05,.21-.09,.32-.14-.24,.1-.23,.09,.05-.02,.29-.12,.57-.23,.86-.35,.5-.2,1.01-.39,1.52-.57,1.09-.39,2.2-.75,3.32-1.07,1.25-.36,2.17-1.78,1.75-3.08s-1.73-2.14-3.08-1.75h0Z"/><path class="c" d="M72.59,158.31l.96,7.66c.06,.44,.11,.87,.34,1.26,.28,.47,.7,.81,1.2,1.02,.43,.18,.84,.23,1.3,.17,.59-.08,.96-.32,1.44-.69l4.46-3.47c.47-.36,.73-1.21,.73-1.77,0-.61-.27-1.35-.73-1.77s-1.1-.76-1.77-.73l-.66,.09c-.42,.12-.79,.33-1.1,.64l-4.46,3.47,4.27,1.77-.96-7.66c-.09-.69-.22-1.26-.73-1.77-.43-.43-1.15-.76-1.77-.73s-1.32,.24-1.77,.73c-.42,.45-.81,1.13-.73,1.77h0Z"/><path class="c" d="M96.68,157.19c2.16,4.68,4.46,9.29,6.9,13.83,.62,1.15,2.31,1.61,3.42,.9,1.17-.76,1.56-2.19,.9-3.42-2.44-4.54-4.74-9.15-6.9-13.83-.55-1.19-2.36-1.58-3.42-.9-1.23,.79-1.49,2.15-.9,3.42h0Z"/><path class="c" d="M120.88,160.92c.59,.85,1.13,1.74,1.6,2.67,.12,.25,.24,.5,.36,.75,.06,.13,.11,.25,.17,.38-.12-.28-.12-.29-.01-.02,.17,.45,.34,.91,.49,1.37,.32,.99,.56,2,.73,3.03,.04,.23,.11,.6,.03,.16,.05,.27,.06,.55,.09,.83,.05,.55,.07,1.11,.08,1.66,.02,1.31,1.14,2.56,2.5,2.5s2.52-1.1,2.5-2.5c-.06-4.73-1.51-9.46-4.22-13.35-.75-1.07-2.22-1.67-3.42-.9-1.06,.69-1.7,2.27-.9,3.42h0Z"/><path class="c" d="M153.62,165.73l-5.06,5.54c-.44,.49-.73,1.1-.73,1.77,0,.61,.27,1.35,.73,1.77s1.1,.76,1.77,.73,1.32-.24,1.77-.73l5.06-5.54c.44-.49,.73-1.1,.73-1.77,0-.61-.27-1.35-.73-1.77s-1.1-.76-1.77-.73-1.32,.24-1.77,.73h0Z"/><path class="c" d="M180.99,169.64c.2,1.91,.68,3.65,1.5,5.39,.72,1.52,1.74,2.92,2.92,4.11,.92,.93,2.62,.99,3.54,0s.99-2.55,0-3.54c-.38-.38-.74-.79-1.07-1.22l.39,.51c-.68-.89-1.25-1.87-1.69-2.9l.25,.6c-.43-1.04-.73-2.12-.88-3.24l.09,.66c-.02-.12-.03-.25-.04-.37-.07-.68-.23-1.27-.73-1.77-.43-.43-1.15-.76-1.77-.73s-1.32,.24-1.77,.73c-.42,.46-.8,1.12-.73,1.77h0Z"/><path class="c" d="M212.58,161.3c-1.68,4.96-1.67,10.52,.03,15.47,.42,1.23,1.73,2.18,3.08,1.75,1.22-.4,2.2-1.75,1.75-3.08-.82-2.38-1.11-4.04-1.11-6.4s.27-4.02,1.08-6.41c.42-1.24-.48-2.79-1.75-3.08-1.39-.32-2.63,.42-3.08,1.75h0Z"/><path class="c" d="M234.78,160.82c.22,.26,.13,.13-.01-.07-.16-.22,.11,.46,0-.06-.09-.41-.05,.05,0,.07-.09-.04,.12-.84-.02-.14l-4.91-.66c-.26,3.87,.53,7.72,2.15,11.23,.76,1.64,1.88,3.13,3.45,4.07,1.91,1.15,4.06,1.03,5.76-.41,1-.85,.94-2.67,0-3.54-1.07-.98-2.47-.9-3.54,0l.23-.18c-.19,.1-.19,.11,.01,.02,.29-.21-.2,.01,.18-.05,.23-.02,.24-.03,.02-.02l.35,.06s-.28-.07-.32-.08c-.48-.11,.27,.17,.04,.02-.12-.08-.26-.15-.39-.23-.26-.16-.09,0,.06,.06-.13-.05-.26-.23-.35-.32-.12-.11-.22-.23-.33-.35-.19-.21-.08-.11,.03,.06-.16-.23-.32-.46-.45-.71-.16-.3-.31-.61-.45-.92,0,.01-.26-.6-.15-.34s-.14-.36-.13-.35c-.5-1.31-.84-2.66-1.08-4.04-.12-.73,.02,.28-.02-.14-.02-.19-.04-.39-.06-.58-.03-.35-.05-.7-.07-1.05-.03-.74-.01-1.47,.04-2.21,.08-1.24-1.02-2.3-2.17-2.46s-2.5,.57-2.74,1.79c-.37,1.9,.08,3.59,1.33,5.06,.85,1,2.67,.94,3.54,0,.98-1.06,.91-2.47,0-3.54h0Z"/><path class="c" d="M256.3,156.58c.11-.02,.22-.04,.33-.05-.39,.05-.44,.06-.17,.03,.19-.02,.39-.04,.58-.05,.42-.03,.83-.04,1.25-.03,.39,0,.78,.03,1.17,.07,.11,.01,.22,.02,.33,.04l-.33-.04s.6,.1,.66,.11c1.04,.2,2.21,.81,3.26,.51,.55-.15,1.02-.53,1.49-.84l1.19-.78c1.09-.72,1.66-2.24,.9-3.42-.7-1.09-2.25-1.67-3.42-.9l-2.08,1.37,1.93-.25c-2.73-.92-5.59-1.04-8.41-.59-.58,.09-1.21,.66-1.49,1.15-.31,.54-.45,1.33-.25,1.93s.57,1.19,1.15,1.49c.63,.33,1.23,.36,1.93,.25h0Z"/><path class="c" d="M241.12,141.39c.01-.15,.03-.3,.05-.45l-.09,.66c.11-.78,.32-1.54,.63-2.26l-.25,.6c.33-.76,.75-1.47,1.25-2.12l-.39,.51c.49-.62,1.04-1.18,1.66-1.66l-.51,.39c.6-.46,1.24-.84,1.93-1.14l-.6,.25c.07-.03,.14-.06,.21-.09,.63-.25,1.14-.54,1.49-1.15,.31-.54,.45-1.33,.25-1.93s-.57-1.19-1.15-1.49-1.32-.5-1.93-.25c-1.2,.49-2.22,1.06-3.24,1.87-.84,.66-1.51,1.45-2.16,2.3-1.3,1.73-1.97,3.83-2.17,5.96-.05,.6,.32,1.35,.73,1.77s1.15,.76,1.77,.73,1.32-.24,1.77-.73,.67-1.07,.73-1.77h0Z"/></g></svg>