<?xml version="1.0" encoding="UTF-8"?><svg id="a" xmlns="http://www.w3.org/2000/svg" viewBox="0 0 381.83 588.15"><defs><style>.c{fill:#231f20;}</style></defs><g id="b"><path class="c" d="M67.55,148.4c.63-10.13,1.72-20.23,3.38-30.24,1.28-7.75,3.01-15.48,5.79-22.85,2.62-6.95,6.32-13.64,11.58-18.94,5.71-5.76,13.01-9.27,20.89-10.95,8.36-1.78,17.06-1.57,25.53-.85,9.14,.78,18.55,1.76,27.24,4.81s15.9,8.6,22.76,14.33,12.98,11.72,18.75,18.28c5.72,6.51,10.92,13.46,15.57,20.77,2.34,3.69,4.54,7.47,6.59,11.32,.99,1.87,2.03,3.75,2.88,5.69,.47,1.07,.74,2.49,.71,3.84-.01,.41-.14,.87-.24,1.08-.03,.07-.24,.43,0,.05-.16,.26-.21,.02,0,.04-.13-.02-.19,.04-.11,.08,.2,.09-.41,.04,0,0-1.34,.12-2.5,1.06-2.5,2.5,0,1.26,1.15,2.63,2.5,2.5,4.19-.39,5.72-4.19,5.28-7.98-.49-4.17-2.91-7.97-4.88-11.6-4.43-8.18-9.55-15.96-15.24-23.32-5.64-7.3-11.85-14.15-18.59-20.45s-14.4-12.8-22.61-17.56c-8.97-5.2-18.93-7.17-29.1-8.42-9.13-1.12-18.39-1.96-27.58-1.14s-17.9,3.18-25.34,8.39c-6.82,4.78-12.02,11.41-15.72,18.83-3.71,7.45-6.08,15.5-7.76,23.63-2.04,9.91-3.3,20.03-4.18,30.11-.24,2.68-.43,5.37-.6,8.06-.2,3.21,4.8,3.2,5,0h0Z"/><path class="c" d="M60.07,146.26c-8.49-.28-17,1.76-24.47,5.8-1.77,.96-3.47,2.03-5.1,3.22-1.76,1.28-3.57,2.6-4.83,4.41s-1.49,4.28-.38,6.27c.96,1.72,2.71,2.89,4.45,3.72,15.9,7.57,34.02,8.7,51.36,8.09,8.83-.31,17.64-1.08,26.45-1.73,9.71-.72,19.44-1.21,29.17-1.74,19.04-1.02,38.15-2.21,56.92-5.77,17.26-3.27,34.31-8.6,49.65-17.27,1.92-1.09,3.81-2.23,5.67-3.42,2.7-1.73,.2-6.06-2.52-4.32-14.14,9.04-30,14.83-46.31,18.55-17.36,3.97-35.13,5.55-52.86,6.63-9.32,.57-18.64,.99-27.95,1.55-8.73,.52-17.44,1.26-26.17,1.86-16.45,1.13-33.37,1.74-49.43-2.64-3.9-1.06-7.78-2.37-11.44-4.11-.76-.36-2.71-1.17-2.74-2.2-.01-.62,.74-1.26,1.14-1.64,.69-.65,1.44-1.24,2.2-1.81,6.22-4.58,13.68-7.56,21.39-8.29,1.93-.18,3.87-.23,5.82-.17,3.22,.11,3.21-4.89,0-5h0Z"/><path class="c" d="M67.17,153.52c10.88,.07,21.36,3.17,31.65,6.42s21.4,6.81,32.65,8c11.95,1.27,24,.45,35.96-.36s23.27-1.7,34.83-3.29c12.83-1.76,25.55-4.44,37.77-8.79,1.54-.55,2.31-2.18,1.49-3.67l-2.59-4.75c-1.54-2.83-5.86-.31-4.32,2.52l2.59,4.75,1.49-3.67c-21.68,7.72-44.7,10.04-67.52,11.64-11.91,.84-23.9,1.8-35.83,.96-11.11-.78-21.65-3.86-32.21-7.22-11.69-3.71-23.56-7.47-35.95-7.54-3.22-.02-3.22,4.98,0,5h0Z"/><path class="c" d="M127.12,91.39c-15.76-2.22-35.92,.57-42.27,17.57-3.09,8.27-1.57,18.05,2.91,25.52,4.76,7.92,12.76,13.33,21.33,16.38,9.75,3.47,20.36,3.69,30.55,2.56,5.34-.59,10.67-1.43,15.93-2.54,4.43-.93,8.84-2.2,12.87-4.31,8.13-4.26,13.45-12.62,13.04-21.92s-6.64-16.54-13.97-21.76c-3.76-2.68-7.82-4.97-11.88-7.16-4.49-2.42-9.15-4.64-14.07-6.05-8.47-2.42-18.35-2.19-25.83,2.95-1.77,1.22-3.37,2.64-4.71,4.33-.84,1.06-1.03,2.5,0,3.54,.87,.87,2.69,1.06,3.54,0,4.75-6,12.62-7.95,19.98-7.18,8.91,.94,17.21,5.75,24.77,10.23,6.32,3.75,13.33,8.47,16.02,15.67s.43,15.66-5.6,20.58c-6.37,5.19-15.44,6.4-23.28,7.67-9.65,1.56-19.74,2.42-29.39,.41-7.87-1.64-15.51-5.12-21.14-10.97s-8.3-13.35-7.56-21.15c.68-7.19,5.14-13.12,11.45-16.41s13.83-4.01,20.86-3.64c1.71,.09,3.42,.24,5.11,.48,1.34,.19,2.69-.33,3.08-1.75,.32-1.17-.4-2.89-1.75-3.08h0Z"/><path class="c" d="M110.6,136.43l7.03-18.41,3.43-8.97c.13-.33,.42-.81,.44-1.15l.18-.46-1.66,.55c0,.12,.61,.97,.69,1.12,.7,1.29,1.43,2.55,2.22,3.78,1.62,2.51,3.44,4.91,5.43,7.14s4.48,5.19,7.78,3.39c1.19-.65,2.25-1.68,3.31-2.52l4.01-3.17,1.72-1.36c.29-.23,1.5-.88,1.64-1.26l-1.12-.34h.03c-.02,.15,.51,.83,.6,1,.24,.5,.39,1.04,.52,1.58,.69,2.9,.22,6.1,.08,9.04l-.57,11.45c-.16,3.22,4.84,3.21,5,0l.54-10.95c.16-3.24,.47-6.49-.02-9.72-.42-2.78-1.92-6.98-5.3-7.06-1.75-.04-3.09,1.26-4.36,2.26l-4.39,3.47c-1.2,.95-2.36,1.96-3.6,2.85l-.3,.21c-.55,.26-.4,.32,.47,.18,0-.07-.66-.62-.71-.68-.62-.62-1.21-1.27-1.8-1.93-2.1-2.36-3.95-4.91-5.57-7.62-1.45-2.42-3.19-6.78-6.85-5.65-1.78,.55-2.37,2.23-2.97,3.8l-2.02,5.29-8.7,22.78c-.48,1.26,.53,2.74,1.75,3.08,1.41,.39,2.59-.48,3.08-1.75h0Z"/></g></svg>