<?xml version="1.0" encoding="UTF-8"?><svg id="a" xmlns="http://www.w3.org/2000/svg" viewBox="0 0 381.83 588.15"><defs><style>.c{fill:#231f20;}</style></defs><g id="b"><path class="c" d="M68.78,146.63c-3.72-2.3-7.8-4.68-12.31-4.66-3.79,.02-7.97,1.79-9.73,5.33-4.26,8.6,5.32,15.89,11.91,19.34,7.61,3.99,16.02,6.01,24.46,7.33s17.7,2.17,26.52,3.49c19.53,2.92,38.86,7.04,58.43,9.66s38.52,3.59,57.64,.45c7.57-1.24,15.04-3.25,21.83-6.9,6.12-3.29,11.85-8.13,14.7-14.61,.72-1.63,1.29-3.29,1.65-5.04,.21-.98-.11-2.37-1.15-2.82-6.13-2.65-12.58-1.73-18.86-.11s-12.34,3.26-18.62,4.48c-12.69,2.45-25.59,3.64-38.51,3.81-26.13,.36-52.16-3.4-77.54-9.42-14.42-3.42-28.65-7.58-42.72-12.22-3.06-1.01-4.38,3.82-1.33,4.82,24.89,8.21,50.35,14.94,76.31,18.68,25.81,3.71,52.06,4.45,77.88,.41,7.12-1.11,14.18-2.6,21.15-4.47,6.14-1.65,13.49-4.37,19.72-1.67l-1.15-2.82c-2.73,13.02-16.75,19.19-28.47,21.86-17.39,3.97-35.68,3.54-53.32,1.68s-36.2-5.59-54.25-8.65c-8.89-1.51-17.8-2.82-26.75-3.89-7.88-.94-15.8-1.86-23.47-3.95-3.75-1.02-7.43-2.3-10.91-4.05s-6.72-3.64-9.11-6.54c-1.8-2.18-3.21-5.65-.6-7.81,2.47-2.04,6.02-1.51,8.74-.36,1.87,.79,3.6,1.89,5.32,2.95,2.75,1.69,5.26-2.63,2.52-4.32h0Z"/><path class="c" d="M71.54,144.79c6.01-20.18,19.72-37.32,36.62-49.6,19.2-13.95,42.09-21.51,65.47-24.62,12.78-1.7,25.71-2.13,38.59-1.79,12.98,.34,26.02,1.29,38.86,3.29,23.81,3.71,47.66,11.48,66.34,27.22,4.28,3.61,8.25,7.59,11.79,11.92s6.22,8.71,8.94,13.33c5.11,8.71,10.05,18.13,18.07,24.57,1.97,1.59,4.06,2.98,6.33,4.12l1.26-4.66c-7.79-.49-14.59,5.36-17,12.48s.74,15.07,7.29,19.03c6,3.62,14.31,4.04,20.13-.18,6.16-4.45,8.62-12.4,7.25-19.72-1.58-8.47-10.87-17.25-19.74-12.45-2.83,1.53-.31,5.85,2.52,4.32,2.62-1.42,5.79-.24,7.96,1.5s3.52,4.2,4.19,6.83c1.29,5.04-.04,10.88-3.89,14.49-7.63,7.15-23.17,.86-21.49-10.21,.93-6.11,6.41-11.5,12.77-11.11,2.44,.15,3.45-3.56,1.26-4.66-9.38-4.71-14.96-13.83-20.09-22.6-2.66-4.55-5.26-9.16-8.3-13.48-3.3-4.68-7.05-9.05-11.19-13.02-17.78-17.07-41.3-26.55-65.2-31.2-13.25-2.58-26.74-3.87-40.21-4.54-13.16-.66-26.38-.58-39.5,.7-24.46,2.38-48.82,8.97-69.6,22.44-18.2,11.8-33.49,28.42-41.63,48.7-.99,2.48-1.86,5-2.62,7.55-.92,3.09,3.9,4.41,4.82,1.33h0Z"/><path class="c" d="M345.34,167.95c-7.14-.86-14.21-2.42-21.08-4.56s-13.48-5.05-19.98-8.24c-3.22-1.58-6.47-3.13-9.86-4.31-3.61-1.27-7.37-1.96-11.17-2.36-6.39-.67-13.06-.75-19.42,.23s-12.36,3.6-15.96,9.07c-1.77,2.7,2.55,5.2,4.32,2.52,2.79-4.24,7.83-5.94,12.62-6.72,5.92-.96,12.27-.73,18.21-.13,7.04,.72,13.27,3.33,19.56,6.43s12.75,5.92,19.47,8.06c7.59,2.43,15.38,4.06,23.29,5.01,1.34,.16,2.5-1.27,2.5-2.5,0-1.49-1.15-2.34-2.5-2.5h0Z"/></g></svg>