<?xml version="1.0" encoding="UTF-8"?><svg id="a" xmlns="http://www.w3.org/2000/svg" viewBox="0 0 381.83 588.15"><defs><style>.c{fill:#231f20;}</style></defs><g id="b"><path class="c" d="M57.28,131.82c-5.58-1.16-11.76-.97-17.03,1.36s-6.54,7.9-4.13,12.77,7.74,7.09,12.12,9.37c4.93,2.57,9.97,4.89,15.1,7.02,20.78,8.62,42.96,13.27,65.41,14.19,11.98,.49,23.97,.08,35.93-.42s23.93-1.02,35.88-1.73,24.04-1.64,36.02-3.01c11.15-1.28,22.59-2.51,33.4-5.65,5.1-1.48,10.11-3.48,14.63-6.28,4.1-2.55,8.81-7.33,6.44-12.57-2.09-4.62-8.57-5.54-12.98-6.38-5.72-1.09-11.58-1.53-17.4-1.21-2.87,.16-5.72,.5-8.55,.98-1.33,.22-2.08,1.87-1.75,3.08,.39,1.41,1.74,1.97,3.08,1.75,5.15-.87,10.41-1.1,15.62-.75s10.24,1.08,14.93,2.81c1.19,.44,2.77,1.22,2.7,2.7-.09,1.76-1.97,3.44-3.26,4.4-3.86,2.86-8.58,4.74-13.13,6.17-9.78,3.08-20.16,4.33-30.31,5.57-11.06,1.35-22.17,2.3-33.29,3.03s-22.44,1.26-33.66,1.75-22.31,1.03-33.47,1.01-21.57-.59-32.23-2.24c-10.1-1.57-20.08-3.98-29.78-7.19s-19.02-7.19-28-11.95c-3.46-1.83-8.72-3.98-9.57-8.31-.89-4.55,4.99-5.51,8.3-5.83,2.56-.25,5.13-.13,7.65,.39,1.32,.27,2.7-.39,3.08-1.75,.34-1.24-.42-2.8-1.75-3.08h0Z"/><path class="c" d="M55.86,136.75c5.65,0,11.08,1.11,16.36,3.32,1.25,.52,2.75-.56,3.08-1.75,.4-1.44-.5-2.55-1.75-3.08-5.58-2.34-11.64-3.51-17.69-3.5-1.35,0-2.5,1.15-2.5,2.5s1.14,2.5,2.5,2.5h0Z"/><path class="c" d="M254.63,140.22c-5.55-2.7-12.18-2.56-17.54,.57-1.13,.66-1.63,2.29-.9,3.42s2.21,1.6,3.42,.9c.55-.32,1.12-.63,1.71-.87-.43,.18,.44-.15,.52-.18,.23-.08,.46-.15,.69-.22,.62-.18,1.24-.31,1.88-.43,.3-.05,.32-.05,.05-.01,.16-.02,.32-.04,.48-.05,.28-.03,.56-.04,.84-.05,.6-.02,1.2-.01,1.81,.03,.09,0,1.05,.12,.53,.04,.28,.04,.55,.09,.83,.15,.59,.12,1.17,.27,1.74,.46,.3,.1,.61,.21,.9,.33-.43-.17,.42,.2,.5,.24,1.17,.57,2.76,.36,3.42-.9,.59-1.12,.36-2.81-.9-3.42h0Z"/><path class="c" d="M75.59,137c1.35-16.84,3.29-33.62,5.8-50.32s5.6-33.52,9.09-50.15c.99-4.71,2.01-9.42,3.06-14.12,.54-2.42,1.09-4.84,1.64-7.25,.08-.34,.56-3.34,.76-3.37,0,0-.27,.54-.29,.5-.01-.02,.42-.26,.5-.3,.2-.09,.06-.05,.29-.04,3.22,.1,3.21-4.9,0-5-1.62-.05-3.4,.78-4.46,1.99-1.34,1.52-1.46,4.19-1.9,6.11-1.01,4.41-1.99,8.82-2.95,13.24-1.9,8.75-3.69,17.53-5.35,26.33-3.29,17.43-6.05,34.96-8.19,52.58-1.21,9.92-2.21,19.86-3.01,29.82-.11,1.35,1.23,2.5,2.5,2.5,1.44,0,2.39-1.15,2.5-2.5h0Z"/><path class="c" d="M96.52,9.42c15.73-3.63,31.92-4.99,48.04-4.2s32.11,3.76,47.45,8.76c15.32,5,30.22,12.02,43.5,21.18,1.38,.95,2.37,1.92,2.38,3.69,.01,2.32-.26,4.67-.41,6.99l-.96,14.7-1.91,29.16c-1.27,19.44-2.55,38.87-3.82,58.31l-.47,7.23c-.09,1.35,1.21,2.5,2.5,2.5,1.43,0,2.41-1.15,2.5-2.5,1.31-19.94,2.61-39.87,3.92-59.81l1.96-29.9,.98-14.95,.49-7.48c.15-2.3,.55-4.81-.17-7.05-1.26-3.94-5.67-6.07-8.93-8.12-3.52-2.21-7.12-4.3-10.78-6.25-7.4-3.95-15.09-7.37-22.96-10.26-15.69-5.78-32.17-9.36-48.83-10.76-16.58-1.39-33.35-.51-49.7,2.66-2.04,.4-4.07,.83-6.1,1.3-3.13,.72-1.81,5.54,1.33,4.82h0Z"/><path class="c" d="M45.96,143.05c-1.14-.33-1.62-1.2-1.78-2.32l-2.41,3.16c4.22,.38,7.87,3.13,9.76,6.85l2.82-3.67c-4.22-.8-8.14-2.59-11.4-5.41l.39,3.03c1.15-2.07,3.82-2.51,5.97-1.94,3.17,.84,5.61,3.44,7.85,5.68v-3.54c-2.85,3.22-8.63,2.51-10.58-1.38l-1.49,3.67c5.68-2.24,12.5,.02,15.51,5.41l2.16-3.76c-4.02,.39-7.97-.79-10.95-3.56l-1.1,4.18c8.7-2.52,18.37,.23,24.49,6.9l1.1-4.18c-5.42,1.03-11.13-.86-15-4.75l-1.1,4.18c9.17-1.82,18.94-.78,27.5,2.99v-4.32c-3.51,2.09-7.84,2.02-11.3-.14l.51,3.93c12.15-12.87,19.48-29.82,20.6-47.48,.15-2.36-3.69-3.57-4.66-1.26-4.62,10.95-7.15,22.63-7.3,34.53-.02,1.35,1.16,2.5,2.5,2.5,1.47,0,2.36-1.15,2.5-2.5l6.21-58.99c.29-2.78-4.41-3.44-4.91-.66l-4.67,26c-1.54,8.59-3.21,17.17-4.35,25.83-.63,4.82-1.05,9.66-1.12,14.53-.04,2.89,4.06,3.3,4.91,.66l16.49-51.34,4.73-14.74-4.82-1.33c-2.88,18.53-5.89,37.04-8.63,55.59-.71,4.79-1.06,9.6,1.18,14.06,.79,1.58,3.55,1.68,4.32,0,6.94-15.32,6.72-32.35,10.98-48.4,1.18-4.44,2.73-8.76,4.9-12.82l-4.66-1.26-7.48,59.35c-.15,1.22,1.07,2.32,2.17,2.46,1.21,.14,2.42-.56,2.74-1.79,4.23-16.07,7.88-32.29,10.92-48.63,.87-4.64,1.68-9.3,2.45-13.96l-4.91-.66c1.58,16.46-5.47,32.11-6.37,48.4-.25,4.62,.06,9.25,1.07,13.77,.44,1.97,3.7,2.59,4.57,.6,6.53-14.88,5.85-31.27,9.13-46.91,.91-4.33,2.13-8.64,3.96-12.68l-4.57-1.93c-3.58,20.7-6.56,41.5-8.95,62.37-.14,1.22,1.06,2.32,2.17,2.46,1.28,.15,2.33-.59,2.74-1.79,5.52-15.96,9.02-32.52,12.03-49.11,.85-4.7,1.67-9.41,2.48-14.12l-4.91-.66-5.64,62.27c-.26,2.83,4.24,3.36,4.91,.66l12.15-48.7,3.45-13.81-4.91-.66-3.92,31.76-1.96,15.88c-.52,4.19-1.17,8.8,2.03,12.14,1.26,1.31,3.78,.73,4.18-1.1,4.34-19.92,8.68-39.84,13.02-59.75l-4.82-1.33c-3.28,16.27-5.82,32.69-7.64,49.19-.52,4.72-.97,9.45-1.37,14.18-.24,2.88,4.14,3.29,4.91,.66,5.2-17.69,8.11-35.92,10.99-54.1l-4.91-.66c-1.94,16.78-3.87,33.71-2.21,50.6,.27,2.71,4.05,3.5,4.91,.66,5.5-18.1,8.69-36.87,9.52-55.77,.12-2.82-4.24-3.4-4.91-.66-4.77,19.38-9.42,39.23-6.61,59.28,.35,2.46,4.34,2.31,4.82,0l10.51-50.63-4.91-.66c-1.45,15.41-3.04,30.8-4.78,46.18-.15,1.34,1.26,2.5,2.5,2.5,1.48,0,2.35-1.15,2.5-2.5,1.63-14.3,3.38-28.77,8.82-42.22l-4.91-.66,4.22,63.29c.22,3.22,4.75,3.21,5,0l4.02-51.76h-5l2.74,46.11c.19,3.2,4.9,3.24,5,0,.18-5.46-.79-10.94-2.88-16-.52-1.25-1.66-2.14-3.08-1.75-1.18,.32-2.27,1.82-1.75,3.08,1.94,4.68,2.86,9.6,2.7,14.67h5l-2.74-46.11c-.19-3.23-4.75-3.2-5,0l-4.02,51.76h5l-4.22-63.29c-.2-2.93-3.86-3.25-4.91-.66-5.61,13.85-7.32,28.81-9,43.55h5c1.74-15.38,3.33-30.77,4.78-46.18,.26-2.8-4.34-3.41-4.91-.66l-10.51,50.63h4.82c-2.68-19.07,2.08-38.22,6.61-56.62l-4.91-.66c-.81,18.47-3.96,36.76-9.34,54.44l4.91,.66c-1.66-16.89,.27-33.82,2.21-50.6,.32-2.77-4.47-3.45-4.91-.66-2.88,18.18-5.78,36.41-10.99,54.1l4.91,.66c1.75-20.83,4.7-41.54,8.83-62.04,.27-1.32-.38-2.7-1.75-3.08-1.25-.34-2.79,.42-3.08,1.75-4.34,19.92-8.68,39.84-13.02,59.75l4.18-1.1c-1.12-1.17-1.09-2.93-1.01-4.45,.12-2.22,.48-4.43,.75-6.63l1.84-14.89,3.73-30.27c.35-2.82-4.24-3.35-4.91-.66l-12.15,48.7-3.45,13.81,4.91,.66,5.64-62.27c.25-2.78-4.43-3.45-4.91-.66-2.88,16.62-5.76,33.29-10.27,49.56-1.27,4.6-2.68,9.16-4.24,13.67l4.91,.66c2.34-20.43,5.26-40.78,8.77-61.04,.21-1.23-.22-2.46-1.45-2.95-1.05-.42-2.6-.13-3.12,1.02-6.69,14.81-6.05,31.21-9.24,46.86-.88,4.34-2.07,8.66-3.85,12.73l4.57,.6c-1.71-7.61-.93-15.47,.48-23.06,1.5-8.09,3.6-16.06,4.65-24.24,.58-4.49,.78-9.02,.35-13.54-.12-1.24-.86-2.3-2.17-2.46-1.12-.13-2.54,.55-2.74,1.79-2.71,16.4-6.01,32.69-9.91,48.85-1.11,4.59-2.27,9.17-3.47,13.74l4.91,.66,7.48-59.35c.32-2.51-3.55-3.33-4.66-1.26-7.95,14.86-7.97,31.98-11.64,48.07-1.02,4.49-2.34,8.95-4.24,13.15h4.32c-1.63-3.25-1.13-7.17-.61-10.63,.66-4.39,1.36-8.77,2.04-13.16l4.16-26.78,2.36-15.23c.21-1.33-.34-2.69-1.75-3.08s-2.66,.46-3.08,1.75l-16.49,51.34-4.73,14.74,4.91,.66c.11-8.39,1.32-16.68,2.76-24.92s3.06-17.09,4.6-25.63l2.6-14.47-4.91-.66-6.21,58.99h5c.14-10.96,2.36-21.9,6.62-32l-4.66-1.26c-1.04,16.3-7.93,32.07-19.14,43.94-1.13,1.19-.88,3.06,.51,3.93,4.92,3.08,11.37,3.11,16.34,.14,1.47-.88,1.79-3.53,0-4.32-9.88-4.36-20.75-5.6-31.35-3.5-1.89,.37-2.35,2.92-1.1,4.18,5.18,5.21,12.68,7.4,19.86,6.03,1.95-.37,2.28-2.9,1.1-4.18-7.28-7.93-19.02-11.18-29.35-8.19-1.75,.51-2.51,2.87-1.1,4.18,3.89,3.61,9.18,5.54,14.49,5.02,1.86-.18,3.15-1.99,2.16-3.76-4-7.17-13.46-10.73-21.15-7.71-1.56,.61-2.28,2.12-1.49,3.67,3.33,6.62,13.53,7.94,18.44,2.39,.9-1.01,1-2.53,0-3.54-3.06-3.06-6.57-6.47-11.04-7.17-4.07-.64-8.54,.65-10.64,4.44-.51,.91-.45,2.3,.39,3.03,3.89,3.37,8.53,5.74,13.6,6.7,2.17,.41,3.84-1.66,2.82-3.67-2.72-5.37-8.14-8.79-14.07-9.33-1.8-.16-2.61,1.72-2.41,3.16,.4,2.81,2.61,5.04,5.27,5.82,3.1,.9,4.42-3.93,1.33-4.82h0Z"/><path class="c" d="M167.61,128.97c-2.78,14.55-24.44,6.67-32.91,3.81-9.07-3.06-18.19-5.24-27.8-5.71-3.84-.19-7.63,.1-11.46,.15-2.42,.03-4.52,.38-6.1-1.5l2.44,9.24c4.66-16.56,7.91-33.37,10.11-50.42,1.18-9.15-14.1-13.27-17.7-4.79s-6.08,16.11-7.53,24.77l18.66,2.53c.52-8.8,2.45-17.23,5.47-25.51,1.6-4.39-1.44-9.57-5.5-11.21-4.56-1.83-9.14-.13-11.86,3.89-3.07,4.53-4.41,9.49-4.83,14.89-.36,4.65,3.89,8.81,8.24,9.33,4.97,.59,8.68-2.27,10.42-6.8,5.19-13.55,8.4-27.45,10.26-41.83,1.19-9.19-14.02-13.19-17.7-4.79-4.94,11.24-7.99,22.54-9.38,34.74-1.26,11.01,15.6,12.32,18.66,2.53,4.22-13.52,7.47-27.28,9.73-41.26,1.94-12.01-14.05-16.66-18.32-5.05l-6.32,17.18c-1.61,4.38,1.45,9.58,5.5,11.21,4.68,1.88,8.98,.04,11.86-3.89,4.11-5.6,6.03-12.3,7.08-19.09,.56-3.6,.89-7.24,1.47-10.84,.21-1.3,2.55-8.9,2.28-9.18,.72-.97-.05-.43-2.33,1.62,1.1-.01,2.21,0,3.31,.02,1.97,.02,3.94,.07,5.91,.12,4.27,.11,8.53,.26,12.79,.46,8.85,.41,17.69,1.03,26.52,1.82,10.64,.95,12.96-16.44,2.53-18.66-4.02-.86-8.04-1.92-11.82-3.58l-7.32,17.36c11.07,3.71,21.55,8.57,31.6,14.51l-3.41-13c-11.49,22.18-19.68,45.89-23.98,70.5-.88,5.05,1.35,10.24,6.64,11.69,4.75,1.31,10.59-1.6,11.69-6.64l13.28-60.82c2.6-11.9-14.82-16.84-18.32-5.05l-18.02,60.76,18.32,5.05,14.01-61.87c1.13-5-1.53-10.28-6.64-11.69-5.47-1.5-9.71,1.88-11.69,6.64-6.61,15.91-12.24,32.2-16.75,48.82-2.22,8.16-4.17,16.39-5.86,24.67s-2.96,16.29,3.45,22.7c4.54,4.54,14.88,3.17,15.88-4.19,3.77-27.88,7.54-55.77,11.32-83.65,.69-5.08-1.22-10.2-6.64-11.69-5.04-1.38-10.23,1.7-11.69,6.64-8.52,28.93-16.69,57.89-20.04,87.95-1.17,10.54,16.96,13.1,18.66,2.53,3.71-23.05,7.61-46.08,11.72-69.06,2.14-11.99-14.21-16.68-18.32-5.05-5.53,15.66-10.19,31.6-13.87,47.8-3.44,15.17-8.31,32.43-2.98,47.69,3.53,10.1,18.07,8.41,18.66-2.53,1.11-20.71,3-41.38,5.86-61.92,.71-5.08-1.23-10.2-6.64-11.69-4.45-1.22-10.96,1.52-11.69,6.64-3.36,23.85-6.62,48.42,1.03,71.83,2.7,8.27,16.4,9.78,18.32,0l10.46-53.25c2.33-11.88-14.97-16.96-18.32-5.05-5.57,19.79-9.07,40.06-10.68,60.55h19l-7.92-69.42c-1.21-10.63-14.77-12.92-18.66-2.53-7.31,19.55-11.6,39.97-13.19,60.77h19l2.99-63.78c.52-11.01-15.54-12.47-18.66-2.53-6.06,19.28-9.82,39.12-11.56,59.25-.91,10.56,16.86,13.1,18.66,2.53,3.15-18.49,5.35-37.14,6.5-55.86,.66-10.77-16.01-12.79-18.66-2.53-4.73,18.33-8.6,36.85-11.6,55.54l18.66,2.53c1.24-20.52,2.86-41.01,4.85-61.48,1.03-10.56-16.89-13.09-18.66-2.53l-9.92,59.12c-1.98,11.82,15.04,17.09,18.32,5.05,7.68-28.16,13.71-56.73,18.05-85.59l-18.66-2.53c.94,11.21,.82,22.4-.37,33.59h19c-.7-17.39,.29-34.77,3.3-51.92,.74-4.21-.49-8.46-4.37-10.73-3.49-2.04-8.73-1.64-11.51,1.49-8.01,9.01-11.01,20.39-8.37,32.17,1.84,8.2,13.3,8.99,17.36,2.27l17.02-28.15-17.36-7.32-10.07,57.81c-1.12,6.42,4.24,14.44,11.69,11.69,9.16-3.38,12.01-10.88,14.95-19.46,3.17-9.22,6.34-18.45,9.51-27.67l-18.32-5.05-7.76,37.9c-2.44,11.92,14.65,16.81,18.32,5.05l10.18-32.62c.46-1.48,2.63-5.68,2.23-7.11,.48-1.13,.07-.9-1.22,.69-.44,.7-1.01,1.16-1.73,1.4-.02-.16,1.52,.29,1.05,.07,4.06,1.88,10.4,.33,14.02-1.67,6.84-3.78,5.84-15.75-2.27-17.36l-14.46-2.87-5.05,18.32c4.86,.85,10.33,1.13,14.95,2.88l-4.19-2.44-.26-.42-1.3-4.79-.03,.87,1.3-4.79-.38,.72,3.41-3.41-.71,.34c-4.63,2.22-5.85,8.83-3.41,13,2.77,4.73,8.35,5.63,13,3.41,6.92-3.32,7.46-13,2.26-18.01-4.81-4.63-13.37-4.59-19.58-5.68-5.05-.89-10.24,1.36-11.69,6.64-1.28,4.67,1.58,10.68,6.64,11.69l14.46,2.87-2.27-17.36c2.33-1.29,1.65,0,.56-.28-.87-.22-2.55-.35-3.67-.48-2.36-.27-4.78-.31-7.1,.32-6.32,1.72-9.27,7-11.12,12.82-4.03,12.72-7.95,25.47-11.93,38.21l18.32,5.05,7.76-37.9c2.46-11.99-14.34-16.65-18.32-5.05l-6.97,20.29c-1.06,3.07-2.11,6.15-3.17,9.22-.29,.84-1.07,2.42-1.22,3.41-.17,1.12-1.72,1.63,.17,.93l11.69,11.69,10.07-57.81c1.78-10.2-11.48-17.05-17.36-7.32l-17.02,28.15,17.36,2.27c-1.09-4.88,.16-9.94,3.49-13.68l-15.88-9.24c-3.3,18.84-4.74,37.86-3.98,56.97,.5,12.45,17.73,11.97,19,0,1.19-11.19,1.31-22.38,.37-33.59-.39-4.7-3.31-8.74-8.24-9.33-4.22-.5-9.71,2.08-10.42,6.8-4.34,28.86-10.36,57.43-18.05,85.59l18.32,5.05,9.92-59.12-18.66-2.53c-1.99,20.46-3.61,40.96-4.85,61.48-.64,10.52,16.95,13.18,18.66,2.53,3-18.69,6.87-37.21,11.6-55.54l-18.66-2.53c-1.05,17.04-2.96,33.98-5.82,50.81l18.66,2.53c1.59-18.44,5.33-36.55,10.88-54.2l-18.66-2.53-2.99,63.78c-.24,5.13,4.54,9.5,9.5,9.5,5.47,0,9.11-4.36,9.5-9.5,1.47-19.11,5.81-37.78,12.52-55.72l-18.66-2.53,7.92,69.42c1.37,12.03,18.03,12.39,19,0,1.48-18.82,4.89-37.33,10-55.5l-18.32-5.05-10.46,53.25h18.32c-6.55-20.06-3.92-41.24-1.03-61.73l-18.32-5.05c-3.1,22.24-5.34,44.55-6.54,66.97l18.66-2.53c-4.5-12.89,.81-28.52,3.82-41.25,3.53-14.94,7.91-29.66,13.02-44.14l-18.32-5.05c-4.1,22.99-8.01,46.01-11.72,69.06l18.66,2.53c3.15-28.27,11.36-55.71,19.36-82.9l-18.32-5.05c-3.77,27.88-7.54,55.77-11.32,83.65l15.88-4.19c1.32,1.32,.15,1.16,.64-.38,.38-1.2,.54-2.61,.79-3.83,.75-3.68,1.55-7.35,2.41-11.01,1.64-7.01,3.47-13.98,5.49-20.89,4.13-14.13,9.07-28,14.71-41.59l-18.32-5.05-14.01,61.87c-2.69,11.9,14.83,16.82,18.32,5.05l18.02-60.76-18.32-5.05-13.28,60.82,18.32,5.05c4.02-23.01,11.32-45.21,22.06-65.96,2.37-4.57,1.2-10.28-3.41-13-11.43-6.75-23.56-12.21-36.14-16.42-10.04-3.36-17.25,13-7.32,17.36,5.33,2.34,10.66,4.29,16.36,5.5l2.53-18.66c-9.81-.88-19.63-1.55-29.47-1.96-8.76-.36-21-2.77-28.64,2.49-7.09,4.89-8.26,15.06-9.31,22.91-.99,7.37-1.48,14.86-6.01,21.03l17.36,7.32,6.32-17.18-18.32-5.05c-2.26,13.98-5.51,27.74-9.73,41.26l18.66,2.53c.98-8.57,3.32-17.24,6.79-25.15l-17.7-4.79c-1.63,12.58-5.05,24.94-9.58,36.77l18.66,2.53c.16-2.11,1.07-3.59,2.23-5.3l-17.36-7.32c-3.6,9.85-5.54,20.1-6.15,30.56s16.87,13.17,18.66,2.53c1.16-6.89,2.88-13.78,5.62-20.23l-17.7-4.79c-1.02,7.87-2.39,15.69-4.02,23.45-.9,4.3-1.89,8.58-2.97,12.83-.94,3.71-2.78,7.78-2.78,11.61,0,8.51,9.94,12.7,16.97,13.5s14.3-.37,21.46,.5c15.29,1.88,29.24,11.05,44.96,10.02,13.03-.85,26.8-8.75,29.42-22.44,.96-5.03-1.41-10.25-6.64-11.69-4.64-1.28-10.72,1.57-11.69,6.64h0Z"/><path class="c" d="M89.89,150.15c-4.14-6.39-10.7-9.04-18.12-7.4s-9.72,13.95-2.27,17.36l4.63,2.12,7.32-17.36c-10.08-3.94-20.16-7.87-30.24-11.81l-5.05,18.32c19.11,2.66,38.21,5.33,57.32,7.99v-18.32c-6.2,2.61-12.58,4.34-19.31,4.74-10.9,.65-12.64,14.99-2.53,18.66,32.89,11.95,68.58,9.39,102.31,2.78,5.04-.99,7.92-7.01,6.64-11.69-1.51-5.48-6.58-7.34-11.69-6.64-20.14,2.79-40.45-4.15-59.35-10.21l-2.53,18.66,29.13,1.86-2.53-18.66c-7.57,2.16-14.98,2.31-22.62,.32v18.32l26.46-10.41c4.77-1.88,8.1-6.36,6.64-11.69-1.25-4.55-6.88-8.52-11.69-6.64l-26.46,10.41c-8.17,3.21-9.83,15.76,0,18.32,10.82,2.82,21.96,2.75,32.72-.32,10.6-3.03,8-17.99-2.53-18.66l-29.13-1.86c-11.07-.71-12.37,15.51-2.53,18.66,22.71,7.28,45.43,13.53,69.45,10.21l-5.05-18.32c-30.55,5.98-62.47,8.02-92.21-2.78l-2.53,18.66c8.43-.5,16.57-2.14,24.36-5.42,3.94-1.65,6.97-4.59,6.97-9.16,0-3.79-2.91-8.59-6.97-9.16-19.11-2.66-38.21-5.33-57.32-7.99-12.04-1.68-16.62,13.8-5.05,18.32,10.08,3.94,20.16,7.87,30.24,11.81s17.1-12.89,7.32-17.36l-4.63-2.12-2.27,17.36c-1.32,.23-2.44-.22-3.34-1.34,6.62,10.23,23.08,.71,16.41-9.59h0Z"/><path class="c" d="M184.4,88.01c-4.14-6.14-10.17-11.92-18.21-10.34-6.72,1.33-10.99,6.77-12.26,13.34-2.8,14.52-.79,30.67,2.08,45,2.13,10.62,18.76,8.04,18.66-2.53l-.46-50.58c-.09-10.33-16.7-13.39-18.66-2.53-2.62,14.51-3.33,29.14-1.47,43.79,1.42,11.14,5.09,32.78,21.63,27.97,6.98-2.03,9.4-8.58,10.52-15.05,1.29-7.45,2.27-14.97,3.02-22.5,1.47-14.67,1.99-29.41,2.51-44.14,.18-5.13-4.5-9.5-9.5-9.5-5.57,0-8.98,4.37-9.5,9.5-2.22,21.68-3.92,43.21,.05,64.81,.84,4.59,6.13,7.45,10.42,6.8,5.01-.75,7.68-4.49,8.24-9.33,2.99-26,3.31-52.18,.93-78.24-1.01-11.08-14.53-12.4-18.66-2.53-10.21,24.39-16.25,50.09-18.54,76.41-.92,10.63,16.46,12.97,18.66,2.53,2.9-13.71,3.49-27.69,4.5-41.62,.92-12.83,2.39-26.01,8.02-37.74l-17.36-2.27c2.56,16.63-.42,33.62-.3,50.33,.1,13.97,.73,39.82,19.26,41.19,5.51,.41,8.97-4.71,9.5-9.5,2.52-22.94,4.03-45.97,4.51-69.05h-19c.86,14.15-1.66,28.1-2.84,42.15s-.17,28.31,5.69,41.68c3.15,7.18,16.18,5.58,17.36-2.27,3.22-21.35,5.94-42.78,8.09-64.26h-19c.48,11.57-1.47,22.97-2.25,34.48-.81,11.94,.4,23.27,5.19,34.3,1.64,3.79,7.03,5.38,10.73,4.37,4.24-1.17,6.64-4.96,6.97-9.16l4.75-60.18-18.66,2.53c1.56,9.84-.59,20.1-1.22,29.94-.69,10.64,.44,21.04,5.57,30.53,1.99,3.68,6.78,5.45,10.73,4.37,4.35-1.19,6.48-4.95,6.97-9.16l3.49-29.7-18.66,2.53c2.32,10.39,2.96,20.84,2.22,31.46-.36,5.12,4.62,9.5,9.5,9.5,5.54,0,9.01-4.37,9.5-9.5l2.34-24.6h-19l1.68,22.77c.9,12.14,18.37,12.31,19,0,.18-3.57,.62-6.99,1.35-10.49l-18.66-2.53-.58,10.24h19c.46-23.89,4.26-47.48,6.78-71.19,.61-5.77,1.14-11.54,1.52-17.33,.35-5.36,1.32-11.47-1.19-16.46s-7.3-7.43-12.61-9.1c-5.93-1.86-11.88-3.67-17.82-5.51-10.06-3.11-17.3,12.94-7.32,17.36l9.36,4.15,4.79-17.7c-2.01-.2-3.56-1.03-5.22-2.04l-7.32,17.36,5.66,2.36c9.84,4.1,17.21-13.14,7.32-17.36l-8.92-3.81-7.32,17.36,9.26,3.05c10.27,3.38,16.66-12.14,7.32-17.36l-11.94-6.67-7.32,17.36,8.48,2.24c4.54,1.2,9.45-1.13,11.21-5.5,1.58-3.94,.52-9.98-3.89-11.86-16.23-6.95-32.86-12.53-50.11-16.36-8.03-1.78-14.91,6.51-10.73,13.96l20.46,36.42c4.23,7.52,14.78,5.15,17.36-2.27s3.87-15.42,3.88-23.38l-18.66,2.53,5.3,36.93c1.16,8.08,13.91,9.16,17.36,2.27,4.75-9.48,8.42-19.4,10.69-29.77l-18.66-2.53-2.86,30.35c-.91,9.65-1.33,17.92,5,25.89,4.8,6.05,13.78,1.82,15.88-4.19,5.58-16.03,9.01-32.55,10.68-49.43,.51-5.11-4.73-9.5-9.5-9.5-5.69,0-8.82,4.39-9.5,9.5-2.44,18.42-4.35,36.94,.52,55.16,2.86,10.69,18.03,7.93,18.66-2.53,.81-13.42,3.27-26.52,7.15-39.39h-18.32c1.85,6.88,2.01,13.68,.34,20.62l18.66,2.53-.03-21.55c-.01-10.47-16.3-13.21-18.66-2.53l-8.54,38.63c-2.57,11.63-4,24.55-8.55,35.62-3.38,8.22-10.29,10.59-18.08,13.34-9.4,3.31-17.78,7.16-23.57,15.61-1.76,2.57-1.82,7.03,0,9.59,6.16,8.67,15.4,9.91,25.36,9.11,11.9-.95,23.77-2.2,35.61-3.7,23.57-2.99,46.99-6.92,70.23-11.89,9.35-2,8.75-15.97,0-18.32-30.26-8.13-61.68-9.27-92.5-3.8-10.99,1.95-7.68,18.15,2.53,18.66l38.89,1.96-2.53-18.66c-13.65,2.84-27.4,4.4-41.34,4.76v19l27.07-1.95c5.12-.37,9.5-4.1,9.5-9.5,0-4.86-4.35-9.87-9.5-9.5l-27.07,1.95c-12.06,.87-12.35,19.32,0,19,15.6-.4,31.12-2.25,46.39-5.44,10.9-2.27,7.76-18.14-2.53-18.66l-38.89-1.96,2.53,18.66c27.39-4.86,55.56-3.41,82.4,3.8v-18.32c-19.77,4.23-39.69,7.78-59.72,10.5-9.81,1.33-19.64,2.44-29.49,3.39-4.92,.47-9.86,1.03-14.8,1.27-1.32,.06-2.86,.23-4.16,.06-1.86-.25-2.82-1.77-1.56,0v9.59c3.97-5.8,13.85-7.22,20.09-9.77,10.49-4.28,18.12-10.81,22.55-21.44,4.72-11.32,6.42-24.05,9.05-35.97l8.97-40.56-18.66-2.53,.03,21.55c.01,10.54,16.11,13.12,18.66,2.53,2.46-10.24,2.39-20.55-.34-30.73-2.48-9.23-15.65-8.84-18.32,0-4.37,14.46-6.92,29.36-7.83,44.44l18.66-2.53c-4.39-16.42-2.04-33.53,.15-50.11h-19c-1.5,15.15-5,30.01-10,44.38l15.88-4.19c.91,1.15-.12-.77-.14-1.44-.06-1.54,0-3.07,.11-4.61,.27-4.1,.76-8.19,1.15-12.28l2.31-24.48c1.01-10.65-16.38-12.92-18.66-2.53-1.92,8.79-4.74,17.19-8.77,25.23l17.36,2.27-5.3-36.93c-1.55-10.79-18.64-7.9-18.66,2.53-.01,6.4-1.1,12.28-3.2,18.33l17.36-2.27-20.46-36.42-10.73,13.96c15.57,3.46,30.9,8.17,45.57,14.45l7.32-17.36-8.48-2.24c-10.27-2.71-16.88,12.02-7.32,17.36l11.94,6.67,7.32-17.36-9.26-3.05c-10.04-3.3-17.3,13.1-7.32,17.36l8.92,3.81,7.32-17.36-5.66-2.36c-4.3-1.79-9.63,1.59-11.21,5.5-1.77,4.4-.25,9.35,3.89,11.86,4.65,2.82,9.45,4.11,14.81,4.64,9.15,.9,13.29-13.94,4.79-17.7l-9.36-4.15-7.32,17.36,15.01,4.64c.33,.1,5.14,1.68,5.13,1.7-1.6-3.23-2.28-3.66-2.06-1.31-.05,1.29-.11,2.58-.18,3.86-.54,10.3-1.62,20.56-2.83,30.8-2.42,20.48-5.3,40.93-5.69,61.58-.23,12.3,18.31,12.14,19,0l.58-10.24c.6-10.61-16.45-13.04-18.66-2.53-1.08,5.12-1.76,10.31-2.03,15.54h19l-1.68-22.77c-.91-12.29-17.84-12.14-19,0l-2.34,24.6h19c.86-12.27-.21-24.51-2.89-36.51-1.02-4.56-5.99-7.47-10.42-6.8-5.02,.75-7.67,4.49-8.24,9.33l-3.49,29.7,17.7-4.79c-4.29-7.94-3.36-17.27-2.57-25.94,.92-10.14,1.75-19.87,.15-30-.73-4.6-6.22-7.44-10.42-6.8-4.89,.73-7.86,4.49-8.24,9.33l-4.75,60.18,17.7-4.79c-3.81-8.78-3.13-18.95-2.32-28.23,.9-10.32,2.41-20.57,1.98-30.96-.52-12.41-17.8-12.01-19,0-1.98,19.8-4.44,39.54-7.41,59.21l17.36-2.27c-4.86-11.09-3.93-23.86-2.77-35.59,1.26-12.87,3.3-25.68,2.52-38.65-.74-12.12-18.74-12.33-19,0-.49,23.07-1.99,46.1-4.51,69.05l9.5-9.5c6.18,.46,2.87,2.88,2.68,.22-.11-1.59-1.02-3.68-1.36-5.25-.65-2.99-1.05-5.98-1.27-9.04-.51-6.95-.3-13.92,.02-20.88,.68-14.33,1.49-28.38-.7-42.63-1.22-7.95-13.98-9.31-17.36-2.27-12.77,26.6-8.5,55.82-14.43,83.91l18.66,2.53c2.13-24.58,8.34-48.62,17.86-71.36l-18.66-2.53c2.37,26.06,2.06,52.25-.93,78.24l18.66-2.53c-3.62-19.71-1.39-39.99,.63-59.76h-19c-.42,11.85-.84,23.71-1.75,35.53-.43,5.64-.96,11.28-1.69,16.88-.35,2.71-.67,11.94-2.29,13.2l4.19-2.44c3.17,2.09,4.49,2.34,3.98,.76-.28-.49-.45-1.02-.51-1.6,.1-2.25-1.05-5.15-1.41-7.4-.65-4.12-1-8.29-1.19-12.46-.41-9.2,.14-18.42,1.78-27.48l-18.66-2.53,.46,50.58,18.66-2.53c-1.4-7-2.21-14.01-2.4-21.15-.09-3.5-.04-7,.14-10.5,.07-1.28,.29-2.64,.28-3.91,0-2.74,.44,.37-1.13,.59h-5.05c1.52,.27,1.71,.27,.56,.01,.54,.42,.96,.95,1.24,1.59,6.79,10.09,23.26,.59,16.41-9.59h0Z"/></g></svg>